{
.appVersion = "1240";
DisplayStrings = (
"/uni067C  /uni067C.fina  /uni067C.medi  /uni067C.init  /uni0689  /uni0689.fina  /uni0693  /uni0693.fina  /uni06B0  /uni06B0.fina  /uni06B0.medi  /uni06B0.init  /uni06AB  /uni06AB.fina  /uni06AB.medi  /uni06AB.init  /_082/uni06BC  /uni06BC.fina  /uni06BC.medi  /uni06BC.init  /uni06C4  /uni06C4.fina  /uni0620  /uni0620.fina  /uni0620.medi  /uni0620.init  "
);
classes = (
{
code = "uni0660 uni0661 uni0662 uni0663 uni0664 uni0665 uni0666 uni0667 uni0668 uni0669 uni06F0 uni06F1 uni06F2 uni06F3 uni06F4 uni06F5 uni06F6 uni06F7 uni06F8 uni06F9 uni06F4.locl uni06F7.locl";
name = tnum;
},
{

glyphs = (
{
glyphname = uni0621;
lastChange = "2019-12-18 10:20:00 +0000";
layers = (
{
anchors = (
{
name = bottom;
position = "{237, -86}";
},
{
name = top;
position = "{206, 326}";
}
);
layerId = master01;
paths = (
{
closed = 1;
nodes = (
"159 -16 OFFCURVE",
"195 -9 OFFCURVE",
"231 -3 CURVE SMOOTH",
"267 3 OFFCURVE",
"324 9 OFFCURVE",
"372 14 CURVE SMOOTH",
"397 16 OFFCURVE",
"419 33 OFFCURVE",
"419 62 CURVE SMOOTH",
"419 74 OFFCURVE",
"414 86 OFFCURVE",
"404 97 CURVE",
"394 96 OFFCURVE",
"382 94 OFFCURVE",
"366 92 CURVE SMOOTH",
"336 87 OFFCURVE",
"301 81 OFFCURVE",
"269 72 CURVE SMOOTH",
"259 70 OFFCURVE",
"250 68 OFFCURVE",
"242 65 CURVE",
"223 70 OFFCURVE",
"199 79 OFFCURVE",
"184 87 CURVE SMOOTH",
"161 100 OFFCURVE",
"146 118 OFFCURVE",
"135 143 CURVE",
"163 180 OFFCURVE",
"209 207 OFFCURVE",
"248 207 CURVE SMOOTH",
"260 207 OFFCURVE",
"281 203 OFFCURVE",
"289 195 CURVE",
"288 185 OFFCURVE",
"286 178 OFFCURVE",
"281 170 CURVE",
"292 165 OFFCURVE",
"298 162 OFFCURVE",
"311 158 CURVE",
"318 170 OFFCURVE",
"323 188 OFFCURVE",
"323 203 CURVE SMOOTH",
"323 252 OFFCURVE",
"291 277 OFFCURVE",
"244 277 CURVE SMOOTH",
"228 277 OFFCURVE",
"213 273 OFFCURVE",
"199 267 CURVE SMOOTH",
"141 242 OFFCURVE",
"97 172 OFFCURVE",
"97 116 CURVE SMOOTH",
"97 93 OFFCURVE",
"109 71 OFFCURVE",
"127 53 CURVE SMOOTH",
"131 49 OFFCURVE",
"138 44 OFFCURVE",
"146 39 CURVE",
"106 25 OFFCURVE",
"79 15 OFFCURVE",
"54 5 CURVE",
"68 -37 LINE"
);
}
);
width = 437;
},
{
anchors = (
{
name = bottom;
position = "{256, -81}";
},
{
name = top;
position = "{235, 385}";
}
);
layerId = "26E2967D-790C-4793-AF2A-2D0AD74EDC69";
paths = (
{
closed = 1;
nodes = (
"156 -21 OFFCURVE",
"207 -14 OFFCURVE",
"255 -10 CURVE SMOOTH",
"305 -4 OFFCURVE",
"349 -2 OFFCURVE",
"379 1 CURVE SMOOTH",
"411 4 OFFCURVE",
"431 33 OFFCURVE",
"431 64 CURVE SMOOTH",
"431 86 OFFCURVE",
"419 109 OFFCURVE",
"408 121 CURVE",
"398 120 OFFCURVE",
"386 118 OFFCURVE",
"374 116 CURVE SMOOTH",
"350 112 OFFCURVE",
"325 107 OFFCURVE",
"301 102 CURVE SMOOTH",
"292 100 OFFCURVE",
"282 97 OFFCURVE",
"273 95 CURVE",
"260 95 OFFCURVE",
"233 100 OFFCURVE",
"221 104 CURVE SMOOTH",
"195 111 OFFCURVE",
"178 121 OFFCURVE",
"159 145 CURVE",
"192 191 OFFCURVE",
"224 205 OFFCURVE",
"255 205 CURVE SMOOTH",
"265 205 OFFCURVE",
"277 203 OFFCURVE",
"290 198 CURVE",
"288 189 OFFCURVE",
"287 182 OFFCURVE",
"285 174 CURVE",
"295 168 OFFCURVE",
"312 161 OFFCURVE",
"330 156 CURVE",
"347 174 OFFCURVE",
"354 201 OFFCURVE",
"354 221 CURVE SMOOTH",
"354 276 OFFCURVE",
"312 312 OFFCURVE",
"260 312 CURVE SMOOTH",
"246 312 OFFCURVE",
"233 309 OFFCURVE",
"220 303 CURVE SMOOTH",
"156 272 OFFCURVE",
"108 186 OFFCURVE",
"108 118 CURVE SMOOTH",
"108 99 OFFCURVE",
"114 82 OFFCURVE",
"125 66 CURVE SMOOTH",
"130 60 OFFCURVE",
"135 54 OFFCURVE",
"141 49 CURVE",
"131 45 OFFCURVE",
"85 25 OFFCURVE",
"68 17 CURVE",
"85 -32 LINE"
);
}
);
width = 452;
}
);
unicode = "0621,FE80";
},
{
glyphname = uni0627;
lastChange = "2019-12-18 14:20:00 +0000";
layers = (
{
anchors = (
{
name = bottom;
position = "{131, -52}";
},
{
name = top;
position = "{122, 720}";
}
);
layerId = master01;
paths = (
{
closed = 1;
nodes = (
"150 8 LINE",
"159 230 OFFCURVE",
"159 380 OFFCURVE",
"151 529 CURVE",
"178 552 LINE",
"162 599 OFFCURVE",
"148 645 OFFCURVE",
"143 671 CURVE",
"91 661 OFFCURVE",
"72 636 OFFCURVE",
"77 582 CURVE SMOOTH",
"92 428 OFFCURVE",
"100 234 OFFCURVE",
"104 0 CURVE"
);
}
);
width = 238;
},
{
anchors = (
{
name = bottom;
position = "{151, -58}";
},
{
name = top;
position = "{142, 729}";
}
);
layerId = "26E2967D-790C-4793-AF2A-2D0AD74EDC69";
paths = (
{
closed = 1;
nodes = (
"185 17 LINE",
"192 245 OFFCURVE",
"193 420 OFFCURVE",
"190 531 CURVE",
"225 557 LINE",
"209 597 OFFCURVE",
"195 638 OFFCURVE",
"184 680 CURVE",
"124 680 OFFCURVE",
"71 645 OFFCURVE",
"77 595 CURVE SMOOTH",
"96 404 OFFCURVE",
"107 284 OFFCURVE",
"121 9 CURVE"
);
}
);
width = 284;
}
);
unicode = "0627,FE8D";
},
{
glyphname = uniFE8E;
lastChange = "2019-12-18 10:09:45 +0000";
layers = (
{
anchors = (
{
name = bottom;
position = "{173, -52}";
},
{
name = top;
position = "{113, 720}";
}
);
layerId = master01;
paths = (
{
closed = 1;
nodes = (
"267 0 OFFCURVE",
"270 3 OFFCURVE",
"270 8 CURVE SMOOTH",
"270 68 LINE SMOOTH",
"270 73 OFFCURVE",
"267 76 OFFCURVE",
"262 76 CURVE SMOOTH",
"224 76 OFFCURVE",
"189 85 OFFCURVE",
"158 102 CURVE",
"155 169 LINE SMOOTH",
"152 375 OFFCURVE",
"150 515 OFFCURVE",
"144 671 CURVE",
"117 653 OFFCURVE",
"95 634 OFFCURVE",
"76 615 CURVE",
"98 312 OFFCURVE",
"109 182 OFFCURVE",
"120 87 CURVE SMOOTH",
"126 33 OFFCURVE",
"183 0 OFFCURVE",
"262 0 CURVE SMOOTH"
);
}
);
width = 253;
},
{
anchors = (
{
name = bottom;
position = "{173, -58}";
},
{
name = top;
position = "{128, 729}";
}
);
layerId = "26E2967D-790C-4793-AF2A-2D0AD74EDC69";
paths = (
{
closed = 1;
nodes = (
"302 9 OFFCURVE",
"305 12 OFFCURVE",
"305 17 CURVE SMOOTH",
"305 119 LINE SMOOTH",
"305 124 OFFCURVE",
"303 127 OFFCURVE",
"299 127 CURVE SMOOTH",
"262 127 OFFCURVE",
"237 133 OFFCURVE",
"213 153 CURVE",
"209 231 LINE SMOOTH",
"205 381 OFFCURVE",
"200 530 OFFCURVE",
"195 680 CURVE",
"154 661 OFFCURVE",
"114 639 OFFCURVE",
"76 614 CURVE",
"86 537 OFFCURVE",
"116 222 OFFCURVE",
"124 159 CURVE SMOOTH",
"133 74 OFFCURVE",
"176 9 OFFCURVE",
"297 9 CURVE SMOOTH"
);
}
);
width = 288;
}
);
unicode = FE8E;
},
{
glyphname = uniFE8E.rlig;
lastChange = "2019-12-18 10:09:45 +0000";
layers = (
{
anchors = (
{
name = bottom;
position = "{202, -52}";
},
{
name = top;
position = "{64, 592}";
}
);
layerId = master01;
paths = (
{
closed = 1;
nodes = (
"157 0 OFFCURVE",
"246 1 OFFCURVE",
"270 2 CURVE SMOOTH",
"316 3 OFFCURVE",
"405 12 OFFCURVE",
"436 17 CURVE SMOOTH",
"447 19 OFFCURVE",
"466 69 OFFCURVE",
"466 84 CURVE SMOOTH",
"466 113 OFFCURVE",
"385 247 OFFCURVE",
"349 290 CURVE SMOOTH",
"304 344 OFFCURVE",
"237 407 OFFCURVE",
"177 458 CURVE SMOOTH",
"136 493 OFFCURVE",
"98 523 OFFCURVE",
"69 543 CURVE",
"40 528 OFFCURVE",
"34 507 OFFCURVE",
"34 485 CURVE SMOOTH",
"34 455 OFFCURVE",
"59 424 OFFCURVE",
"83 402 CURVE",
"120 404 LINE",
"183 368 OFFCURVE",
"247 316 OFFCURVE",
"301 260 CURVE SMOOTH",
"355 205 OFFCURVE",
"400 146 OFFCURVE",
"427 96 CURVE",
"379 88 OFFCURVE",
"328 83 OFFCURVE",
"280 80 CURVE SMOOTH",
"232 77 OFFCURVE",
"187 76 OFFCURVE",
"149 76 CURVE SMOOTH",
"144 76 OFFCURVE",
"134 30 OFFCURVE",
"134 11 CURVE SMOOTH",
"134 6 OFFCURVE",
"135 2 OFFCURVE",
"137 0 CURVE"
);
}
);
width = 0;
},
{
anchors = (
{
name = bottom;
position = "{202, -52}";
},
{
name = top;
position = "{64, 592}";
}
);
layerId = "26E2967D-790C-4793-AF2A-2D0AD74EDC69";
paths = (
{
closed = 1;
nodes = (
"166 0 OFFCURVE",
"257 2 OFFCURVE",
"282 3 CURVE SMOOTH",
"337 5 OFFCURVE",
"417 10 OFFCURVE",
"456 17 CURVE SMOOTH",
"465 20 OFFCURVE",
"496 100 OFFCURVE",
"496 119 CURVE SMOOTH",
"496 140 OFFCURVE",
"431 229 OFFCURVE",
"391 280 CURVE SMOOTH",
"344 340 OFFCURVE",
"258 426 OFFCURVE",
"191 486 CURVE SMOOTH",
"154 520 OFFCURVE",
"119 549 OFFCURVE",
"89 569 CURVE",
"56 550 OFFCURVE",
"34 521 OFFCURVE",
"34 484 CURVE SMOOTH",
"34 441 OFFCURVE",
"58 412 OFFCURVE",
"93 395 CURVE",
"130 397 LINE",
"200 354 OFFCURVE",
"251 316 OFFCURVE",
"296 275 CURVE SMOOTH",
"342 234 OFFCURVE",
"382 188 OFFCURVE",
"430 130 CURVE",
"383 122 OFFCURVE",
"332 117 OFFCURVE",
"284 114 CURVE SMOOTH",
"236 111 OFFCURVE",
"190 110 OFFCURVE",
"153 110 CURVE SMOOTH",
"146 110 OFFCURVE",
"137 40 OFFCURVE",
"137 12 CURVE SMOOTH",
"137 5 OFFCURVE",
"138 0 OFFCURVE",
"140 0 CURVE SMOOTH"
);
}
);
width = 0;
}
);
},
{
glyphname = uni066E;
lastChange = "2019-12-18 10:09:45 +0000";
layers = (
{
anchors = (
{
name = bottom;
position = "{378, -52}";
},
{
name = top;
position = "{365, 398}";
}
);
layerId = master01;
paths = (
{
closed = 1;
nodes = (
"472 0 OFFCURVE",
"600 33 OFFCURVE",
"688 89 CURVE",
"711 134 OFFCURVE",
"723 168 OFFCURVE",
"723 191 CURVE SMOOTH",
"723 239 OFFCURVE",
"707 309 OFFCURVE",
"686 408 CURVE",
"643 384 OFFCURVE",
"620 352 OFFCURVE",
"620 324 CURVE SMOOTH",
"620 313 OFFCURVE",
"626 291 OFFCURVE",
"639 257 CURVE SMOOTH",
"656 211 OFFCURVE",
"668 175 OFFCURVE",
"675 147 CURVE",
"583 103 OFFCURVE",
"459 76 OFFCURVE",
"335 76 CURVE SMOOTH",
"282 76 OFFCURVE",
"240 82 OFFCURVE",
"208 93 CURVE SMOOTH",
"144 115 OFFCURVE",
"116 153 OFFCURVE",
"116 231 CURVE SMOOTH",
"116 247 OFFCURVE",
"118 275 OFFCURVE",
"119 280 CURVE",
"83 280 LINE",
"74 248 OFFCURVE",
"70 212 OFFCURVE",
"70 170 CURVE SMOOTH",
"70 56 OFFCURVE",
"157 0 OFFCURVE",
"314 0 CURVE SMOOTH"
);
}
);
width = 772;
},
{
anchors = (
{
name = bottom;
position = "{378, -58}";
},
{
name = top;
position = "{365, 458}";
}
);
layerId = "26E2967D-790C-4793-AF2A-2D0AD74EDC69";
paths = (
{
closed = 1;
nodes = (
"458 0 OFFCURVE",
"606 37 OFFCURVE",
"694 90 CURVE",
"715 128 OFFCURVE",
"733 180 OFFCURVE",
"733 211 CURVE SMOOTH",
"733 234 OFFCURVE",
"723 293 OFFCURVE",
"692 443 CURVE",
"642 418 OFFCURVE",
"601 374 OFFCURVE",
"601 342 CURVE SMOOTH",
"601 324 OFFCURVE",
"611 304 OFFCURVE",
"625 278 CURVE SMOOTH",
"637 256 OFFCURVE",
"661 212 OFFCURVE",
"675 182 CURVE",
"583 141 OFFCURVE",
"467 119 OFFCURVE",
"351 119 CURVE SMOOTH",
"299 119 OFFCURVE",
"256 125 OFFCURVE",
"224 135 CURVE SMOOTH",
"160 157 OFFCURVE",
"131 195 OFFCURVE",
"131 273 CURVE SMOOTH",
"131 286 OFFCURVE",
"133 317 OFFCURVE",
"134 323 CURVE",
"89 323 LINE",
"76 277 OFFCURVE",
"70 241 OFFCURVE",
"70 213 CURVE SMOOTH",
"70 75 OFFCURVE",
"153 0 OFFCURVE",
"314 0 CURVE SMOOTH"
);
}
);
width = 806;
}
);
unicode = 066E;
},
{
glyphname = uni066E.fina;
lastChange = "2019-12-18 10:09:45 +0000";
layers = (
{
anchors = (
{
name = bottom;
position = "{458, -52}";
},
{
name = top;
position = "{404, 305}";
}
);
layerId = master01;
paths = (
{
closed = 1;
nodes = (
"453 0 OFFCURVE",
"575 27 OFFCURVE",
"656 71 CURVE",
"703 24 OFFCURVE",
"760 0 OFFCURVE",
"827 0 CURVE SMOOTH",
"833 0 OFFCURVE",
"835 3 OFFCURVE",
"835 8 CURVE SMOOTH",
"835 68 LINE SMOOTH",
"835 73 OFFCURVE",
"833 76 OFFCURVE",
"827 76 CURVE SMOOTH",
"777 76 OFFCURVE",
"741 88 OFFCURVE",
"696 118 CURVE",
"707 134 OFFCURVE",
"720 165 OFFCURVE",
"738 209 CURVE",
"732 214 OFFCURVE",
"724 216 OFFCURVE",
"714 216 CURVE SMOOTH",
"699 216 OFFCURVE",
"689 211 OFFCURVE",
"683 201 CURVE SMOOTH",
"662 164 OFFCURVE",
"656 148 OFFCURVE",
"633 131 CURVE SMOOTH",
"599 107 OFFCURVE",
"447 76 OFFCURVE",
"335 76 CURVE SMOOTH",
"282 76 OFFCURVE",
"240 82 OFFCURVE",
"208 93 CURVE SMOOTH",
"144 115 OFFCURVE",
"116 153 OFFCURVE",
"116 231 CURVE SMOOTH",
"116 247 OFFCURVE",
"118 275 OFFCURVE",
"119 280 CURVE",
"83 280 LINE",
"74 248 OFFCURVE",
"70 212 OFFCURVE",
"70 170 CURVE SMOOTH",
"70 56 OFFCURVE",
"157 0 OFFCURVE",
"314 0 CURVE SMOOTH"
);
}
);
width = 817;
},
{
anchors = (
{
name = bottom;
position = "{458, -58}";
},
{
name = top;
position = "{404, 347}";
}
);
layerId = "26E2967D-790C-4793-AF2A-2D0AD74EDC69";
paths = (
{
closed = 1;
nodes = (
"470 0 OFFCURVE",
"607 31 OFFCURVE",
"674 85 CURVE",
"730 29 OFFCURVE",
"776 9 OFFCURVE",
"827 9 CURVE SMOOTH",
"833 9 OFFCURVE",
"835 12 OFFCURVE",
"835 17 CURVE SMOOTH",
"835 119 LINE SMOOTH",
"835 125 OFFCURVE",
"833 127 OFFCURVE",
"827 127 CURVE SMOOTH",
"783 127 OFFCURVE",
"754 137 OFFCURVE",
"720 154 CURVE",
"738 186 OFFCURVE",
"753 220 OFFCURVE",
"766 256 CURVE",
"755 265 OFFCURVE",
"742 270 OFFCURVE",
"726 270 CURVE SMOOTH",
"705 270 OFFCURVE",
"691 264 OFFCURVE",
"672 224 CURVE SMOOTH",
"657 190 OFFCURVE",
"649 179 OFFCURVE",
"636 167 CURVE SMOOTH",
"599 138 OFFCURVE",
"491 119 OFFCURVE",
"351 119 CURVE SMOOTH",
"299 119 OFFCURVE",
"256 125 OFFCURVE",
"224 135 CURVE SMOOTH",
"160 157 OFFCURVE",
"131 195 OFFCURVE",
"131 273 CURVE SMOOTH",
"131 286 OFFCURVE",
"133 317 OFFCURVE",
"134 323 CURVE",
"89 323 LINE",
"76 277 OFFCURVE",
"70 241 OFFCURVE",
"70 213 CURVE SMOOTH",
"70 71 OFFCURVE",
"151 0 OFFCURVE",
"314 0 CURVE SMOOTH"
);
}
);
width = 817;
}
);
},
{
glyphname = uni066E.medi;
lastChange = "2019-12-18 10:09:45 +0000";
layers = (
{
anchors = (
{
name = bottom;
position = "{169, -52}";
},
{
name = top;
position = "{148, 276}";
}
);
layerId = master01;
paths = (
{
closed = 1;
nodes = (
"55 0 OFFCURVE",
"113 20 OFFCURVE",
"126 37 CURVE SMOOTH",
"132 44 OFFCURVE",
"138 51 OFFCURVE",
"143 59 CURVE",
"186 20 OFFCURVE",
"239 0 OFFCURVE",
"301 0 CURVE SMOOTH",
"306 0 OFFCURVE",
"309 3 OFFCURVE",
"309 8 CURVE SMOOTH",
"309 68 LINE SMOOTH",
"309 73 OFFCURVE",
"306 76 OFFCURVE",
"301 76 CURVE SMOOTH",
"255 76 OFFCURVE",
"222 86 OFFCURVE",
"175 114 CURVE",
"193 149 OFFCURVE",
"209 185 OFFCURVE",
"224 220 CURVE",
"216 225 OFFCURVE",
"208 228 OFFCURVE",
"199 228 CURVE SMOOTH",
"185 228 OFFCURVE",
"174 222 OFFCURVE",
"168 211 CURVE SMOOTH",
"132 143 OFFCURVE",
"116 115 OFFCURVE",
"104 104 CURVE SMOOTH",
"84 86 OFFCURVE",
"49 76 OFFCURVE",
"0 76 CURVE SMOOTH",
"-6 76 OFFCURVE",
"-8 73 OFFCURVE",
"-8 68 CURVE SMOOTH",
"-8 8 LINE SMOOTH",
"-8 3 OFFCURVE",
"-6 0 OFFCURVE",
"0 0 CURVE SMOOTH"
);
}
);
width = 292;
},
{
anchors = (
{
name = bottom;
position = "{174, -58}";
},
{
name = top;
position = "{148, 344}";
}
);
layerId = "26E2967D-790C-4793-AF2A-2D0AD74EDC69";
paths = (
{
closed = 1;
nodes = (
"68 9 OFFCURVE",
"116 25 OFFCURVE",
"134 45 CURVE SMOOTH",
"141 54 OFFCURVE",
"148 64 OFFCURVE",
"156 78 CURVE",
"202 32 OFFCURVE",
"250 9 OFFCURVE",
"301 9 CURVE SMOOTH",
"306 9 OFFCURVE",
"309 12 OFFCURVE",
"309 17 CURVE SMOOTH",
"309 119 LINE SMOOTH",
"309 125 OFFCURVE",
"306 127 OFFCURVE",
"301 127 CURVE SMOOTH",
"262 127 OFFCURVE",
"227 136 OFFCURVE",
"195 153 CURVE",
"210 187 OFFCURVE",
"225 222 OFFCURVE",
"240 256 CURVE",
"229 265 OFFCURVE",
"216 270 OFFCURVE",
"200 270 CURVE SMOOTH",
"178 270 OFFCURVE",
"165 266 OFFCURVE",
"144 223 CURVE SMOOTH",
"127 189 OFFCURVE",
"115 163 OFFCURVE",
"98 151 CURVE SMOOTH",
"76 135 OFFCURVE",
"43 127 OFFCURVE",
"0 127 CURVE SMOOTH",
"-6 127 OFFCURVE",
"-8 125 OFFCURVE",
"-8 119 CURVE SMOOTH",
"-8 17 LINE SMOOTH",
"-8 12 OFFCURVE",
"-6 9 OFFCURVE",
"0 9 CURVE SMOOTH"
);
}
);
width = 292;
}
);
},
{
glyphname = uni066E.init;
lastChange = "2019-12-18 10:09:45 +0000";
layers = (
{
anchors = (
{
name = bottom;
position = "{127, -52}";
},
{
name = top;
position = "{139, 423}";
}
);
layerId = master01;
paths = (
{
closed = 1;
nodes = (
"65 0 OFFCURVE",
"128 18 OFFCURVE",
"189 55 CURVE",
"212 97 OFFCURVE",
"225 137 OFFCURVE",
"225 157 CURVE SMOOTH",
"225 181 OFFCURVE",
"220 215 OFFCURVE",
"210 259 CURVE SMOOTH",
"198 317 OFFCURVE",
"190 355 OFFCURVE",
"187 374 CURVE",
"147 352 OFFCURVE",
"122 319 OFFCURVE",
"122 290 CURVE SMOOTH",
"122 279 OFFCURVE",
"128 257 OFFCURVE",
"141 223 CURVE SMOOTH",
"156 180 OFFCURVE",
"168 144 OFFCURVE",
"177 113 CURVE",
"129 91 OFFCURVE",
"61 76 OFFCURVE",
"0 76 CURVE SMOOTH",
"-6 76 OFFCURVE",
"-8 73 OFFCURVE",
"-8 68 CURVE SMOOTH",
"-8 8 LINE SMOOTH",
"-8 3 OFFCURVE",
"-6 0 OFFCURVE",
"0 0 CURVE SMOOTH"
);
}
);
width = 275;
},
{
anchors = (
{
name = bottom;
position = "{127, -58}";
},
{
name = top;
position = "{139, 490}";
}
);
layerId = "26E2967D-790C-4793-AF2A-2D0AD74EDC69";
paths = (
{
closed = 1;
nodes = (
"71 9 OFFCURVE",
"137 27 OFFCURVE",
"198 64 CURVE",
"219 105 OFFCURVE",
"237 154 OFFCURVE",
"237 185 CURVE SMOOTH",
"237 198 OFFCURVE",
"233 225 OFFCURVE",
"226 266 CURVE SMOOTH",
"226 265 OFFCURVE",
"195 417 OFFCURVE",
"195 417 CURVE",
"146 392 OFFCURVE",
"104 348 OFFCURVE",
"104 315 CURVE SMOOTH",
"104 298 OFFCURVE",
"114 277 OFFCURVE",
"128 252 CURVE SMOOTH",
"140 230 OFFCURVE",
"165 187 OFFCURVE",
"178 156 CURVE",
"141 140 OFFCURVE",
"66 127 OFFCURVE",
"0 127 CURVE SMOOTH",
"-6 127 OFFCURVE",
"-8 125 OFFCURVE",
"-8 119 CURVE SMOOTH",
"-8 17 LINE SMOOTH",
"-8 12 OFFCURVE",
"-6 9 OFFCURVE",
"0 9 CURVE SMOOTH"
);
}
);
width = 275;
}
);
},
{
glyphname = uni062D;
lastChange = "2019-12-18 10:09:45 +0000";
layers = (
{
anchors = (
{
name = bottom;
position = "{346, -336}";
},
{
name = top;
position = "{342, 430}";
}
);
layerId = master01;
paths = (
{
closed = 1;
nodes = (
"438 -287 OFFCURVE",
"521 -264 OFFCURVE",
"619 -210 CURVE",
"607 -177 LINE",
"527 -195 OFFCURVE",
"445 -205 OFFCURVE",
"363 -205 CURVE SMOOTH",
"210 -205 OFFCURVE",
"136 -147 OFFCURVE",
"136 -42 CURVE SMOOTH",
"136 24 OFFCURVE",
"178 87 OFFCURVE",
"251 138 CURVE SMOOTH",
"324 189 OFFCURVE",
"429 226 OFFCURVE",
"512 232 CURVE",
"530 232 OFFCURVE",
"549 233 OFFCURVE",
"568 236 CURVE",
"597 313 LINE",
"531 311 LINE SMOOTH",
"469 311 OFFCURVE",
"413 329 OFFCURVE",
"357 346 CURVE SMOOTH",
"301 363 OFFCURVE",
"246 381 OFFCURVE",
"189 381 CURVE SMOOTH",
"117 381 OFFCURVE",
"68 347 OFFCURVE",
"68 297 CURVE SMOOTH",
"68 281 OFFCURVE",
"75 266 OFFCURVE",
"83 259 CURVE",
"131 289 OFFCURVE",
"152 297 OFFCURVE",
"192 297 CURVE SMOOTH",
"235 297 OFFCURVE",
"309 270 OFFCURVE",
"333 261 CURVE",
"291 245 OFFCURVE",
"252 221 OFFCURVE",
"216 190 CURVE SMOOTH",
"144 127 OFFCURVE",
"101 41 OFFCURVE",
"101 -42 CURVE SMOOTH",
"101 -201 OFFCURVE",
"195 -287 OFFCURVE",
"360 -287 CURVE SMOOTH"
);
}
);
width = 636;
},
{
anchors = (
{
name = bottom;
position = "{373, -337}";
},
{
name = top;
position = "{342, 483}";
}
);
layerId = "26E2967D-790C-4793-AF2A-2D0AD74EDC69";
paths = (
{
closed = 1;
nodes = (
"415 -288 OFFCURVE",
"520 -247 OFFCURVE",
"630 -184 CURVE",
"616 -142 LINE",
"523 -163 OFFCURVE",
"443 -173 OFFCURVE",
"375 -173 CURVE SMOOTH",
"247 -173 OFFCURVE",
"156 -119 OFFCURVE",
"156 -29 CURVE SMOOTH",
"156 27 OFFCURVE",
"190 81 OFFCURVE",
"249 128 CURVE SMOOTH",
"308 175 OFFCURVE",
"397 213 OFFCURVE",
"464 224 CURVE",
"497 221 OFFCURVE",
"559 222 OFFCURVE",
"585 226 CURVE",
"626 338 LINE",
"535 336 LINE SMOOTH",
"484 336 OFFCURVE",
"433 347 OFFCURVE",
"361 374 CURVE SMOOTH",
"287 400 OFFCURVE",
"245 410 OFFCURVE",
"201 410 CURVE SMOOTH",
"119 410 OFFCURVE",
"68 372 OFFCURVE",
"68 312 CURVE SMOOTH",
"68 290 OFFCURVE",
"79 264 OFFCURVE",
"91 252 CURVE",
"138 281 OFFCURVE",
"160 291 OFFCURVE",
"199 291 CURVE SMOOTH",
"236 291 OFFCURVE",
"272 277 OFFCURVE",
"318 260 CURVE",
"277 240 OFFCURVE",
"242 215 OFFCURVE",
"212 187 CURVE SMOOTH",
"143 124 OFFCURVE",
"105 42 OFFCURVE",
"105 -44 CURVE SMOOTH",
"105 -197 OFFCURVE",
"204 -288 OFFCURVE",
"373 -288 CURVE SMOOTH"
);
}
);
width = 655;
}
);
unicode = "062D,FEA1";
},
{
glyphname = uniFEA2;
lastChange = "2019-12-18 10:09:45 +0000";
layers = (
{
anchors = (
{
name = bottom;
position = "{321, -334}";
},
{
name = top;
position = "{342, 408}";
}
);
layerId = master01;
paths = (
{
closed = 1;
nodes = (
"399 -286 OFFCURVE",
"483 -258 OFFCURVE",
"572 -203 CURVE",
"558 -170 LINE",
"474 -194 OFFCURVE",
"403 -206 OFFCURVE",
"346 -206 CURVE SMOOTH",
"212 -206 OFFCURVE",
"136 -153 OFFCURVE",
"136 -60 CURVE SMOOTH",
"136 -29 OFFCURVE",
"146 0 OFFCURVE",
"163 27 CURVE SMOOTH",
"206 93 OFFCURVE",
"296 146 OFFCURVE",
"417 174 CURVE",
"429 130 OFFCURVE",
"445 95 OFFCURVE",
"465 70 CURVE SMOOTH",
"503 21 OFFCURVE",
"556 0 OFFCURVE",
"675 0 CURVE SMOOTH",
"680 0 OFFCURVE",
"683 3 OFFCURVE",
"683 8 CURVE SMOOTH",
"683 68 LINE SMOOTH",
"683 73 OFFCURVE",
"680 76 OFFCURVE",
"675 76 CURVE SMOOTH",
"620 76 OFFCURVE",
"581 78 OFFCURVE",
"552 84 CURVE SMOOTH",
"499 96 OFFCURVE",
"488 111 OFFCURVE",
"457 181 CURVE",
"475 184 OFFCURVE",
"491 185 OFFCURVE",
"509 185 CURVE SMOOTH",
"529 186 OFFCURVE",
"549 187 OFFCURVE",
"568 189 CURVE",
"597 266 LINE",
"531 264 LINE SMOOTH",
"477 264 OFFCURVE",
"414 280 OFFCURVE",
"345 312 CURVE SMOOTH",
"266 347 OFFCURVE",
"227 359 OFFCURVE",
"189 359 CURVE SMOOTH",
"117 359 OFFCURVE",
"68 326 OFFCURVE",
"68 276 CURVE SMOOTH",
"68 260 OFFCURVE",
"73 247 OFFCURVE",
"83 237 CURVE",
"131 268 OFFCURVE",
"151 276 OFFCURVE",
"192 276 CURVE SMOOTH",
"207 276 OFFCURVE",
"224 273 OFFCURVE",
"243 266 CURVE SMOOTH",
"266 258 OFFCURVE",
"297 245 OFFCURVE",
"353 220 CURVE",
"291 199 OFFCURVE",
"238 167 OFFCURVE",
"197 130 CURVE SMOOTH",
"135 74 OFFCURVE",
"100 3 OFFCURVE",
"100 -71 CURVE SMOOTH",
"100 -200 OFFCURVE",
"187 -286 OFFCURVE",
"321 -286 CURVE SMOOTH"
);
}
);
width = 666;
},
{
anchors = (
{
name = bottom;
position = "{340, -340}";
},
{
name = top;
position = "{342, 445}";
}
);
layerId = "26E2967D-790C-4793-AF2A-2D0AD74EDC69";
paths = (
{
closed = 1;
nodes = (
"405 -291 OFFCURVE",
"453 -266 OFFCURVE",
"581 -192 CURVE",
"567 -149 LINE",
"487 -167 OFFCURVE",
"424 -176 OFFCURVE",
"375 -176 CURVE SMOOTH",
"234 -176 OFFCURVE",
"156 -130 OFFCURVE",
"156 -39 CURVE SMOOTH",
"156 -5 OFFCURVE",
"169 27 OFFCURVE",
"194 58 CURVE SMOOTH",
"245 119 OFFCURVE",
"346 167 OFFCURVE",
"451 187 CURVE",
"468 134 OFFCURVE",
"486 97 OFFCURVE",
"506 73 CURVE SMOOTH",
"546 26 OFFCURVE",
"604 9 OFFCURVE",
"732 9 CURVE SMOOTH",
"738 9 OFFCURVE",
"741 12 OFFCURVE",
"741 17 CURVE SMOOTH",
"741 119 LINE SMOOTH",
"741 125 OFFCURVE",
"738 127 OFFCURVE",
"732 127 CURVE SMOOTH",
"660 127 OFFCURVE",
"613 128 OFFCURVE",
"592 131 CURVE SMOOTH",
"542 136 OFFCURVE",
"528 146 OFFCURVE",
"505 184 CURVE",
"515 184 OFFCURVE",
"525 184 OFFCURVE",
"535 184 CURVE SMOOTH",
"545 184 OFFCURVE",
"569 185 OFFCURVE",
"585 187 CURVE",
"626 299 LINE",
"535 298 LINE SMOOTH",
"484 298 OFFCURVE",
"433 308 OFFCURVE",
"361 335 CURVE SMOOTH",
"287 362 OFFCURVE",
"245 372 OFFCURVE",
"201 372 CURVE SMOOTH",
"118 372 OFFCURVE",
"68 333 OFFCURVE",
"68 273 CURVE SMOOTH",
"68 252 OFFCURVE",
"79 225 OFFCURVE",
"91 213 CURVE",
"146 247 OFFCURVE",
"169 252 OFFCURVE",
"205 252 CURVE SMOOTH",
"223 252 OFFCURVE",
"242 249 OFFCURVE",
"262 242 CURVE SMOOTH",
"281 235 OFFCURVE",
"299 229 OFFCURVE",
"318 222 CURVE",
"278 206 OFFCURVE",
"242 184 OFFCURVE",
"209 157 CURVE SMOOTH",
"144 102 OFFCURVE",
"105 32 OFFCURVE",
"105 -49 CURVE SMOOTH",
"105 -206 OFFCURVE",
"194 -291 OFFCURVE",
"370 -291 CURVE SMOOTH"
);
}
);
width = 724;
}
);
unicode = FEA2;
},
{
glyphname = uniFEA4;
lastChange = "2019-12-18 10:09:45 +0000";
layers = (
{
anchors = (
{
name = bottom;
position = "{318, -52}";
},
{
name = top;
position = "{323, 389}";
}
);
layerId = master01;
paths = (
{
closed = 1;
nodes = (
"165 0 OFFCURVE",
"220 13 OFFCURVE",
"319 64 CURVE SMOOTH",
"355 83 OFFCURVE",
"391 106 OFFCURVE",
"427 119 CURVE",
"443 85 OFFCURVE",
"461 61 OFFCURVE",
"480 45 CURVE SMOOTH",
"518 14 OFFCURVE",
"575 1 OFFCURVE",
"674 0 CURVE SMOOTH",
"680 0 OFFCURVE",
"683 3 OFFCURVE",
"683 8 CURVE SMOOTH",
"683 68 LINE SMOOTH",
"683 73 OFFCURVE",
"680 76 OFFCURVE",
"674 76 CURVE SMOOTH",
"600 76 OFFCURVE",
"552 79 OFFCURVE",
"528 85 CURVE SMOOTH",
"501 92 OFFCURVE",
"486 106 OFFCURVE",
"472 130 CURVE",
"495 127 OFFCURVE",
"547 123 OFFCURVE",
"563 122 CURVE",
"602 196 LINE",
"553 196 OFFCURVE",
"516 199 OFFCURVE",
"491 205 CURVE SMOOTH",
"442 216 OFFCURVE",
"398 238 OFFCURVE",
"329 285 CURVE SMOOTH",
"271 325 OFFCURVE",
"232 340 OFFCURVE",
"189 340 CURVE SMOOTH",
"117 340 OFFCURVE",
"69 306 OFFCURVE",
"69 256 CURVE SMOOTH",
"69 240 OFFCURVE",
"74 227 OFFCURVE",
"83 217 CURVE",
"132 248 OFFCURVE",
"152 256 OFFCURVE",
"193 256 CURVE SMOOTH",
"227 256 OFFCURVE",
"258 242 OFFCURVE",
"310 204 CURVE SMOOTH",
"335 185 OFFCURVE",
"361 170 OFFCURVE",
"387 158 CURVE",
"363 153 OFFCURVE",
"330 141 OFFCURVE",
"287 122 CURVE SMOOTH",
"213 89 OFFCURVE",
"125 76 OFFCURVE",
"0 76 CURVE SMOOTH",
"-6 76 OFFCURVE",
"-8 73 OFFCURVE",
"-8 68 CURVE SMOOTH",
"-8 8 LINE SMOOTH",
"-8 3 OFFCURVE",
"-6 0 OFFCURVE",
"0 0 CURVE SMOOTH"
);
}
);
width = 666;
},
{
anchors = (
{
name = bottom;
position = "{318, -58}";
},
{
name = top;
position = "{289, 445}";
}
);
layerId = "26E2967D-790C-4793-AF2A-2D0AD74EDC69";
paths = (
{
closed = 1;
nodes = (
"137 9 OFFCURVE",
"215 9 OFFCURVE",
"311 73 CURVE SMOOTH",
"371 113 OFFCURVE",
"391 129 OFFCURVE",
"429 137 CURVE",
"437 104 OFFCURVE",
"445 61 OFFCURVE",
"472 41 CURVE SMOOTH",
"502 20 OFFCURVE",
"594 9 OFFCURVE",
"666 9 CURVE SMOOTH",
"671 9 OFFCURVE",
"674 12 OFFCURVE",
"674 17 CURVE SMOOTH",
"674 119 LINE SMOOTH",
"674 125 OFFCURVE",
"671 127 OFFCURVE",
"666 127 CURVE SMOOTH",
"636 128 OFFCURVE",
"602 129 OFFCURVE",
"572 130 CURVE SMOOTH",
"552 132 OFFCURVE",
"536 136 OFFCURVE",
"523 148 CURVE",
"539 147 OFFCURVE",
"555 147 OFFCURVE",
"571 146 CURVE",
"615 230 LINE",
"566 230 OFFCURVE",
"524 235 OFFCURVE",
"490 243 CURVE SMOOTH",
"421 261 OFFCURVE",
"377 284 OFFCURVE",
"317 325 CURVE SMOOTH",
"268 358 OFFCURVE",
"232 372 OFFCURVE",
"189 372 CURVE SMOOTH",
"110 372 OFFCURVE",
"52 331 OFFCURVE",
"52 273 CURVE SMOOTH",
"52 252 OFFCURVE",
"63 225 OFFCURVE",
"75 213 CURVE",
"120 242 OFFCURVE",
"153 252 OFFCURVE",
"193 252 CURVE SMOOTH",
"222 252 OFFCURVE",
"247 241 OFFCURVE",
"290 213 CURVE SMOOTH",
"308 201 OFFCURVE",
"326 189 OFFCURVE",
"344 179 CURVE",
"321 174 OFFCURVE",
"280 163 OFFCURVE",
"223 146 CURVE SMOOTH",
"159 127 OFFCURVE",
"97 127 OFFCURVE",
"0 127 CURVE SMOOTH",
"-6 127 OFFCURVE",
"-8 125 OFFCURVE",
"-8 119 CURVE SMOOTH",
"-8 17 LINE SMOOTH",
"-8 12 OFFCURVE",
"-6 9 OFFCURVE",
"0 9 CURVE SMOOTH"
);
}
);
width = 657;
}
);
unicode = FEA4;
},
{
glyphname = uniFEA3;
lastChange = "2019-12-18 10:09:45 +0000";
layers = (
{
anchors = (
{
name = bottom;
position = "{319, -52}";
},
{
name = top;
position = "{322, 389}";
}
);
layerId = master01;
paths = (
{
closed = 1;
nodes = (
"165 0 OFFCURVE",
"220 13 OFFCURVE",
"319 64 CURVE SMOOTH",
"408 110 OFFCURVE",
"437 119 OFFCURVE",
"483 119 CURVE SMOOTH",
"514 119 OFFCURVE",
"541 116 OFFCURVE",
"563 114 CURVE",
"602 187 LINE",
"554 187 OFFCURVE",
"517 190 OFFCURVE",
"492 196 CURVE SMOOTH",
"442 207 OFFCURVE",
"399 230 OFFCURVE",
"329 281 CURVE SMOOTH",
"272 323 OFFCURVE",
"232 340 OFFCURVE",
"189 340 CURVE SMOOTH",
"117 340 OFFCURVE",
"69 306 OFFCURVE",
"69 256 CURVE SMOOTH",
"69 240 OFFCURVE",
"74 227 OFFCURVE",
"83 217 CURVE",
"132 248 OFFCURVE",
"152 256 OFFCURVE",
"193 256 CURVE SMOOTH",
"228 256 OFFCURVE",
"256 242 OFFCURVE",
"310 200 CURVE SMOOTH",
"335 180 OFFCURVE",
"361 163 OFFCURVE",
"387 150 CURVE",
"355 144 OFFCURVE",
"320 133 OFFCURVE",
"231 102 CURVE SMOOTH",
"175 84 OFFCURVE",
"98 76 OFFCURVE",
"0 76 CURVE SMOOTH",
"-6 76 OFFCURVE",
"-8 73 OFFCURVE",
"-8 68 CURVE SMOOTH",
"-8 8 LINE SMOOTH",
"-8 3 OFFCURVE",
"-6 0 OFFCURVE",
"0 0 CURVE SMOOTH"
);
}
);
width = 636;
},
{
anchors = (
{
name = bottom;
position = "{319, -58}";
},
{
name = top;
position = "{288, 445}";
}
);
layerId = "26E2967D-790C-4793-AF2A-2D0AD74EDC69";
paths = (
{
closed = 1;
nodes = (
"149 9 OFFCURVE",
"208 11 OFFCURVE",
"311 73 CURVE SMOOTH",
"360 101 OFFCURVE",
"416 125 OFFCURVE",
"463 129 CURVE SMOOTH",
"500 132 OFFCURVE",
"522 128 OFFCURVE",
"563 124 CURVE",
"615 230 LINE",
"566 230 OFFCURVE",
"524 235 OFFCURVE",
"490 243 CURVE SMOOTH",
"421 261 OFFCURVE",
"377 284 OFFCURVE",
"317 325 CURVE SMOOTH",
"268 358 OFFCURVE",
"232 372 OFFCURVE",
"189 372 CURVE SMOOTH",
"110 372 OFFCURVE",
"52 331 OFFCURVE",
"52 273 CURVE SMOOTH",
"52 252 OFFCURVE",
"63 225 OFFCURVE",
"75 213 CURVE",
"120 242 OFFCURVE",
"153 252 OFFCURVE",
"193 252 CURVE SMOOTH",
"222 252 OFFCURVE",
"247 242 OFFCURVE",
"290 213 CURVE SMOOTH",
"307 201 OFFCURVE",
"325 190 OFFCURVE",
"344 179 CURVE",
"321 174 OFFCURVE",
"280 163 OFFCURVE",
"223 146 CURVE SMOOTH",
"159 127 OFFCURVE",
"97 127 OFFCURVE",
"0 127 CURVE SMOOTH",
"-6 127 OFFCURVE",
"-8 125 OFFCURVE",
"-8 119 CURVE SMOOTH",
"-8 17 LINE SMOOTH",
"-8 12 OFFCURVE",
"-6 9 OFFCURVE",
"0 9 CURVE SMOOTH"
);
}
);
width = 649;
}
);
unicode = FEA3;
},
{
glyphname = uni062F;
lastChange = "2019-12-18 10:09:45 +0000";
layers = (
{
anchors = (
{
name = bottom;
position = "{214, -52}";
},
{
name = top;
position = "{219, 447}";
}
);
layerId = master01;
paths = (
{
closed = 1;
nodes = (
"228 0 OFFCURVE",
"288 13 OFFCURVE",
"336 39 CURVE",
"359 81 OFFCURVE",
"372 121 OFFCURVE",
"372 141 CURVE SMOOTH",
"372 171 OFFCURVE",
"357 208 OFFCURVE",
"337 251 CURVE SMOOTH",
"321 288 OFFCURVE",
"290 354 OFFCURVE",
"273 398 CURVE",
"238 387 OFFCURVE",
"221 365 OFFCURVE",
"221 332 CURVE SMOOTH",
"221 299 OFFCURVE",
"229 284 OFFCURVE",
"282 188 CURVE SMOOTH",
"299 157 OFFCURVE",
"313 126 OFFCURVE",
"324 97 CURVE",
"278 83 OFFCURVE",
"232 76 OFFCURVE",
"188 76 CURVE SMOOTH",
"125 76 OFFCURVE",
"85 89 OFFCURVE",
"52 116 CURVE",
"40 103 OFFCURVE",
"34 85 OFFCURVE",
"34 63 CURVE SMOOTH",
"34 23 OFFCURVE",
"75 0 OFFCURVE",
"156 0 CURVE SMOOTH"
);
}
);
width = 414;
},
{
anchors = (
{
name = bottom;
position = "{214, -58}";
},
{
name = top;
position = "{229, 523}";
}
);
layerId = "26E2967D-790C-4793-AF2A-2D0AD74EDC69";
paths = (
{
closed = 1;
nodes = (
"238 0 OFFCURVE",
"309 15 OFFCURVE",
"357 39 CURVE",
"373 70 OFFCURVE",
"392 131 OFFCURVE",
"392 149 CURVE SMOOTH",
"392 185 OFFCURVE",
"377 229 OFFCURVE",
"358 280 CURVE SMOOTH",
"341 324 OFFCURVE",
"312 398 OFFCURVE",
"297 450 CURVE",
"253 437 OFFCURVE",
"213 393 OFFCURVE",
"213 350 CURVE SMOOTH",
"213 324 OFFCURVE",
"239 283 OFFCURVE",
"277 229 CURVE SMOOTH",
"292 208 OFFCURVE",
"309 178 OFFCURVE",
"331 140 CURVE",
"287 126 OFFCURVE",
"243 119 OFFCURVE",
"200 119 CURVE SMOOTH",
"137 119 OFFCURVE",
"97 132 OFFCURVE",
"64 159 CURVE",
"47 141 OFFCURVE",
"34 106 OFFCURVE",
"34 78 CURVE SMOOTH",
"34 26 OFFCURVE",
"79 0 OFFCURVE",
"168 0 CURVE SMOOTH"
);
}
);
width = 435;
}
);
unicode = "062F,FEA9";
},
{
glyphname = uniFEAA;
lastChange = "2019-12-18 10:09:45 +0000";
layers = (
{
anchors = (
{
name = bottom;
position = "{239, -52}";
},
{
name = top;
position = "{226, 447}";
}
);
layerId = master01;
paths = (
{
closed = 1;
nodes = (
"229 0 OFFCURVE",
"297 17 OFFCURVE",
"358 52 CURVE",
"389 19 OFFCURVE",
"428 0 OFFCURVE",
"482 0 CURVE SMOOTH",
"488 0 OFFCURVE",
"491 3 OFFCURVE",
"491 8 CURVE SMOOTH",
"491 68 LINE SMOOTH",
"491 73 OFFCURVE",
"488 76 OFFCURVE",
"482 76 CURVE SMOOTH",
"445 76 OFFCURVE",
"419 89 OFFCURVE",
"392 128 CURVE SMOOTH",
"346 192 OFFCURVE",
"320 284 OFFCURVE",
"289 398 CURVE",
"253 387 OFFCURVE",
"236 365 OFFCURVE",
"236 332 CURVE SMOOTH",
"236 295 OFFCURVE",
"275 186 OFFCURVE",
"326 97 CURVE",
"276 83 OFFCURVE",
"230 76 OFFCURVE",
"188 76 CURVE SMOOTH",
"125 76 OFFCURVE",
"85 89 OFFCURVE",
"52 116 CURVE",
"40 103 OFFCURVE",
"34 85 OFFCURVE",
"34 63 CURVE SMOOTH",
"34 23 OFFCURVE",
"75 0 OFFCURVE",
"156 0 CURVE SMOOTH"
);
}
);
width = 474;
},
{
anchors = (
{
name = bottom;
position = "{239, -58}";
},
{
name = top;
position = "{226, 523}";
}
);
layerId = "26E2967D-790C-4793-AF2A-2D0AD74EDC69";
paths = (
{
closed = 1;
nodes = (
"234 0 OFFCURVE",
"303 18 OFFCURVE",
"377 55 CURVE",
"408 24 OFFCURVE",
"447 9 OFFCURVE",
"494 9 CURVE SMOOTH",
"499 9 OFFCURVE",
"502 12 OFFCURVE",
"502 17 CURVE SMOOTH",
"502 119 LINE SMOOTH",
"502 125 OFFCURVE",
"499 127 OFFCURVE",
"494 127 CURVE SMOOTH",
"440 127 OFFCURVE",
"414 144 OFFCURVE",
"389 195 CURVE SMOOTH",
"358 257 OFFCURVE",
"330 342 OFFCURVE",
"304 450 CURVE",
"258 436 OFFCURVE",
"234 399 OFFCURVE",
"234 351 CURVE SMOOTH",
"234 312 OFFCURVE",
"268 223 OFFCURVE",
"320 133 CURVE",
"279 124 OFFCURVE",
"239 119 OFFCURVE",
"200 119 CURVE SMOOTH",
"137 119 OFFCURVE",
"97 132 OFFCURVE",
"64 159 CURVE",
"47 141 OFFCURVE",
"34 106 OFFCURVE",
"34 78 CURVE SMOOTH",
"34 26 OFFCURVE",
"79 0 OFFCURVE",
"168 0 CURVE SMOOTH"
);
}
);
width = 485;
}
);
unicode = FEAA;
},
{
glyphname = uni0631;
lastChange = "2019-12-18 10:09:45 +0000";
layers = (
{
anchors = (
{
name = bottom;
position = "{100, -253}";
},
{
name = top;
position = "{182, 390}";
}
);
layerId = master01;
paths = (
{
closed = 1;
nodes = (
"138 -204 OFFCURVE",
"176 -192 OFFCURVE",
"211 -167 CURVE SMOOTH",
"279 -118 OFFCURVE",
"321 -23 OFFCURVE",
"321 81 CURVE SMOOTH",
"321 118 OFFCURVE",
"307 165 OFFCURVE",
"290 212 CURVE SMOOTH",
"276 251 OFFCURVE",
"253 309 OFFCURVE",
"245 341 CURVE",
"208 323 OFFCURVE",
"187 305 OFFCURVE",
"187 271 CURVE SMOOTH",
"187 238 OFFCURVE",
"207 193 OFFCURVE",
"253 112 CURVE SMOOTH",
"265 91 OFFCURVE",
"275 70 OFFCURVE",
"284 49 CURVE",
"246 -65 OFFCURVE",
"174 -126 OFFCURVE",
"74 -126 CURVE SMOOTH",
"47 -126 OFFCURVE",
"16 -122 OFFCURVE",
"-21 -115 CURVE",
"-34 -148 LINE",
"-2 -173 OFFCURVE",
"65 -204 OFFCURVE",
"97 -204 CURVE SMOOTH"
);
}
);
width = 372;
},
{
anchors = (
{
name = bottom;
position = "{104, -244}";
},
{
name = top;
position = "{196, 456}";
}
);
layerId = "26E2967D-790C-4793-AF2A-2D0AD74EDC69";
paths = (
{
closed = 1;
nodes = (
"146 -195 OFFCURVE",
"186 -183 OFFCURVE",
"222 -158 CURVE SMOOTH",
"293 -108 OFFCURVE",
"335 -15 OFFCURVE",
"335 89 CURVE SMOOTH",
"335 132 OFFCURVE",
"322 180 OFFCURVE",
"305 230 CURVE SMOOTH",
"291 271 OFFCURVE",
"267 341 OFFCURVE",
"256 383 CURVE",
"207 358 OFFCURVE",
"173 317 OFFCURVE",
"173 278 CURVE SMOOTH",
"173 235 OFFCURVE",
"209 179 OFFCURVE",
"248 119 CURVE SMOOTH",
"261 99 OFFCURVE",
"272 78 OFFCURVE",
"282 58 CURVE",
"251 -35 OFFCURVE",
"182 -86 OFFCURVE",
"83 -86 CURVE SMOOTH",
"52 -86 OFFCURVE",
"18 -81 OFFCURVE",
"-18 -72 CURVE",
"-34 -114 LINE",
"24 -163 OFFCURVE",
"79 -195 OFFCURVE",
"102 -195 CURVE SMOOTH"
);
}
);
width = 377;
}
);
unicode = "0631,FEAD";
},
{
glyphname = uniFEAE;
lastChange = "2019-12-18 10:09:45 +0000";
layers = (
{
anchors = (
{
name = bottom;
position = "{101, -253}";
},
{
name = top;
position = "{196, 390}";
}
);
layerId = master01;
paths = (
{
closed = 1;
nodes = (
"207 -204 OFFCURVE",
"295 -115 OFFCURVE",
"317 24 CURVE",
"340 8 OFFCURVE",
"368 0 OFFCURVE",
"399 0 CURVE SMOOTH",
"404 0 OFFCURVE",
"407 3 OFFCURVE",
"407 8 CURVE SMOOTH",
"407 68 LINE SMOOTH",
"407 73 OFFCURVE",
"404 76 OFFCURVE",
"399 76 CURVE SMOOTH",
"369 76 OFFCURVE",
"343 83 OFFCURVE",
"321 96 CURVE",
"319 113 OFFCURVE",
"315 134 OFFCURVE",
"307 159 CURVE SMOOTH",
"300 184 OFFCURVE",
"286 225 OFFCURVE",
"265 280 CURVE SMOOTH",
"256 302 OFFCURVE",
"250 323 OFFCURVE",
"245 341 CURVE",
"208 323 OFFCURVE",
"187 305 OFFCURVE",
"187 271 CURVE SMOOTH",
"187 238 OFFCURVE",
"207 193 OFFCURVE",
"253 112 CURVE SMOOTH",
"265 91 OFFCURVE",
"275 70 OFFCURVE",
"284 49 CURVE",
"246 -65 OFFCURVE",
"174 -126 OFFCURVE",
"74 -126 CURVE SMOOTH",
"47 -126 OFFCURVE",
"16 -122 OFFCURVE",
"-21 -115 CURVE",
"-34 -148 LINE",
"-2 -173 OFFCURVE",
"65 -204 OFFCURVE",
"97 -204 CURVE SMOOTH"
);
}
);
width = 390;
},
{
anchors = (
{
name = bottom;
position = "{101, -244}";
},
{
name = top;
position = "{196, 456}";
}
);
layerId = "26E2967D-790C-4793-AF2A-2D0AD74EDC69";
paths = (
{
closed = 1;
nodes = (
"217 -195 OFFCURVE",
"308 -105 OFFCURVE",
"330 28 CURVE",
"355 15 OFFCURVE",
"380 9 OFFCURVE",
"404 9 CURVE SMOOTH",
"409 9 OFFCURVE",
"412 12 OFFCURVE",
"412 17 CURVE SMOOTH",
"412 119 LINE SMOOTH",
"412 125 OFFCURVE",
"409 127 OFFCURVE",
"404 127 CURVE SMOOTH",
"377 127 OFFCURVE",
"352 133 OFFCURVE",
"329 146 CURVE",
"325 169 OFFCURVE",
"308 222 OFFCURVE",
"279 306 CURVE SMOOTH",
"270 332 OFFCURVE",
"263 357 OFFCURVE",
"256 383 CURVE",
"207 358 OFFCURVE",
"173 317 OFFCURVE",
"173 278 CURVE SMOOTH",
"173 262 OFFCURVE",
"178 243 OFFCURVE",
"188 221 CURVE SMOOTH",
"198 199 OFFCURVE",
"218 165 OFFCURVE",
"248 119 CURVE SMOOTH",
"261 99 OFFCURVE",
"272 78 OFFCURVE",
"282 58 CURVE",
"251 -35 OFFCURVE",
"182 -86 OFFCURVE",
"83 -86 CURVE SMOOTH",
"52 -86 OFFCURVE",
"18 -81 OFFCURVE",
"-18 -72 CURVE",
"-34 -114 LINE",
"24 -163 OFFCURVE",
"79 -195 OFFCURVE",
"102 -195 CURVE SMOOTH"
);
}
);
width = 395;
}
);
unicode = FEAE;
},
{
glyphname = uni075B.fina;
lastChange = "2019-12-18 10:09:45 +0000";
layers = (
{
anchors = (
{
name = bottom;
position = "{104, -253}";
},
{
name = top;
position = "{189, 390}";
}
);
layerId = master01;
paths = (
{
closed = 1;
nodes = (
"207 -204 OFFCURVE",
"295 -115 OFFCURVE",
"317 24 CURVE",
"340 8 OFFCURVE",
"368 0 OFFCURVE",
"399 0 CURVE SMOOTH",
"404 0 OFFCURVE",
"407 3 OFFCURVE",
"407 8 CURVE SMOOTH",
"407 68 LINE SMOOTH",
"407 73 OFFCURVE",
"404 76 OFFCURVE",
"399 76 CURVE SMOOTH",
"369 76 OFFCURVE",
"343 83 OFFCURVE",
"321 96 CURVE",
"316 142 OFFCURVE",
"292 210 OFFCURVE",
"265 280 CURVE SMOOTH",
"256 302 OFFCURVE",
"250 323 OFFCURVE",
"245 341 CURVE",
"208 323 OFFCURVE",
"187 305 OFFCURVE",
"187 271 CURVE SMOOTH",
"187 238 OFFCURVE",
"207 193 OFFCURVE",
"253 112 CURVE SMOOTH",
"265 91 OFFCURVE",
"275 70 OFFCURVE",
"284 49 CURVE",
"278 31 OFFCURVE",
"271 15 OFFCURVE",
"263 -1 CURVE",
"88 -1 LINE",
"88 -49 LINE",
"233 -49 LINE",
"196 -98 OFFCURVE",
"140 -126 OFFCURVE",
"74 -126 CURVE SMOOTH",
"47 -126 OFFCURVE",
"16 -122 OFFCURVE",
"-21 -115 CURVE",
"-34 -148 LINE",
"-2 -173 OFFCURVE",
"65 -204 OFFCURVE",
"97 -204 CURVE SMOOTH"
);
}
);
width = 390;
},
{
anchors = (
{
name = bottom;
position = "{104, -244}";
},
{
name = top;
position = "{194, 432}";
}
);
layerId = "26E2967D-790C-4793-AF2A-2D0AD74EDC69";
paths = (
{
closed = 1;
nodes = (
"217 -195 OFFCURVE",
"308 -105 OFFCURVE",
"330 28 CURVE",
"355 15 OFFCURVE",
"380 9 OFFCURVE",
"404 9 CURVE SMOOTH",
"409 9 OFFCURVE",
"412 12 OFFCURVE",
"412 17 CURVE SMOOTH",
"412 119 LINE SMOOTH",
"412 125 OFFCURVE",
"409 127 OFFCURVE",
"404 127 CURVE SMOOTH",
"377 127 OFFCURVE",
"352 133 OFFCURVE",
"329 146 CURVE",
"325 169 OFFCURVE",
"308 222 OFFCURVE",
"279 306 CURVE SMOOTH",
"270 332 OFFCURVE",
"263 357 OFFCURVE",
"256 383 CURVE",
"207 358 OFFCURVE",
"173 317 OFFCURVE",
"173 278 CURVE SMOOTH",
"173 236 OFFCURVE",
"208 180 OFFCURVE",
"248 119 CURVE SMOOTH",
"261 99 OFFCURVE",
"272 78 OFFCURVE",
"282 58 CURVE",
"277 43 OFFCURVE",
"271 29 OFFCURVE",
"265 17 CURVE",
"71 17 LINE",
"71 -31 LINE",
"229 -31 LINE",
"190 -68 OFFCURVE",
"142 -86 OFFCURVE",
"83 -86 CURVE SMOOTH",
"52 -86 OFFCURVE",
"18 -81 OFFCURVE",
"-18 -72 CURVE",
"-34 -114 LINE",
"24 -163 OFFCURVE",
"79 -195 OFFCURVE",
"102 -195 CURVE SMOOTH"
);
}
);
width = 395;
}
);
},
{
glyphname = uni08AA;
lastChange = "2019-12-18 10:09:45 +0000";
layers = (
{
anchors = (
{
name = bottom;
position = "{187, -253}";
},
{
name = top;
position = "{262, 390}";
}
);
layerId = master01;
paths = (
{
closed = 1;
nodes = (
"427 -215 LINE",
"397 -175 OFFCURVE",
"366 -131 OFFCURVE",
"330 -91 CURVE",
"358 -42 OFFCURVE",
"373 17 OFFCURVE",
"373 81 CURVE SMOOTH",
"373 118 OFFCURVE",
"359 165 OFFCURVE",
"342 212 CURVE SMOOTH",
"328 250 OFFCURVE",
"305 309 OFFCURVE",
"296 341 CURVE",
"259 323 OFFCURVE",
"238 305 OFFCURVE",
"238 271 CURVE SMOOTH",
"238 241 OFFCURVE",
"253 210 OFFCURVE",
"266 184 CURVE SMOOTH",
"279 159 OFFCURVE",
"298 125 OFFCURVE",
"305 112 CURVE SMOOTH",
"315 94 OFFCURVE",
"324 78 OFFCURVE",
"335 49 CURVE",
"323 12 OFFCURVE",
"307 -21 OFFCURVE",
"286 -48 CURVE",
"239 -8 OFFCURVE",
"187 20 OFFCURVE",
"127 20 CURVE SMOOTH",
"68 20 OFFCURVE",
"5 -20 OFFCURVE",
"5 -84 CURVE SMOOTH",
"5 -152 OFFCURVE",
"79 -204 OFFCURVE",
"148 -204 CURVE SMOOTH",
"208 -204 OFFCURVE",
"257 -179 OFFCURVE",
"296 -137 CURVE",
"314 -154 OFFCURVE",
"333 -171 OFFCURVE",
"350 -189 CURVE SMOOTH",
"368 -207 OFFCURVE",
"385 -224 OFFCURVE",
"402 -240 CURVE"
);
},
{
closed = 1;
nodes = (
"98 -126 OFFCURVE",
"62 -110 OFFCURVE",
"41 -87 CURVE",
"67 -67 OFFCURVE",
"96 -55 OFFCURVE",
"131 -55 CURVE SMOOTH",
"168 -55 OFFCURVE",
"204 -70 OFFCURVE",
"239 -93 CURVE",
"208 -114 OFFCURVE",
"170 -126 OFFCURVE",
"125 -126 CURVE SMOOTH"
);
}
);
width = 424;
},
{
anchors = (
{
name = bottom;
position = "{208, -264}";
},
{
name = top;
position = "{274, 456}";
}
);
layerId = "26E2967D-790C-4793-AF2A-2D0AD74EDC69";
paths = (
{
closed = 1;
nodes = (
"468 -200 LINE",
"442 -161 OFFCURVE",
"413 -117 OFFCURVE",
"379 -76 CURVE",
"403 -26 OFFCURVE",
"416 31 OFFCURVE",
"416 89 CURVE SMOOTH",
"416 132 OFFCURVE",
"403 180 OFFCURVE",
"386 230 CURVE SMOOTH",
"372 271 OFFCURVE",
"348 341 OFFCURVE",
"337 383 CURVE",
"299 364 OFFCURVE",
"254 323 OFFCURVE",
"254 278 CURVE SMOOTH",
"254 247 OFFCURVE",
"270 216 OFFCURVE",
"284 190 CURVE SMOOTH",
"314 138 OFFCURVE",
"343 99 OFFCURVE",
"363 58 CURVE",
"354 28 OFFCURVE",
"341 3 OFFCURVE",
"326 -20 CURVE",
"279 23 OFFCURVE",
"225 54 OFFCURVE",
"162 54 CURVE SMOOTH",
"85 54 OFFCURVE",
"20 1 OFFCURVE",
"20 -71 CURVE SMOOTH",
"20 -112 OFFCURVE",
"40 -148 OFFCURVE",
"70 -174 CURVE SMOOTH",
"100 -199 OFFCURVE",
"141 -215 OFFCURVE",
"183 -215 CURVE SMOOTH",
"247 -215 OFFCURVE",
"300 -184 OFFCURVE",
"339 -137 CURVE",
"357 -152 OFFCURVE",
"373 -168 OFFCURVE",
"389 -185 CURVE SMOOTH",
"406 -201 OFFCURVE",
"421 -216 OFFCURVE",
"437 -231 CURVE"
);
},
{
closed = 1;
nodes = (
"137 -105 OFFCURVE",
"106 -97 OFFCURVE",
"76 -78 CURVE",
"102 -58 OFFCURVE",
"128 -46 OFFCURVE",
"166 -46 CURVE SMOOTH",
"199 -46 OFFCURVE",
"232 -59 OFFCURVE",
"264 -78 CURVE",
"234 -96 OFFCURVE",
"200 -105 OFFCURVE",
"165 -105 CURVE SMOOTH"
);
}
);
width = 458;
}
);
unicode = 08AA;
},
{
glyphname = uni08AA.fina;
lastChange = "2019-12-18 10:09:45 +0000";
layers = (
{
anchors = (
{
name = bottom;
position = "{187, -253}";
},
{
name = top;
position = "{262, 390}";
}
);
layerId = master01;
paths = (
{
closed = 1;
nodes = (
"427 -215 LINE",
"394 -169 OFFCURVE",
"351 -113 OFFCURVE",
"330 -92 CURVE",
"349 -57 OFFCURVE",
"362 -18 OFFCURVE",
"369 24 CURVE",
"393 8 OFFCURVE",
"420 0 OFFCURVE",
"451 0 CURVE SMOOTH",
"456 0 OFFCURVE",
"459 3 OFFCURVE",
"459 8 CURVE SMOOTH",
"459 68 LINE SMOOTH",
"459 73 OFFCURVE",
"456 76 OFFCURVE",
"451 76 CURVE SMOOTH",
"423 76 OFFCURVE",
"397 83 OFFCURVE",
"373 96 CURVE",
"370 127 OFFCURVE",
"356 173 OFFCURVE",
"342 212 CURVE SMOOTH",
"328 250 OFFCURVE",
"305 309 OFFCURVE",
"296 341 CURVE",
"259 323 OFFCURVE",
"238 305 OFFCURVE",
"238 271 CURVE SMOOTH",
"238 238 OFFCURVE",
"261 189 OFFCURVE",
"289 141 CURVE SMOOTH",
"310 103 OFFCURVE",
"326 73 OFFCURVE",
"335 49 CURVE",
"323 10 OFFCURVE",
"306 -22 OFFCURVE",
"286 -48 CURVE",
"272 -37 OFFCURVE",
"258 -26 OFFCURVE",
"244 -17 CURVE SMOOTH",
"208 6 OFFCURVE",
"170 20 OFFCURVE",
"127 20 CURVE SMOOTH",
"106 20 OFFCURVE",
"87 15 OFFCURVE",
"67 6 CURVE SMOOTH",
"29 -12 OFFCURVE",
"5 -45 OFFCURVE",
"5 -84 CURVE SMOOTH",
"5 -105 OFFCURVE",
"12 -125 OFFCURVE",
"25 -143 CURVE SMOOTH",
"52 -180 OFFCURVE",
"101 -204 OFFCURVE",
"148 -204 CURVE SMOOTH",
"190 -204 OFFCURVE",
"228 -192 OFFCURVE",
"262 -167 CURVE SMOOTH",
"275 -159 OFFCURVE",
"286 -149 OFFCURVE",
"296 -137 CURVE",
"318 -156 OFFCURVE",
"343 -181 OFFCURVE",
"402 -240 CURVE"
);
},
{
closed = 1;
nodes = (
"96 -126 OFFCURVE",
"61 -109 OFFCURVE",
"41 -87 CURVE",
"69 -65 OFFCURVE",
"99 -55 OFFCURVE",
"131 -55 CURVE SMOOTH",
"164 -55 OFFCURVE",
"197 -66 OFFCURVE",
"239 -93 CURVE",
"207 -115 OFFCURVE",
"169 -126 OFFCURVE",
"125 -126 CURVE SMOOTH"
);
}
);
width = 442;
},
{
anchors = (
{
name = bottom;
position = "{208, -264}";
},
{
name = top;
position = "{274, 456}";
}
);
layerId = "26E2967D-790C-4793-AF2A-2D0AD74EDC69";
paths = (
{
closed = 1;
nodes = (
"468 -200 LINE",
"434 -149 OFFCURVE",
"404 -108 OFFCURVE",
"378 -76 CURVE",
"392 -51 OFFCURVE",
"406 -6 OFFCURVE",
"411 27 CURVE",
"434 15 OFFCURVE",
"459 9 OFFCURVE",
"485 9 CURVE SMOOTH",
"490 9 OFFCURVE",
"493 12 OFFCURVE",
"493 17 CURVE SMOOTH",
"493 119 LINE SMOOTH",
"493 125 OFFCURVE",
"490 127 OFFCURVE",
"485 127 CURVE SMOOTH",
"458 127 OFFCURVE",
"433 133 OFFCURVE",
"410 146 CURVE",
"402 177 OFFCURVE",
"396 201 OFFCURVE",
"386 230 CURVE SMOOTH",
"372 271 OFFCURVE",
"348 341 OFFCURVE",
"337 383 CURVE",
"291 360 OFFCURVE",
"254 318 OFFCURVE",
"254 278 CURVE SMOOTH",
"254 236 OFFCURVE",
"289 178 OFFCURVE",
"329 118 CURVE SMOOTH",
"343 95 OFFCURVE",
"355 75 OFFCURVE",
"363 58 CURVE",
"354 28 OFFCURVE",
"341 2 OFFCURVE",
"326 -20 CURVE",
"303 1 OFFCURVE",
"280 18 OFFCURVE",
"257 29 CURVE SMOOTH",
"225 46 OFFCURVE",
"194 54 OFFCURVE",
"162 54 CURVE SMOOTH",
"133 54 OFFCURVE",
"106 47 OFFCURVE",
"84 34 CURVE SMOOTH",
"45 12 OFFCURVE",
"20 -26 OFFCURVE",
"20 -71 CURVE SMOOTH",
"20 -97 OFFCURVE",
"27 -121 OFFCURVE",
"42 -143 CURVE SMOOTH",
"73 -187 OFFCURVE",
"128 -215 OFFCURVE",
"183 -215 CURVE SMOOTH",
"226 -215 OFFCURVE",
"265 -201 OFFCURVE",
"301 -173 CURVE SMOOTH",
"315 -162 OFFCURVE",
"328 -150 OFFCURVE",
"339 -136 CURVE",
"359 -154 OFFCURVE",
"381 -176 OFFCURVE",
"437 -231 CURVE"
);
},
{
closed = 1;
nodes = (
"134 -105 OFFCURVE",
"105 -96 OFFCURVE",
"76 -78 CURVE",
"103 -57 OFFCURVE",
"133 -46 OFFCURVE",
"166 -46 CURVE SMOOTH",
"197 -46 OFFCURVE",
"229 -57 OFFCURVE",
"264 -78 CURVE",
"233 -96 OFFCURVE",
"200 -105 OFFCURVE",
"165 -105 CURVE SMOOTH"
);
}
);
width = 477;
}
);
},
{
glyphname = uni0633;
lastChange = "2019-12-18 10:09:45 +0000";
layers = (
{
anchors = (
{
name = bottom;
position = "{718, -76}";
},
{
name = top;
position = "{690, 330}";
}
);
layerId = master01;
paths = (
{
closed = 1;
nodes = (
"297 -262 OFFCURVE",
"344 -250 OFFCURVE",
"389 -226 CURVE SMOOTH",
"480 -179 OFFCURVE",
"535 -99 OFFCURVE",
"535 -17 CURVE SMOOTH",
"535 2 LINE",
"547 1 OFFCURVE",
"559 0 OFFCURVE",
"571 0 CURVE SMOOTH",
"605 0 OFFCURVE",
"634 2 OFFCURVE",
"658 7 CURVE SMOOTH",
"683 12 OFFCURVE",
"698 18 OFFCURVE",
"703 27 CURVE SMOOTH",
"712 43 LINE",
"784 10 OFFCURVE",
"838 0 OFFCURVE",
"924 0 CURVE",
"943 37 OFFCURVE",
"962 102 OFFCURVE",
"962 123 CURVE SMOOTH",
"962 154 OFFCURVE",
"955 189 OFFCURVE",
"947 225 CURVE SMOOTH",
"940 256 OFFCURVE",
"928 308 OFFCURVE",
"923 340 CURVE",
"882 317 OFFCURVE",
"857 285 OFFCURVE",
"857 256 CURVE SMOOTH",
"857 246 OFFCURVE",
"864 223 OFFCURVE",
"877 188 CURVE SMOOTH",
"895 143 OFFCURVE",
"907 106 OFFCURVE",
"915 79 CURVE",
"853 79 OFFCURVE",
"805 88 OFFCURVE",
"739 118 CURVE",
"758 183 OFFCURVE",
"773 225 OFFCURVE",
"782 245 CURVE",
"775 250 OFFCURVE",
"767 252 OFFCURVE",
"758 252 CURVE SMOOTH",
"736 252 OFFCURVE",
"729 245 OFFCURVE",
"718 219 CURVE SMOOTH",
"711 205 OFFCURVE",
"699 170 OFFCURVE",
"683 115 CURVE SMOOTH",
"679 102 OFFCURVE",
"675 93 OFFCURVE",
"671 86 CURVE",
"649 80 OFFCURVE",
"620 76 OFFCURVE",
"583 76 CURVE SMOOTH",
"563 76 OFFCURVE",
"543 79 OFFCURVE",
"523 85 CURVE",
"506 170 OFFCURVE",
"501 198 OFFCURVE",
"498 226 CURVE",
"450 197 OFFCURVE",
"433 171 OFFCURVE",
"433 137 CURVE SMOOTH",
"433 105 OFFCURVE",
"454 41 OFFCURVE",
"498 -54 CURVE",
"465 -125 OFFCURVE",
"350 -179 OFFCURVE",
"251 -179 CURVE SMOOTH",
"164 -179 OFFCURVE",
"113 -122 OFFCURVE",
"113 -24 CURVE SMOOTH",
"113 -6 OFFCURVE",
"117 18 OFFCURVE",
"124 47 CURVE",
"87 56 LINE",
"71 -10 OFFCURVE",
"68 -35 OFFCURVE",
"68 -74 CURVE SMOOTH",
"68 -194 OFFCURVE",
"135 -262 OFFCURVE",
"249 -262 CURVE SMOOTH"
);
}
);
width = 1013;
},
{
anchors = (
{
name = bottom;
position = "{748, -76}";
},
{
name = top;
position = "{690, 396}";
}
);
layerId = "26E2967D-790C-4793-AF2A-2D0AD74EDC69";
paths = (
{
closed = 1;
nodes = (
"306 -252 OFFCURVE",
"357 -242 OFFCURVE",
"403 -220 CURVE SMOOTH",
"495 -177 OFFCURVE",
"552 -96 OFFCURVE",
"552 -7 CURVE SMOOTH",
"552 2 LINE",
"563 1 OFFCURVE",
"574 0 OFFCURVE",
"585 0 CURVE SMOOTH",
"620 0 OFFCURVE",
"649 3 OFFCURVE",
"674 8 CURVE SMOOTH",
"698 13 OFFCURVE",
"713 20 OFFCURVE",
"718 29 CURVE SMOOTH",
"729 51 LINE",
"795 21 OFFCURVE",
"886 0 OFFCURVE",
"968 0 CURVE",
"988 38 OFFCURVE",
"1010 111 OFFCURVE",
"1010 142 CURVE SMOOTH",
"1010 160 OFFCURVE",
"1005 195 OFFCURVE",
"995 248 CURVE SMOOTH",
"986 292 OFFCURVE",
"977 338 OFFCURVE",
"968 383 CURVE",
"918 358 OFFCURVE",
"877 313 OFFCURVE",
"877 281 CURVE SMOOTH",
"877 254 OFFCURVE",
"892 227 OFFCURVE",
"908 197 CURVE SMOOTH",
"923 168 OFFCURVE",
"938 139 OFFCURVE",
"952 110 CURVE",
"873 118 OFFCURVE",
"816 129 OFFCURVE",
"765 155 CURVE",
"784 214 OFFCURVE",
"799 262 OFFCURVE",
"808 283 CURVE",
"796 290 OFFCURVE",
"783 293 OFFCURVE",
"770 293 CURVE SMOOTH",
"747 293 OFFCURVE",
"731 284 OFFCURVE",
"724 265 CURVE SMOOTH",
"714 241 OFFCURVE",
"705 217 OFFCURVE",
"695 192 CURVE SMOOTH",
"683 161 OFFCURVE",
"674 140 OFFCURVE",
"668 130 CURVE",
"632 119 OFFCURVE",
"623 119 OFFCURVE",
"597 119 CURVE SMOOTH",
"580 119 OFFCURVE",
"560 121 OFFCURVE",
"537 124 CURVE",
"524 196 OFFCURVE",
"516 244 OFFCURVE",
"513 270 CURVE",
"444 236 OFFCURVE",
"412 194 OFFCURVE",
"412 138 CURVE SMOOTH",
"412 111 OFFCURVE",
"451 43 OFFCURVE",
"497 -45 CURVE",
"426 -109 OFFCURVE",
"359 -134 OFFCURVE",
"254 -134 CURVE SMOOTH",
"165 -134 OFFCURVE",
"123 -88 OFFCURVE",
"123 7 CURVE SMOOTH",
"123 30 OFFCURVE",
"128 57 OFFCURVE",
"137 87 CURVE",
"93 98 LINE",
"76 35 OFFCURVE",
"68 -13 OFFCURVE",
"68 -47 CURVE SMOOTH",
"68 -180 OFFCURVE",
"132 -252 OFFCURVE",
"251 -252 CURVE SMOOTH"
);
}
);
width = 1061;
}
);
unicode = "0633,FEB1";
},
{
glyphname = uniFEB2;
lastChange = "2019-12-18 10:09:45 +0000";
layers = (
{
anchors = (
{
name = bottom;
position = "{733, -76}";
},
{
name = top;
position = "{725, 330}";
}
);
layerId = master01;
paths = (
{
closed = 1;
nodes = (
"297 -262 OFFCURVE",
"344 -250 OFFCURVE",
"389 -226 CURVE SMOOTH",
"480 -179 OFFCURVE",
"535 -99 OFFCURVE",
"535 -17 CURVE SMOOTH",
"535 4 LINE",
"558 1 OFFCURVE",
"573 0 OFFCURVE",
"589 0 CURVE SMOOTH",
"624 0 OFFCURVE",
"686 8 OFFCURVE",
"700 25 CURVE",
"724 8 OFFCURVE",
"751 0 OFFCURVE",
"780 0 CURVE SMOOTH",
"817 0 OFFCURVE",
"858 11 OFFCURVE",
"869 27 CURVE",
"883 54 LINE",
"917 22 OFFCURVE",
"973 0 OFFCURVE",
"1025 0 CURVE SMOOTH",
"1030 0 OFFCURVE",
"1033 3 OFFCURVE",
"1033 8 CURVE SMOOTH",
"1033 68 LINE SMOOTH",
"1033 73 OFFCURVE",
"1030 76 OFFCURVE",
"1025 76 CURVE SMOOTH",
"986 76 OFFCURVE",
"951 85 OFFCURVE",
"921 102 CURVE SMOOTH",
"905 111 LINE",
"921 160 OFFCURVE",
"936 200 OFFCURVE",
"956 253 CURVE",
"949 258 OFFCURVE",
"941 260 OFFCURVE",
"932 260 CURVE SMOOTH",
"925 260 OFFCURVE",
"918 259 OFFCURVE",
"912 256 CURVE SMOOTH",
"898 249 OFFCURVE",
"883 210 OFFCURVE",
"866 161 CURVE SMOOTH",
"852 121 OFFCURVE",
"842 97 OFFCURVE",
"837 89 CURVE",
"816 82 OFFCURVE",
"798 79 OFFCURVE",
"782 79 CURVE SMOOTH",
"763 79 OFFCURVE",
"745 83 OFFCURVE",
"729 91 CURVE",
"740 128 LINE SMOOTH",
"758 187 OFFCURVE",
"771 225 OFFCURVE",
"780 245 CURVE",
"774 250 OFFCURVE",
"766 252 OFFCURVE",
"757 252 CURVE SMOOTH",
"742 252 OFFCURVE",
"732 247 OFFCURVE",
"725 237 CURVE SMOOTH",
"713 216 OFFCURVE",
"702 187 OFFCURVE",
"693 155 CURVE SMOOTH",
"682 117 OFFCURVE",
"674 94 OFFCURVE",
"669 86 CURVE",
"648 80 OFFCURVE",
"622 76 OFFCURVE",
"591 76 CURVE SMOOTH",
"564 76 OFFCURVE",
"542 78 OFFCURVE",
"524 82 CURVE",
"510 152 OFFCURVE",
"501 200 OFFCURVE",
"498 226 CURVE",
"450 197 OFFCURVE",
"433 171 OFFCURVE",
"433 137 CURVE SMOOTH",
"433 105 OFFCURVE",
"454 41 OFFCURVE",
"498 -54 CURVE",
"465 -125 OFFCURVE",
"350 -179 OFFCURVE",
"251 -179 CURVE SMOOTH",
"164 -179 OFFCURVE",
"113 -122 OFFCURVE",
"113 -24 CURVE SMOOTH",
"113 -6 OFFCURVE",
"117 18 OFFCURVE",
"124 47 CURVE",
"87 56 LINE",
"71 -10 OFFCURVE",
"68 -35 OFFCURVE",
"68 -74 CURVE SMOOTH",
"68 -194 OFFCURVE",
"135 -262 OFFCURVE",
"249 -262 CURVE SMOOTH"
);
}
);
width = 1017;
},
{
anchors = (
{
name = bottom;
position = "{767, -76}";
},
{
name = top;
position = "{725, 374}";
}
);
layerId = "26E2967D-790C-4793-AF2A-2D0AD74EDC69";
paths = (
{
closed = 1;
nodes = (
"306 -252 OFFCURVE",
"357 -242 OFFCURVE",
"403 -220 CURVE SMOOTH",
"495 -177 OFFCURVE",
"552 -96 OFFCURVE",
"552 -7 CURVE SMOOTH",
"552 1 LINE",
"559 0 OFFCURVE",
"565 0 OFFCURVE",
"583 0 CURVE SMOOTH",
"621 0 OFFCURVE",
"674 10 OFFCURVE",
"692 22 CURVE",
"727 7 OFFCURVE",
"754 0 OFFCURVE",
"773 0 CURVE SMOOTH",
"819 0 OFFCURVE",
"875 7 OFFCURVE",
"885 33 CURVE",
"900 69 LINE",
"931 36 OFFCURVE",
"994 9 OFFCURVE",
"1047 9 CURVE SMOOTH",
"1053 9 OFFCURVE",
"1056 12 OFFCURVE",
"1056 17 CURVE SMOOTH",
"1056 119 LINE SMOOTH",
"1056 125 OFFCURVE",
"1053 127 OFFCURVE",
"1047 127 CURVE SMOOTH",
"1005 127 OFFCURVE",
"970 134 OFFCURVE",
"943 146 CURVE SMOOTH",
"929 154 LINE",
"951 227 OFFCURVE",
"966 274 OFFCURVE",
"974 293 CURVE",
"964 300 OFFCURVE",
"953 304 OFFCURVE",
"940 304 CURVE SMOOTH",
"922 304 OFFCURVE",
"908 297 OFFCURVE",
"898 287 CURVE SMOOTH",
"889 276 OFFCURVE",
"882 251 OFFCURVE",
"861 195 CURVE SMOOTH",
"848 159 OFFCURVE",
"839 136 OFFCURVE",
"832 126 CURVE",
"810 119 OFFCURVE",
"786 115 OFFCURVE",
"761 115 CURVE SMOOTH",
"751 116 OFFCURVE",
"743 116 OFFCURVE",
"733 116 CURVE",
"743 148 LINE SMOOTH",
"766 222 OFFCURVE",
"781 268 OFFCURVE",
"788 284 CURVE",
"777 292 OFFCURVE",
"766 295 OFFCURVE",
"753 295 CURVE SMOOTH",
"729 295 OFFCURVE",
"711 283 OFFCURVE",
"704 265 CURVE SMOOTH",
"695 241 OFFCURVE",
"685 217 OFFCURVE",
"676 192 CURVE SMOOTH",
"664 162 OFFCURVE",
"655 141 OFFCURVE",
"649 130 CURVE",
"622 123 OFFCURVE",
"603 119 OFFCURVE",
"577 119 CURVE SMOOTH",
"564 119 OFFCURVE",
"551 120 OFFCURVE",
"538 121 CURVE",
"520 224 OFFCURVE",
"517 239 OFFCURVE",
"513 270 CURVE",
"444 236 OFFCURVE",
"412 194 OFFCURVE",
"412 138 CURVE SMOOTH",
"412 118 OFFCURVE",
"445 43 OFFCURVE",
"497 -45 CURVE",
"426 -109 OFFCURVE",
"359 -134 OFFCURVE",
"254 -134 CURVE SMOOTH",
"165 -134 OFFCURVE",
"123 -88 OFFCURVE",
"123 7 CURVE SMOOTH",
"123 30 OFFCURVE",
"128 57 OFFCURVE",
"137 87 CURVE",
"93 98 LINE",
"76 35 OFFCURVE",
"68 -13 OFFCURVE",
"68 -47 CURVE SMOOTH",
"68 -180 OFFCURVE",
"132 -252 OFFCURVE",
"251 -252 CURVE SMOOTH"
);
}
);
width = 1039;
}
);
unicode = FEB2;
},
{
glyphname = uniFEB4;
lastChange = "2019-12-18 10:09:45 +0000";
layers = (
{
anchors = (
{
name = bottom;
position = "{333, -52}";
},
{
name = top;
position = "{350, 330}";
}
);
layerId = master01;
paths = (
{
closed = 1;
nodes = (
"268 1 OFFCURVE",
"332 7 OFFCURVE",
"347 25 CURVE",
"370 8 OFFCURVE",
"397 0 OFFCURVE",
"427 0 CURVE SMOOTH",
"463 0 OFFCURVE",
"505 11 OFFCURVE",
"515 27 CURVE SMOOTH",
"521 36 OFFCURVE",
"525 45 OFFCURVE",
"529 54 CURVE",
"564 22 OFFCURVE",
"619 0 OFFCURVE",
"671 0 CURVE SMOOTH",
"677 0 OFFCURVE",
"680 3 OFFCURVE",
"680 8 CURVE SMOOTH",
"680 68 LINE SMOOTH",
"680 73 OFFCURVE",
"677 76 OFFCURVE",
"671 76 CURVE SMOOTH",
"625 76 OFFCURVE",
"598 85 OFFCURVE",
"552 111 CURVE",
"576 184 OFFCURVE",
"592 231 OFFCURVE",
"602 253 CURVE",
"595 258 OFFCURVE",
"587 260 OFFCURVE",
"578 260 CURVE SMOOTH",
"563 260 OFFCURVE",
"552 255 OFFCURVE",
"547 245 CURVE SMOOTH",
"535 225 OFFCURVE",
"523 194 OFFCURVE",
"512 161 CURVE SMOOTH",
"498 121 OFFCURVE",
"489 97 OFFCURVE",
"483 89 CURVE",
"463 82 OFFCURVE",
"444 79 OFFCURVE",
"428 79 CURVE SMOOTH",
"407 79 OFFCURVE",
"395 82 OFFCURVE",
"375 91 CURVE",
"402 179 OFFCURVE",
"417 223 OFFCURVE",
"427 245 CURVE",
"420 250 OFFCURVE",
"412 252 OFFCURVE",
"403 252 CURVE SMOOTH",
"383 252 OFFCURVE",
"375 247 OFFCURVE",
"363 220 CURVE SMOOTH",
"350 193 OFFCURVE",
"328 107 OFFCURVE",
"315 86 CURVE",
"294 80 OFFCURVE",
"268 76 OFFCURVE",
"237 76 CURVE SMOOTH",
"194 76 OFFCURVE",
"158 84 OFFCURVE",
"148 89 CURVE",
"155 99 OFFCURVE",
"169 129 OFFCURVE",
"189 180 CURVE",
"182 185 OFFCURVE",
"174 187 OFFCURVE",
"165 187 CURVE SMOOTH",
"150 187 OFFCURVE",
"140 182 OFFCURVE",
"134 171 CURVE SMOOTH",
"109 130 OFFCURVE",
"104 118 OFFCURVE",
"81 99 CURVE SMOOTH",
"59 82 OFFCURVE",
"37 76 OFFCURVE",
"0 76 CURVE SMOOTH",
"-6 76 OFFCURVE",
"-8 73 OFFCURVE",
"-8 68 CURVE SMOOTH",
"-8 8 LINE SMOOTH",
"-8 3 OFFCURVE",
"-6 0 OFFCURVE",
"0 0 CURVE SMOOTH",
"45 0 OFFCURVE",
"85 12 OFFCURVE",
"104 31 CURVE",
"130 14 OFFCURVE",
"188 0 OFFCURVE",
"226 0 CURVE SMOOTH"
);
}
);
width = 663;
},
{
anchors = (
{
name = bottom;
position = "{337, -58}";
},
{
name = top;
position = "{360, 374}";
}
);
layerId = "26E2967D-790C-4793-AF2A-2D0AD74EDC69";
paths = (
{
closed = 1;
nodes = (
"277 0 OFFCURVE",
"331 9 OFFCURVE",
"350 22 CURVE",
"385 7 OFFCURVE",
"412 0 OFFCURVE",
"431 0 CURVE SMOOTH",
"460 0 OFFCURVE",
"485 3 OFFCURVE",
"504 8 CURVE SMOOTH",
"542 18 OFFCURVE",
"548 39 OFFCURVE",
"559 69 CURVE",
"589 36 OFFCURVE",
"652 9 OFFCURVE",
"706 9 CURVE SMOOTH",
"711 9 OFFCURVE",
"714 12 OFFCURVE",
"714 17 CURVE SMOOTH",
"714 119 LINE SMOOTH",
"714 125 OFFCURVE",
"711 127 OFFCURVE",
"706 127 CURVE SMOOTH",
"655 127 OFFCURVE",
"616 136 OFFCURVE",
"586 154 CURVE",
"612 238 OFFCURVE",
"624 271 OFFCURVE",
"632 293 CURVE",
"622 300 OFFCURVE",
"611 304 OFFCURVE",
"598 304 CURVE SMOOTH",
"575 304 OFFCURVE",
"556 291 OFFCURVE",
"548 273 CURVE SMOOTH",
"533 231 OFFCURVE",
"521 201 OFFCURVE",
"513 179 CURVE SMOOTH",
"501 147 OFFCURVE",
"495 133 OFFCURVE",
"491 126 CURVE",
"468 119 OFFCURVE",
"444 115 OFFCURVE",
"419 115 CURVE SMOOTH",
"410 116 OFFCURVE",
"401 116 OFFCURVE",
"392 116 CURVE",
"423 216 OFFCURVE",
"438 264 OFFCURVE",
"446 284 CURVE",
"436 292 OFFCURVE",
"424 295 OFFCURVE",
"411 295 CURVE SMOOTH",
"387 295 OFFCURVE",
"369 282 OFFCURVE",
"362 265 CURVE SMOOTH",
"332 184 OFFCURVE",
"317 146 OFFCURVE",
"307 130 CURVE",
"270 119 OFFCURVE",
"262 119 OFFCURVE",
"235 119 CURVE SMOOTH",
"217 119 OFFCURVE",
"199 120 OFFCURVE",
"181 122 CURVE",
"197 163 OFFCURVE",
"212 203 OFFCURVE",
"229 243 CURVE",
"218 250 OFFCURVE",
"208 254 OFFCURVE",
"198 254 CURVE SMOOTH",
"180 254 OFFCURVE",
"164 243 OFFCURVE",
"156 229 CURVE SMOOTH",
"130 183 OFFCURVE",
"121 167 OFFCURVE",
"106 153 CURVE SMOOTH",
"87 134 OFFCURVE",
"61 127 OFFCURVE",
"0 127 CURVE SMOOTH",
"-6 127 OFFCURVE",
"-8 125 OFFCURVE",
"-8 119 CURVE SMOOTH",
"-8 17 LINE SMOOTH",
"-8 12 OFFCURVE",
"-6 9 OFFCURVE",
"0 9 CURVE SMOOTH",
"42 9 OFFCURVE",
"88 19 OFFCURVE",
"115 32 CURVE",
"159 11 OFFCURVE",
"197 0 OFFCURVE",
"230 0 CURVE SMOOTH"
);
}
);
width = 697;
}
);
unicode = FEB4;
},
{
glyphname = uniFEB3;
lastChange = "2019-12-18 10:09:45 +0000";
layers = (
{
anchors = (
{
name = bottom;
position = "{336, -52}";
},
{
name = top;
position = "{339, 330}";
}
);
layerId = master01;
paths = (
{
closed = 1;
nodes = (
"271 1 OFFCURVE",
"336 7 OFFCURVE",
"348 27 CURVE SMOOTH",
"351 32 OFFCURVE",
"354 38 OFFCURVE",
"356 43 CURVE",
"428 10 OFFCURVE",
"482 0 OFFCURVE",
"568 0 CURVE",
"587 36 OFFCURVE",
"607 100 OFFCURVE",
"607 123 CURVE SMOOTH",
"607 180 OFFCURVE",
"576 283 OFFCURVE",
"568 340 CURVE",
"527 316 OFFCURVE",
"502 285 OFFCURVE",
"502 256 CURVE SMOOTH",
"502 235 OFFCURVE",
"549 119 OFFCURVE",
"560 79 CURVE",
"492 79 OFFCURVE",
"453 88 OFFCURVE",
"383 118 CURVE",
"403 181 OFFCURVE",
"417 224 OFFCURVE",
"427 245 CURVE",
"420 250 OFFCURVE",
"412 252 OFFCURVE",
"403 252 CURVE SMOOTH",
"382 252 OFFCURVE",
"375 246 OFFCURVE",
"363 220 CURVE SMOOTH",
"349 191 OFFCURVE",
"328 106 OFFCURVE",
"315 86 CURVE",
"294 80 OFFCURVE",
"268 76 OFFCURVE",
"237 76 CURVE SMOOTH",
"194 76 OFFCURVE",
"158 84 OFFCURVE",
"148 89 CURVE",
"155 99 OFFCURVE",
"169 129 OFFCURVE",
"189 180 CURVE",
"182 185 OFFCURVE",
"174 187 OFFCURVE",
"165 187 CURVE SMOOTH",
"150 187 OFFCURVE",
"140 182 OFFCURVE",
"134 171 CURVE SMOOTH",
"108 129 OFFCURVE",
"104 117 OFFCURVE",
"81 99 CURVE SMOOTH",
"59 82 OFFCURVE",
"37 76 OFFCURVE",
"0 76 CURVE SMOOTH",
"-6 76 OFFCURVE",
"-8 73 OFFCURVE",
"-8 68 CURVE SMOOTH",
"-8 8 LINE SMOOTH",
"-8 3 OFFCURVE",
"-6 0 OFFCURVE",
"0 0 CURVE SMOOTH",
"45 0 OFFCURVE",
"85 12 OFFCURVE",
"104 31 CURVE",
"130 15 OFFCURVE",
"187 0 OFFCURVE",
"226 0 CURVE SMOOTH"
);
}
);
width = 658;
},
{
anchors = (
{
name = bottom;
position = "{336, -58}";
},
{
name = top;
position = "{339, 373}";
}
);
layerId = "26E2967D-790C-4793-AF2A-2D0AD74EDC69";
paths = (
{
closed = 1;
nodes = (
"288 0 OFFCURVE",
"346 12 OFFCURVE",
"356 27 CURVE SMOOTH",
"360 34 OFFCURVE",
"364 42 OFFCURVE",
"368 51 CURVE",
"438 20 OFFCURVE",
"527 0 OFFCURVE",
"607 0 CURVE",
"625 36 OFFCURVE",
"649 109 OFFCURVE",
"649 142 CURVE SMOOTH",
"649 168 OFFCURVE",
"640 213 OFFCURVE",
"607 383 CURVE",
"557 358 OFFCURVE",
"516 313 OFFCURVE",
"516 281 CURVE SMOOTH",
"516 251 OFFCURVE",
"550 191 OFFCURVE",
"591 110 CURVE",
"519 118 OFFCURVE",
"455 129 OFFCURVE",
"404 155 CURVE",
"416 199 OFFCURVE",
"430 244 OFFCURVE",
"446 284 CURVE",
"436 292 OFFCURVE",
"424 295 OFFCURVE",
"411 295 CURVE SMOOTH",
"387 295 OFFCURVE",
"369 282 OFFCURVE",
"362 265 CURVE SMOOTH",
"332 183 OFFCURVE",
"316 145 OFFCURVE",
"307 130 CURVE",
"280 122 OFFCURVE",
"262 119 OFFCURVE",
"235 119 CURVE SMOOTH",
"217 119 OFFCURVE",
"199 120 OFFCURVE",
"181 122 CURVE",
"192 146 OFFCURVE",
"208 187 OFFCURVE",
"229 243 CURVE",
"218 250 OFFCURVE",
"208 254 OFFCURVE",
"198 254 CURVE SMOOTH",
"180 254 OFFCURVE",
"164 243 OFFCURVE",
"156 229 CURVE SMOOTH",
"128 181 OFFCURVE",
"120 167 OFFCURVE",
"106 153 CURVE SMOOTH",
"87 134 OFFCURVE",
"61 127 OFFCURVE",
"0 127 CURVE SMOOTH",
"-6 127 OFFCURVE",
"-8 125 OFFCURVE",
"-8 119 CURVE SMOOTH",
"-8 17 LINE SMOOTH",
"-8 12 OFFCURVE",
"-6 9 OFFCURVE",
"0 9 CURVE SMOOTH",
"42 9 OFFCURVE",
"88 19 OFFCURVE",
"115 32 CURVE",
"159 11 OFFCURVE",
"197 0 OFFCURVE",
"230 0 CURVE SMOOTH"
);
}
);
width = 700;
}
);
unicode = FEB3;
},
{
glyphname = uni0635;
lastChange = "2019-12-18 10:09:45 +0000";
layers = (
{
anchors = (
{
name = bottom;
position = "{791, -52}";
},
{
name = top;
position = "{719, 406}";
}
);
layerId = master01;
paths = (
{
closed = 1;
nodes = (
"297 -262 OFFCURVE",
"344 -250 OFFCURVE",
"389 -226 CURVE SMOOTH",
"480 -179 OFFCURVE",
"535 -99 OFFCURVE",
"535 -17 CURVE SMOOTH",
"535 -3 OFFCURVE",
"534 10 OFFCURVE",
"533 24 CURVE",
"592 8 OFFCURVE",
"656 0 OFFCURVE",
"723 0 CURVE SMOOTH",
"781 0 OFFCURVE",
"836 9 OFFCURVE",
"888 28 CURVE SMOOTH",
"993 66 OFFCURVE",
"1044 130 OFFCURVE",
"1044 211 CURVE SMOOTH",
"1044 229 OFFCURVE",
"1034 249 OFFCURVE",
"1014 272 CURVE SMOOTH",
"974 319 OFFCURVE",
"909 357 OFFCURVE",
"868 357 CURVE SMOOTH",
"780 357 OFFCURVE",
"675 278 OFFCURVE",
"541 103 CURVE",
"518 111 LINE",
"507 168 OFFCURVE",
"501 207 OFFCURVE",
"498 226 CURVE",
"450 197 OFFCURVE",
"433 171 OFFCURVE",
"433 137 CURVE SMOOTH",
"433 105 OFFCURVE",
"454 41 OFFCURVE",
"498 -54 CURVE",
"465 -125 OFFCURVE",
"350 -179 OFFCURVE",
"251 -179 CURVE SMOOTH",
"164 -179 OFFCURVE",
"113 -122 OFFCURVE",
"113 -24 CURVE SMOOTH",
"113 -6 OFFCURVE",
"117 18 OFFCURVE",
"124 47 CURVE",
"87 56 LINE",
"71 -10 OFFCURVE",
"68 -35 OFFCURVE",
"68 -74 CURVE SMOOTH",
"68 -194 OFFCURVE",
"135 -262 OFFCURVE",
"249 -262 CURVE SMOOTH"
);
},
{
closed = 1;
nodes = (
"691 76 OFFCURVE",
"643 81 OFFCURVE",
"588 90 CURVE",
"683 204 OFFCURVE",
"778 273 OFFCURVE",
"843 273 CURVE SMOOTH",
"898 273 OFFCURVE",
"959 232 OFFCURVE",
"1000 162 CURVE",
"908 105 OFFCURVE",
"819 76 OFFCURVE",
"732 76 CURVE SMOOTH"
);
}
);
width = 1096;
},
{
anchors = (
{
name = bottom;
position = "{810, -76}";
},
{
name = top;
position = "{666, 473}";
}
);
layerId = "26E2967D-790C-4793-AF2A-2D0AD74EDC69";
paths = (
{
closed = 1;
nodes = (
"306 -252 OFFCURVE",
"357 -242 OFFCURVE",
"403 -220 CURVE SMOOTH",
"495 -177 OFFCURVE",
"552 -96 OFFCURVE",
"552 -7 CURVE",
"552 3 OFFCURVE",
"551 13 OFFCURVE",
"551 23 CURVE",
"617 8 OFFCURVE",
"680 0 OFFCURVE",
"741 0 CURVE SMOOTH",
"801 0 OFFCURVE",
"858 10 OFFCURVE",
"914 30 CURVE SMOOTH",
"1025 69 OFFCURVE",
"1081 139 OFFCURVE",
"1081 226 CURVE SMOOTH",
"1081 245 OFFCURVE",
"1069 269 OFFCURVE",
"1045 297 CURVE SMOOTH",
"997 354 OFFCURVE",
"927 400 OFFCURVE",
"878 400 CURVE SMOOTH",
"800 400 OFFCURVE",
"694 312 OFFCURVE",
"561 135 CURVE",
"534 144 LINE",
"521 217 OFFCURVE",
"513 268 OFFCURVE",
"513 270 CURVE",
"444 236 OFFCURVE",
"412 194 OFFCURVE",
"412 144 CURVE SMOOTH",
"412 106 OFFCURVE",
"450 43 OFFCURVE",
"497 -45 CURVE",
"426 -109 OFFCURVE",
"359 -134 OFFCURVE",
"254 -134 CURVE SMOOTH",
"165 -134 OFFCURVE",
"123 -88 OFFCURVE",
"123 7 CURVE SMOOTH",
"123 30 OFFCURVE",
"128 57 OFFCURVE",
"137 87 CURVE",
"93 98 LINE",
"76 35 OFFCURVE",
"68 -13 OFFCURVE",
"68 -47 CURVE SMOOTH",
"68 -180 OFFCURVE",
"132 -252 OFFCURVE",
"251 -252 CURVE SMOOTH"
);
},
{
closed = 1;
nodes = (
"717 110 OFFCURVE",
"675 114 OFFCURVE",
"626 120 CURVE",
"693 197 OFFCURVE",
"783 282 OFFCURVE",
"854 282 CURVE SMOOTH",
"906 282 OFFCURVE",
"963 248 OFFCURVE",
"1022 179 CURVE",
"925 132 OFFCURVE",
"847 110 OFFCURVE",
"751 110 CURVE SMOOTH"
);
}
);
width = 1131;
}
);
unicode = "0635,FEB9";
},
{
glyphname = uniFEBA;
lastChange = "2019-12-18 10:09:45 +0000";
layers = (
{
anchors = (
{
name = bottom;
position = "{801, -52}";
},
{
name = top;
position = "{729, 406}";
}
);
layerId = master01;
paths = (
{
closed = 1;
nodes = (
"297 -262 OFFCURVE",
"344 -250 OFFCURVE",
"389 -226 CURVE SMOOTH",
"480 -179 OFFCURVE",
"535 -99 OFFCURVE",
"535 -17 CURVE SMOOTH",
"535 -3 OFFCURVE",
"534 10 OFFCURVE",
"533 24 CURVE",
"592 8 OFFCURVE",
"656 0 OFFCURVE",
"723 0 CURVE SMOOTH",
"810 0 OFFCURVE",
"899 24 OFFCURVE",
"957 60 CURVE",
"989 26 OFFCURVE",
"1051 0 OFFCURVE",
"1108 0 CURVE SMOOTH",
"1113 0 OFFCURVE",
"1116 3 OFFCURVE",
"1116 8 CURVE SMOOTH",
"1116 68 LINE SMOOTH",
"1116 73 OFFCURVE",
"1113 76 OFFCURVE",
"1108 76 CURVE SMOOTH",
"1068 76 OFFCURVE",
"1034 85 OFFCURVE",
"1004 102 CURVE",
"1031 132 OFFCURVE",
"1044 169 OFFCURVE",
"1044 211 CURVE SMOOTH",
"1044 229 OFFCURVE",
"1034 249 OFFCURVE",
"1014 272 CURVE SMOOTH",
"974 319 OFFCURVE",
"909 357 OFFCURVE",
"868 357 CURVE SMOOTH",
"780 357 OFFCURVE",
"675 278 OFFCURVE",
"541 103 CURVE",
"518 111 LINE",
"510 156 OFFCURVE",
"502 192 OFFCURVE",
"498 226 CURVE",
"450 197 OFFCURVE",
"433 171 OFFCURVE",
"433 137 CURVE SMOOTH",
"433 105 OFFCURVE",
"454 41 OFFCURVE",
"498 -54 CURVE",
"465 -125 OFFCURVE",
"350 -179 OFFCURVE",
"251 -179 CURVE SMOOTH",
"164 -179 OFFCURVE",
"113 -122 OFFCURVE",
"113 -24 CURVE SMOOTH",
"113 -6 OFFCURVE",
"117 18 OFFCURVE",
"124 47 CURVE",
"87 56 LINE",
"71 -10 OFFCURVE",
"68 -35 OFFCURVE",
"68 -74 CURVE SMOOTH",
"68 -194 OFFCURVE",
"135 -262 OFFCURVE",
"249 -262 CURVE SMOOTH"
);
},
{
closed = 1;
nodes = (
"691 76 OFFCURVE",
"643 81 OFFCURVE",
"588 90 CURVE",
"619 127 OFFCURVE",
"650 160 OFFCURVE",
"680 187 CURVE SMOOTH",
"742 242 OFFCURVE",
"799 273 OFFCURVE",
"843 273 CURVE SMOOTH",
"898 273 OFFCURVE",
"959 232 OFFCURVE",
"1000 162 CURVE",
"908 105 OFFCURVE",
"819 76 OFFCURVE",
"732 76 CURVE SMOOTH"
);
}
);
width = 1099;
},
{
anchors = (
{
name = bottom;
position = "{815, -76}";
},
{
name = top;
position = "{670, 473}";
}
);
layerId = "26E2967D-790C-4793-AF2A-2D0AD74EDC69";
paths = (
{
closed = 1;
nodes = (
"306 -252 OFFCURVE",
"357 -242 OFFCURVE",
"403 -220 CURVE SMOOTH",
"495 -177 OFFCURVE",
"552 -96 OFFCURVE",
"552 -7 CURVE",
"552 3 OFFCURVE",
"551 13 OFFCURVE",
"551 23 CURVE",
"617 8 OFFCURVE",
"680 0 OFFCURVE",
"741 0 CURVE SMOOTH",
"847 0 OFFCURVE",
"955 34 OFFCURVE",
"1020 90 CURVE",
"1066 39 OFFCURVE",
"1132 9 OFFCURVE",
"1195 9 CURVE SMOOTH",
"1201 9 OFFCURVE",
"1204 12 OFFCURVE",
"1204 17 CURVE SMOOTH",
"1204 119 LINE SMOOTH",
"1204 125 OFFCURVE",
"1201 127 OFFCURVE",
"1195 127 CURVE SMOOTH",
"1146 127 OFFCURVE",
"1122 136 OFFCURVE",
"1071 166 CURVE",
"1077 184 OFFCURVE",
"1081 204 OFFCURVE",
"1081 226 CURVE SMOOTH",
"1081 245 OFFCURVE",
"1069 269 OFFCURVE",
"1045 297 CURVE SMOOTH",
"997 354 OFFCURVE",
"927 400 OFFCURVE",
"878 400 CURVE SMOOTH",
"800 400 OFFCURVE",
"694 312 OFFCURVE",
"561 135 CURVE",
"534 144 LINE",
"527 186 OFFCURVE",
"520 228 OFFCURVE",
"513 270 CURVE",
"444 236 OFFCURVE",
"412 194 OFFCURVE",
"412 138 CURVE SMOOTH",
"412 119 OFFCURVE",
"417 107 OFFCURVE",
"497 -45 CURVE",
"426 -109 OFFCURVE",
"359 -134 OFFCURVE",
"254 -134 CURVE SMOOTH",
"165 -134 OFFCURVE",
"123 -88 OFFCURVE",
"123 7 CURVE SMOOTH",
"123 30 OFFCURVE",
"128 57 OFFCURVE",
"137 87 CURVE",
"93 98 LINE",
"76 35 OFFCURVE",
"68 -13 OFFCURVE",
"68 -47 CURVE SMOOTH",
"68 -180 OFFCURVE",
"132 -252 OFFCURVE",
"251 -252 CURVE SMOOTH"
);
},
{
closed = 1;
nodes = (
"717 110 OFFCURVE",
"675 114 OFFCURVE",
"626 120 CURVE",
"654 152 OFFCURVE",
"682 181 OFFCURVE",
"710 206 CURVE SMOOTH",
"767 257 OFFCURVE",
"814 282 OFFCURVE",
"854 282 CURVE SMOOTH",
"906 282 OFFCURVE",
"963 248 OFFCURVE",
"1022 179 CURVE",
"925 132 OFFCURVE",
"847 110 OFFCURVE",
"751 110 CURVE SMOOTH"
);
}
);
width = 1187;
}
);
unicode = FEBA;
},
{
glyphname = uniFEBC;
lastChange = "2019-12-18 10:09:45 +0000";
layers = (
{
anchors = (
{
name = bottom;
position = "{486, -52}";
},
{
name = top;
position = "{406, 406}";
}
);
layerId = master01;
paths = (
{
closed = 1;
nodes = (
"428 0 OFFCURVE",
"460 3 OFFCURVE",
"491 9 CURVE SMOOTH",
"545 20 OFFCURVE",
"596 38 OFFCURVE",
"633 62 CURVE",
"669 25 OFFCURVE",
"729 0 OFFCURVE",
"786 0 CURVE SMOOTH",
"792 0 OFFCURVE",
"795 3 OFFCURVE",
"795 8 CURVE SMOOTH",
"795 68 LINE SMOOTH",
"795 73 OFFCURVE",
"792 76 OFFCURVE",
"786 76 CURVE SMOOTH",
"745 76 OFFCURVE",
"710 85 OFFCURVE",
"680 104 CURVE",
"705 135 OFFCURVE",
"718 171 OFFCURVE",
"718 211 CURVE SMOOTH",
"718 230 OFFCURVE",
"707 251 OFFCURVE",
"686 275 CURVE SMOOTH",
"642 323 OFFCURVE",
"579 357 OFFCURVE",
"542 357 CURVE SMOOTH",
"497 357 OFFCURVE",
"448 336 OFFCURVE",
"395 295 CURVE SMOOTH",
"340 252 OFFCURVE",
"280 188 OFFCURVE",
"215 103 CURVE",
"198 108 OFFCURVE",
"182 115 OFFCURVE",
"166 123 CURVE",
"171 135 OFFCURVE",
"181 158 OFFCURVE",
"195 192 CURVE",
"189 198 OFFCURVE",
"181 201 OFFCURVE",
"172 201 CURVE SMOOTH",
"158 201 OFFCURVE",
"147 195 OFFCURVE",
"140 184 CURVE SMOOTH",
"135 174 OFFCURVE",
"130 165 OFFCURVE",
"125 156 CURVE SMOOTH",
"89 93 OFFCURVE",
"60 76 OFFCURVE",
"0 76 CURVE SMOOTH",
"-6 76 OFFCURVE",
"-8 73 OFFCURVE",
"-8 68 CURVE SMOOTH",
"-8 8 LINE SMOOTH",
"-8 3 OFFCURVE",
"-6 0 OFFCURVE",
"0 0 CURVE SMOOTH",
"51 0 OFFCURVE",
"87 12 OFFCURVE",
"109 37 CURVE SMOOTH",
"115 43 OFFCURVE",
"121 50 OFFCURVE",
"126 56 CURVE",
"186 23 OFFCURVE",
"300 0 OFFCURVE",
"396 0 CURVE SMOOTH"
);
},
{
closed = 1;
nodes = (
"362 76 OFFCURVE",
"314 81 OFFCURVE",
"262 91 CURVE",
"364 211 OFFCURVE",
"453 273 OFFCURVE",
"517 273 CURVE SMOOTH",
"572 273 OFFCURVE",
"633 232 OFFCURVE",
"673 162 CURVE",
"582 105 OFFCURVE",
"493 76 OFFCURVE",
"406 76 CURVE SMOOTH"
);
}
);
width = 778;
},
{
anchors = (
{
name = bottom;
position = "{481, -58}";
},
{
name = top;
position = "{342, 473}";
}
);
layerId = "26E2967D-790C-4793-AF2A-2D0AD74EDC69";
paths = (
{
closed = 1;
nodes = (
"439 0 OFFCURVE",
"473 4 OFFCURVE",
"509 11 CURVE SMOOTH",
"581 26 OFFCURVE",
"649 57 OFFCURVE",
"681 88 CURVE",
"729 36 OFFCURVE",
"793 9 OFFCURVE",
"854 9 CURVE SMOOTH",
"860 9 OFFCURVE",
"863 12 OFFCURVE",
"863 17 CURVE SMOOTH",
"863 119 LINE SMOOTH",
"863 125 OFFCURVE",
"860 127 OFFCURVE",
"854 127 CURVE SMOOTH",
"807 127 OFFCURVE",
"781 136 OFFCURVE",
"733 164 CURVE",
"740 182 OFFCURVE",
"744 203 OFFCURVE",
"744 226 CURVE SMOOTH",
"744 243 OFFCURVE",
"733 266 OFFCURVE",
"710 294 CURVE SMOOTH",
"666 350 OFFCURVE",
"591 400 OFFCURVE",
"542 400 CURVE SMOOTH",
"503 400 OFFCURVE",
"458 379 OFFCURVE",
"407 336 CURVE SMOOTH",
"355 294 OFFCURVE",
"294 227 OFFCURVE",
"225 135 CURVE",
"211 140 OFFCURVE",
"198 144 OFFCURVE",
"184 149 CURVE",
"197 181 OFFCURVE",
"210 213 OFFCURVE",
"223 246 CURVE",
"213 252 OFFCURVE",
"202 256 OFFCURVE",
"191 256 CURVE SMOOTH",
"172 256 OFFCURVE",
"156 247 OFFCURVE",
"146 229 CURVE SMOOTH",
"141 219 OFFCURVE",
"136 210 OFFCURVE",
"131 201 CURVE SMOOTH",
"97 139 OFFCURVE",
"79 127 OFFCURVE",
"0 127 CURVE SMOOTH",
"-6 127 OFFCURVE",
"-8 125 OFFCURVE",
"-8 119 CURVE SMOOTH",
"-8 17 LINE SMOOTH",
"-8 12 OFFCURVE",
"-6 9 OFFCURVE",
"0 9 CURVE SMOOTH",
"43 9 OFFCURVE",
"88 19 OFFCURVE",
"116 38 CURVE SMOOTH",
"123 42 OFFCURVE",
"129 47 OFFCURVE",
"133 53 CURVE",
"213 15 OFFCURVE",
"316 0 OFFCURVE",
"405 0 CURVE SMOOTH"
);
},
{
closed = 1;
nodes = (
"375 110 OFFCURVE",
"334 114 OFFCURVE",
"291 121 CURVE",
"378 223 OFFCURVE",
"458 282 OFFCURVE",
"517 282 CURVE SMOOTH",
"570 282 OFFCURVE",
"626 248 OFFCURVE",
"686 179 CURVE",
"588 132 OFFCURVE",
"511 110 OFFCURVE",
"415 110 CURVE SMOOTH"
);
}
);
width = 846;
}
);
unicode = FEBC;
},
{
glyphname = uniFEBB;
lastChange = "2019-12-18 10:09:45 +0000";
layers = (
{
anchors = (
{
name = bottom;
position = "{486, -52}";
},
{
name = top;
position = "{406, 406}";
}
);
layerId = master01;
paths = (
{
closed = 1;
nodes = (
"454 0 OFFCURVE",
"509 9 OFFCURVE",
"561 28 CURVE SMOOTH",
"666 65 OFFCURVE",
"718 129 OFFCURVE",
"718 211 CURVE SMOOTH",
"718 230 OFFCURVE",
"707 251 OFFCURVE",
"686 275 CURVE SMOOTH",
"642 323 OFFCURVE",
"579 357 OFFCURVE",
"542 357 CURVE SMOOTH",
"496 357 OFFCURVE",
"446 335 OFFCURVE",
"391 292 CURVE SMOOTH",
"337 250 OFFCURVE",
"278 187 OFFCURVE",
"215 103 CURVE",
"198 108 OFFCURVE",
"182 115 OFFCURVE",
"166 123 CURVE",
"171 135 OFFCURVE",
"181 158 OFFCURVE",
"195 192 CURVE",
"189 198 OFFCURVE",
"181 201 OFFCURVE",
"172 201 CURVE SMOOTH",
"158 201 OFFCURVE",
"147 195 OFFCURVE",
"140 184 CURVE SMOOTH",
"135 174 OFFCURVE",
"130 165 OFFCURVE",
"125 156 CURVE SMOOTH",
"89 93 OFFCURVE",
"60 76 OFFCURVE",
"0 76 CURVE SMOOTH",
"-6 76 OFFCURVE",
"-8 73 OFFCURVE",
"-8 68 CURVE SMOOTH",
"-8 8 LINE SMOOTH",
"-8 3 OFFCURVE",
"-6 0 OFFCURVE",
"0 0 CURVE SMOOTH",
"51 0 OFFCURVE",
"87 12 OFFCURVE",
"109 37 CURVE SMOOTH",
"115 43 OFFCURVE",
"121 50 OFFCURVE",
"126 56 CURVE",
"186 23 OFFCURVE",
"300 0 OFFCURVE",
"396 0 CURVE SMOOTH"
);
},
{
closed = 1;
nodes = (
"362 76 OFFCURVE",
"314 81 OFFCURVE",
"262 91 CURVE",
"364 211 OFFCURVE",
"453 273 OFFCURVE",
"517 273 CURVE SMOOTH",
"572 273 OFFCURVE",
"633 232 OFFCURVE",
"673 162 CURVE",
"582 105 OFFCURVE",
"493 76 OFFCURVE",
"406 76 CURVE SMOOTH"
);
}
);
width = 786;
},
{
anchors = (
{
name = bottom;
position = "{481, -58}";
},
{
name = top;
position = "{342, 473}";
}
);
layerId = "26E2967D-790C-4793-AF2A-2D0AD74EDC69";
paths = (
{
closed = 1;
nodes = (
"465 0 OFFCURVE",
"523 10 OFFCURVE",
"578 30 CURVE SMOOTH",
"689 71 OFFCURVE",
"744 138 OFFCURVE",
"744 226 CURVE SMOOTH",
"744 243 OFFCURVE",
"733 266 OFFCURVE",
"710 294 CURVE SMOOTH",
"666 350 OFFCURVE",
"591 400 OFFCURVE",
"542 400 CURVE SMOOTH",
"503 400 OFFCURVE",
"458 379 OFFCURVE",
"407 336 CURVE SMOOTH",
"355 294 OFFCURVE",
"294 227 OFFCURVE",
"225 135 CURVE",
"211 140 OFFCURVE",
"198 144 OFFCURVE",
"184 149 CURVE",
"197 181 OFFCURVE",
"210 213 OFFCURVE",
"223 246 CURVE",
"213 252 OFFCURVE",
"202 256 OFFCURVE",
"191 256 CURVE SMOOTH",
"172 256 OFFCURVE",
"156 247 OFFCURVE",
"146 229 CURVE SMOOTH",
"140 217 OFFCURVE",
"134 208 OFFCURVE",
"129 199 CURVE SMOOTH",
"92 135 OFFCURVE",
"76 127 OFFCURVE",
"0 127 CURVE SMOOTH",
"-6 127 OFFCURVE",
"-8 125 OFFCURVE",
"-8 119 CURVE SMOOTH",
"-8 17 LINE SMOOTH",
"-8 12 OFFCURVE",
"-6 9 OFFCURVE",
"0 9 CURVE SMOOTH",
"42 9 OFFCURVE",
"86 19 OFFCURVE",
"114 36 CURVE SMOOTH",
"122 41 OFFCURVE",
"128 47 OFFCURVE",
"133 53 CURVE",
"213 15 OFFCURVE",
"316 0 OFFCURVE",
"405 0 CURVE SMOOTH"
);
},
{
closed = 1;
nodes = (
"375 110 OFFCURVE",
"334 114 OFFCURVE",
"291 121 CURVE",
"378 223 OFFCURVE",
"458 282 OFFCURVE",
"517 282 CURVE SMOOTH",
"570 282 OFFCURVE",
"626 248 OFFCURVE",
"686 179 CURVE",
"588 132 OFFCURVE",
"511 110 OFFCURVE",
"415 110 CURVE SMOOTH"
);
}
);
width = 795;
}
);
unicode = FEBB;
},
{
glyphname = uni0637;
lastChange = "2019-12-18 10:09:45 +0000";
layers = (
{
anchors = (
{
name = bottom;
position = "{392, -52}";
},
{
name = top;
position = "{531, 435}";
}
);
layerId = master01;
paths = (
{
closed = 1;
nodes = (
"454 0 OFFCURVE",
"509 9 OFFCURVE",
"561 28 CURVE SMOOTH",
"666 65 OFFCURVE",
"718 129 OFFCURVE",
"718 211 CURVE SMOOTH",
"718 230 OFFCURVE",
"707 251 OFFCURVE",
"686 275 CURVE SMOOTH",
"642 323 OFFCURVE",
"579 357 OFFCURVE",
"542 357 CURVE SMOOTH",
"476 357 OFFCURVE",
"396 307 OFFCURVE",
"302 207 CURVE",
"301 232 OFFCURVE",
"300 258 OFFCURVE",
"298 286 CURVE SMOOTH",
"295 321 OFFCURVE",
"279 466 OFFCURVE",
"272 529 CURVE",
"299 552 LINE",
"281 608 OFFCURVE",
"271 639 OFFCURVE",
"264 671 CURVE",
"217 662 OFFCURVE",
"197 637 OFFCURVE",
"197 592 CURVE SMOOTH",
"197 540 OFFCURVE",
"219 396 OFFCURVE",
"262 162 CURVE",
"243 139 OFFCURVE",
"224 115 OFFCURVE",
"204 90 CURVE",
"152 98 OFFCURVE",
"102 109 OFFCURVE",
"53 121 CURVE",
"42 86 LINE",
"82 58 OFFCURVE",
"157 19 OFFCURVE",
"192 12 CURVE SMOOTH",
"226 6 OFFCURVE",
"315 0 OFFCURVE",
"396 0 CURVE SMOOTH"
);
},
{
closed = 1;
nodes = (
"356 76 OFFCURVE",
"306 78 OFFCURVE",
"255 83 CURVE",
"354 203 OFFCURVE",
"451 273 OFFCURVE",
"517 273 CURVE SMOOTH",
"572 273 OFFCURVE",
"633 232 OFFCURVE",
"673 162 CURVE",
"582 105 OFFCURVE",
"493 76 OFFCURVE",
"406 76 CURVE SMOOTH"
);
}
);
width = 769;
},
{
anchors = (
{
name = bottom;
position = "{401, -58}";
},
{
name = top;
position = "{526, 493}";
}
);
layerId = "26E2967D-790C-4793-AF2A-2D0AD74EDC69";
paths = (
{
closed = 1;
nodes = (
"463 0 OFFCURVE",
"520 10 OFFCURVE",
"576 30 CURVE SMOOTH",
"686 71 OFFCURVE",
"741 138 OFFCURVE",
"741 226 CURVE SMOOTH",
"741 244 OFFCURVE",
"729 268 OFFCURVE",
"706 297 CURVE SMOOTH",
"658 354 OFFCURVE",
"587 400 OFFCURVE",
"539 400 CURVE SMOOTH",
"478 400 OFFCURVE",
"399 346 OFFCURVE",
"304 238 CURVE",
"302 262 OFFCURVE",
"301 282 OFFCURVE",
"300 299 CURVE SMOOTH",
"288 461 OFFCURVE",
"296 352 OFFCURVE",
"282 533 CURVE",
"314 557 LINE",
"298 597 OFFCURVE",
"285 638 OFFCURVE",
"273 680 CURVE",
"217 680 OFFCURVE",
"172 637 OFFCURVE",
"172 582 CURVE SMOOTH",
"172 544 OFFCURVE",
"200 414 OFFCURVE",
"252 175 CURVE",
"239 158 OFFCURVE",
"226 140 OFFCURVE",
"212 123 CURVE",
"173 129 OFFCURVE",
"119 139 OFFCURVE",
"49 156 CURVE",
"34 113 LINE",
"86 67 OFFCURVE",
"148 24 OFFCURVE",
"175 16 CURVE SMOOTH",
"209 6 OFFCURVE",
"325 0 OFFCURVE",
"402 0 CURVE SMOOTH"
);
},
{
closed = 1;
nodes = (
"370 110 OFFCURVE",
"327 112 OFFCURVE",
"283 115 CURVE",
"385 231 OFFCURVE",
"458 282 OFFCURVE",
"514 282 CURVE SMOOTH",
"567 282 OFFCURVE",
"624 248 OFFCURVE",
"684 179 CURVE",
"589 133 OFFCURVE",
"510 110 OFFCURVE",
"412 110 CURVE SMOOTH"
);
}
);
width = 792;
}
);
unicode = "0637,FEC1";
},
{
glyphname = uniFEC2;
lastChange = "2019-12-18 10:09:45 +0000";
layers = (
{
anchors = (
{
name = bottom;
position = "{450, -62}";
},
{
name = top;
position = "{530, 435}";
}
);
layerId = master01;
paths = (
{
closed = 1;
nodes = (
"483 0 OFFCURVE",
"572 23 OFFCURVE",
"631 61 CURVE",
"666 26 OFFCURVE",
"727 0 OFFCURVE",
"784 0 CURVE SMOOTH",
"790 0 OFFCURVE",
"792 3 OFFCURVE",
"792 8 CURVE SMOOTH",
"792 68 LINE SMOOTH",
"792 73 OFFCURVE",
"790 76 OFFCURVE",
"784 76 CURVE SMOOTH",
"745 76 OFFCURVE",
"710 85 OFFCURVE",
"680 102 CURVE",
"704 132 OFFCURVE",
"718 169 OFFCURVE",
"718 211 CURVE SMOOTH",
"718 230 OFFCURVE",
"707 251 OFFCURVE",
"686 275 CURVE SMOOTH",
"642 323 OFFCURVE",
"579 357 OFFCURVE",
"542 357 CURVE SMOOTH",
"476 357 OFFCURVE",
"396 307 OFFCURVE",
"303 208 CURVE",
"302 250 OFFCURVE",
"299 292 OFFCURVE",
"293 333 CURVE SMOOTH",
"292 346 OFFCURVE",
"285 410 OFFCURVE",
"272 529 CURVE",
"299 552 LINE",
"281 606 OFFCURVE",
"272 639 OFFCURVE",
"264 671 CURVE",
"215 660 OFFCURVE",
"198 635 OFFCURVE",
"198 590 CURVE SMOOTH",
"198 583 OFFCURVE",
"198 575 OFFCURVE",
"199 564 CURVE SMOOTH",
"204 508 OFFCURVE",
"219 404 OFFCURVE",
"233 333 CURVE SMOOTH",
"243 276 OFFCURVE",
"252 219 OFFCURVE",
"262 162 CURVE",
"243 139 OFFCURVE",
"224 115 OFFCURVE",
"204 90 CURVE",
"63 117 OFFCURVE",
"219 85 OFFCURVE",
"53 121 CURVE",
"42 86 LINE",
"82 58 OFFCURVE",
"157 19 OFFCURVE",
"192 12 CURVE SMOOTH",
"226 6 OFFCURVE",
"315 0 OFFCURVE",
"396 0 CURVE SMOOTH"
);
},
{
closed = 1;
nodes = (
"356 76 OFFCURVE",
"306 78 OFFCURVE",
"255 83 CURVE",
"354 203 OFFCURVE",
"451 273 OFFCURVE",
"517 273 CURVE SMOOTH",
"572 273 OFFCURVE",
"633 232 OFFCURVE",
"673 162 CURVE",
"582 105 OFFCURVE",
"493 76 OFFCURVE",
"406 76 CURVE SMOOTH"
);
}
);
width = 775;
},
{
anchors = (
{
name = bottom;
position = "{436, -58}";
},
{
name = top;
position = "{560, 493}";
}
);
layerId = "26E2967D-790C-4793-AF2A-2D0AD74EDC69";
paths = (
{
closed = 1;
nodes = (
"538 0 OFFCURVE",
"648 33 OFFCURVE",
"711 87 CURVE",
"757 37 OFFCURVE",
"821 9 OFFCURVE",
"883 9 CURVE SMOOTH",
"889 9 OFFCURVE",
"892 12 OFFCURVE",
"892 17 CURVE SMOOTH",
"892 119 LINE SMOOTH",
"892 125 OFFCURVE",
"889 127 OFFCURVE",
"883 127 CURVE SMOOTH",
"840 127 OFFCURVE",
"800 139 OFFCURVE",
"765 162 CURVE",
"772 181 OFFCURVE",
"775 202 OFFCURVE",
"775 226 CURVE SMOOTH",
"775 244 OFFCURVE",
"764 268 OFFCURVE",
"740 297 CURVE SMOOTH",
"692 354 OFFCURVE",
"622 400 OFFCURVE",
"573 400 CURVE SMOOTH",
"512 400 OFFCURVE",
"434 346 OFFCURVE",
"338 238 CURVE",
"336 276 OFFCURVE",
"333 314 OFFCURVE",
"330 352 CURVE SMOOTH",
"326 413 OFFCURVE",
"321 473 OFFCURVE",
"316 533 CURVE",
"348 557 LINE",
"333 594 OFFCURVE",
"320 635 OFFCURVE",
"308 680 CURVE",
"251 680 OFFCURVE",
"206 637 OFFCURVE",
"206 582 CURVE SMOOTH",
"206 575 OFFCURVE",
"207 567 OFFCURVE",
"208 559 CURVE SMOOTH",
"221 493 OFFCURVE",
"235 420 OFFCURVE",
"251 342 CURVE SMOOTH",
"262 289 OFFCURVE",
"273 233 OFFCURVE",
"286 174 CURVE",
"273 157 OFFCURVE",
"259 140 OFFCURVE",
"246 123 CURVE",
"200 130 OFFCURVE",
"146 141 OFFCURVE",
"83 156 CURVE",
"68 113 LINE",
"118 68 OFFCURVE",
"182 24 OFFCURVE",
"209 16 CURVE SMOOTH",
"244 6 OFFCURVE",
"361 0 OFFCURVE",
"436 0 CURVE SMOOTH"
);
},
{
closed = 1;
nodes = (
"404 110 OFFCURVE",
"361 112 OFFCURVE",
"317 115 CURVE",
"413 226 OFFCURVE",
"490 282 OFFCURVE",
"548 282 CURVE SMOOTH",
"601 282 OFFCURVE",
"658 248 OFFCURVE",
"718 179 CURVE",
"618 131 OFFCURVE",
"541 110 OFFCURVE",
"446 110 CURVE SMOOTH"
);
}
);
width = 875;
}
);
unicode = FEC2;
},
{
glyphname = uniFEC4;
lastChange = "2019-12-18 10:09:45 +0000";
layers = (
{
anchors = (
{
name = bottom;
position = "{357, -52}";
},
{
name = top;
position = "{423, 447}";
}
);
layerId = master01;
paths = (
{
closed = 1;
nodes = (
"228 0 OFFCURVE",
"390 24 OFFCURVE",
"481 66 CURVE",
"512 29 OFFCURVE",
"578 0 OFFCURVE",
"638 0 CURVE SMOOTH",
"643 0 OFFCURVE",
"646 3 OFFCURVE",
"646 8 CURVE SMOOTH",
"646 68 LINE SMOOTH",
"646 73 OFFCURVE",
"643 76 OFFCURVE",
"638 76 CURVE SMOOTH",
"601 76 OFFCURVE",
"568 84 OFFCURVE",
"539 99 CURVE",
"586 132 OFFCURVE",
"609 174 OFFCURVE",
"609 223 CURVE SMOOTH",
"609 241 OFFCURVE",
"598 263 OFFCURVE",
"577 287 CURVE SMOOTH",
"533 335 OFFCURVE",
"470 369 OFFCURVE",
"433 369 CURVE SMOOTH",
"371 369 OFFCURVE",
"285 312 OFFCURVE",
"191 208 CURVE",
"190 223 OFFCURVE",
"188 266 OFFCURVE",
"181 333 CURVE SMOOTH",
"179 356 OFFCURVE",
"164 485 OFFCURVE",
"161 530 CURVE",
"187 552 LINE",
"166 619 OFFCURVE",
"158 645 OFFCURVE",
"151 671 CURVE",
"104 660 OFFCURVE",
"85 636 OFFCURVE",
"85 592 CURVE SMOOTH",
"86 537 OFFCURVE",
"107 400 OFFCURVE",
"150 161 CURVE",
"128 134 OFFCURVE",
"107 106 OFFCURVE",
"86 77 CURVE",
"57 77 OFFCURVE",
"29 77 OFFCURVE",
"0 76 CURVE SMOOTH",
"-6 76 OFFCURVE",
"-8 73 OFFCURVE",
"-8 68 CURVE SMOOTH",
"-8 8 LINE SMOOTH",
"-8 3 OFFCURVE",
"-6 0 OFFCURVE",
"0 0 CURVE SMOOTH"
);
},
{
closed = 1;
nodes = (
"250 209 OFFCURVE",
"348 286 OFFCURVE",
"408 286 CURVE SMOOTH",
"467 286 OFFCURVE",
"524 246 OFFCURVE",
"563 179 CURVE",
"506 150 OFFCURVE",
"462 129 OFFCURVE",
"431 118 CURVE SMOOTH",
"369 95 OFFCURVE",
"274 83 OFFCURVE",
"142 78 CURVE"
);
}
);
width = 629;
},
{
anchors = (
{
name = bottom;
position = "{357, -58}";
},
{
name = top;
position = "{428, 510}";
}
);
layerId = "26E2967D-790C-4793-AF2A-2D0AD74EDC69";
paths = (
{
closed = 1;
nodes = (
"273 9 OFFCURVE",
"435 40 OFFCURVE",
"535 94 CURVE",
"581 41 OFFCURVE",
"648 9 OFFCURVE",
"714 9 CURVE SMOOTH",
"720 9 OFFCURVE",
"723 12 OFFCURVE",
"723 17 CURVE SMOOTH",
"723 119 LINE SMOOTH",
"723 125 OFFCURVE",
"720 127 OFFCURVE",
"714 127 CURVE SMOOTH",
"675 127 OFFCURVE",
"640 136 OFFCURVE",
"607 154 CURVE",
"630 185 OFFCURVE",
"642 218 OFFCURVE",
"642 254 CURVE SMOOTH",
"642 271 OFFCURVE",
"629 295 OFFCURVE",
"605 324 CURVE SMOOTH",
"557 382 OFFCURVE",
"493 417 OFFCURVE",
"438 417 CURVE SMOOTH",
"372 417 OFFCURVE",
"292 362 OFFCURVE",
"197 251 CURVE",
"195 286 OFFCURVE",
"192 320 OFFCURVE",
"189 355 CURVE SMOOTH",
"185 414 OFFCURVE",
"180 474 OFFCURVE",
"176 533 CURVE",
"208 557 LINE",
"193 594 OFFCURVE",
"180 635 OFFCURVE",
"167 680 CURVE",
"110 680 OFFCURVE",
"65 637 OFFCURVE",
"65 582 CURVE SMOOTH",
"65 560 OFFCURVE",
"79 496 OFFCURVE",
"144 185 CURVE",
"130 167 OFFCURVE",
"117 148 OFFCURVE",
"103 128 CURVE",
"69 128 OFFCURVE",
"34 128 OFFCURVE",
"0 127 CURVE SMOOTH",
"-6 127 OFFCURVE",
"-8 125 OFFCURVE",
"-8 119 CURVE SMOOTH",
"-8 17 LINE SMOOTH",
"-8 12 OFFCURVE",
"-6 9 OFFCURVE",
"0 9 CURVE SMOOTH"
);
},
{
closed = 1;
nodes = (
"275 240 OFFCURVE",
"353 295 OFFCURVE",
"414 295 CURVE SMOOTH",
"471 295 OFFCURVE",
"508 272 OFFCURVE",
"577 196 CURVE",
"450 160 OFFCURVE",
"409 152 OFFCURVE",
"358 143 CURVE SMOOTH",
"306 134 OFFCURVE",
"194 130 OFFCURVE",
"181 130 CURVE"
);
}
);
width = 706;
}
);
unicode = FEC4;
},
{
glyphname = uniFEC3;
lastChange = "2019-12-18 10:09:45 +0000";
layers = (
{
anchors = (
{
name = bottom;
position = "{357, -52}";
},
{
name = top;
position = "{421, 447}";
}
);
layerId = master01;
paths = (
{
closed = 1;
nodes = (
"139 0 OFFCURVE",
"253 9 OFFCURVE",
"342 26 CURVE SMOOTH",
"520 60 OFFCURVE",
"609 127 OFFCURVE",
"609 223 CURVE SMOOTH",
"609 241 OFFCURVE",
"598 263 OFFCURVE",
"577 287 CURVE SMOOTH",
"533 335 OFFCURVE",
"470 369 OFFCURVE",
"433 369 CURVE SMOOTH",
"371 369 OFFCURVE",
"285 312 OFFCURVE",
"191 208 CURVE",
"190 223 OFFCURVE",
"188 281 OFFCURVE",
"181 333 CURVE SMOOTH",
"177 362 OFFCURVE",
"163 500 OFFCURVE",
"161 530 CURVE",
"187 552 LINE",
"171 603 OFFCURVE",
"163 625 OFFCURVE",
"151 671 CURVE",
"104 660 OFFCURVE",
"85 636 OFFCURVE",
"85 592 CURVE SMOOTH",
"86 537 OFFCURVE",
"107 400 OFFCURVE",
"150 161 CURVE",
"128 134 OFFCURVE",
"107 106 OFFCURVE",
"86 77 CURVE",
"83 77 LINE",
"0 76 LINE SMOOTH",
"-6 76 OFFCURVE",
"-8 73 OFFCURVE",
"-8 68 CURVE SMOOTH",
"-8 8 LINE SMOOTH",
"-8 3 OFFCURVE",
"-6 0 OFFCURVE",
"0 0 CURVE SMOOTH"
);
},
{
closed = 1;
nodes = (
"250 209 OFFCURVE",
"348 286 OFFCURVE",
"408 286 CURVE SMOOTH",
"467 286 OFFCURVE",
"524 246 OFFCURVE",
"563 179 CURVE",
"506 150 OFFCURVE",
"462 129 OFFCURVE",
"431 118 CURVE SMOOTH",
"369 95 OFFCURVE",
"274 83 OFFCURVE",
"142 78 CURVE"
);
}
);
width = 660;
},
{
anchors = (
{
name = bottom;
position = "{357, -58}";
},
{
name = top;
position = "{428, 510}";
}
);
layerId = "26E2967D-790C-4793-AF2A-2D0AD74EDC69";
paths = (
{
closed = 1;
nodes = (
"153 9 OFFCURVE",
"276 19 OFFCURVE",
"369 38 CURVE SMOOTH",
"555 77 OFFCURVE",
"642 150 OFFCURVE",
"642 254 CURVE SMOOTH",
"642 271 OFFCURVE",
"629 295 OFFCURVE",
"605 324 CURVE SMOOTH",
"557 382 OFFCURVE",
"493 417 OFFCURVE",
"438 417 CURVE SMOOTH",
"372 417 OFFCURVE",
"292 362 OFFCURVE",
"197 251 CURVE",
"195 283 OFFCURVE",
"192 313 OFFCURVE",
"190 345 CURVE SMOOTH",
"185 407 OFFCURVE",
"181 470 OFFCURVE",
"176 533 CURVE",
"208 557 LINE",
"193 594 OFFCURVE",
"180 635 OFFCURVE",
"167 680 CURVE",
"110 680 OFFCURVE",
"65 637 OFFCURVE",
"65 582 CURVE SMOOTH",
"65 561 OFFCURVE",
"78 502 OFFCURVE",
"144 185 CURVE",
"130 167 OFFCURVE",
"117 148 OFFCURVE",
"103 128 CURVE",
"83 128 LINE",
"0 127 LINE SMOOTH",
"-6 127 OFFCURVE",
"-8 125 OFFCURVE",
"-8 119 CURVE SMOOTH",
"-8 17 LINE SMOOTH",
"-8 12 OFFCURVE",
"-6 9 OFFCURVE",
"0 9 CURVE SMOOTH"
);
},
{
closed = 1;
nodes = (
"275 240 OFFCURVE",
"353 295 OFFCURVE",
"414 295 CURVE SMOOTH",
"471 295 OFFCURVE",
"508 272 OFFCURVE",
"577 196 CURVE",
"450 160 OFFCURVE",
"409 152 OFFCURVE",
"358 143 CURVE SMOOTH",
"306 134 OFFCURVE",
"194 130 OFFCURVE",
"181 130 CURVE"
);
}
);
width = 693;
}
);
unicode = FEC3;
},
{
glyphname = uni0639;
lastChange = "2019-12-18 10:09:45 +0000";
layers = (
{
anchors = (
{
name = bottom;
position = "{353, -334}";
},
{
name = top;
position = "{224, 513}";
}
);
layerId = master01;
paths = (
{
closed = 1;
nodes = (
"451 -286 OFFCURVE",
"537 -260 OFFCURVE",
"629 -209 CURVE",
"618 -175 LINE",
"567 -187 OFFCURVE",
"520 -195 OFFCURVE",
"468 -199 CURVE SMOOTH",
"439 -202 OFFCURVE",
"408 -203 OFFCURVE",
"375 -203 CURVE SMOOTH",
"227 -203 OFFCURVE",
"150 -149 OFFCURVE",
"150 -54 CURVE SMOOTH",
"150 -25 OFFCURVE",
"159 2 OFFCURVE",
"175 29 CURVE SMOOTH",
"205 76 OFFCURVE",
"260 117 OFFCURVE",
"360 160 CURVE SMOOTH",
"395 173 OFFCURVE",
"425 186 OFFCURVE",
"444 200 CURVE SMOOTH",
"464 214 OFFCURVE",
"471 229 OFFCURVE",
"471 246 CURVE SMOOTH",
"471 257 OFFCURVE",
"467 267 OFFCURVE",
"460 277 CURVE",
"392 255 OFFCURVE",
"334 229 OFFCURVE",
"285 199 CURVE",
"187 215 OFFCURVE",
"130 269 OFFCURVE",
"130 348 CURVE",
"174 372 OFFCURVE",
"217 384 OFFCURVE",
"258 384 CURVE SMOOTH",
"282 384 OFFCURVE",
"313 378 OFFCURVE",
"353 366 CURVE",
"370 398 LINE",
"311 446 OFFCURVE",
"280 464 OFFCURVE",
"233 464 CURVE SMOOTH",
"206 464 OFFCURVE",
"180 455 OFFCURVE",
"156 435 CURVE SMOOTH",
"106 397 OFFCURVE",
"73 328 OFFCURVE",
"73 271 CURVE SMOOTH",
"73 249 OFFCURVE",
"78 229 OFFCURVE",
"90 210 CURVE SMOOTH",
"113 172 OFFCURVE",
"154 141 OFFCURVE",
"195 129 CURVE",
"141 71 OFFCURVE",
"114 5 OFFCURVE",
"114 -70 CURVE SMOOTH",
"114 -201 OFFCURVE",
"216 -286 OFFCURVE",
"372 -286 CURVE SMOOTH"
);
}
);
width = 604;
},
{
anchors = (
{
name = bottom;
position = "{367, -350}";
},
{
name = top;
position = "{239, 548}";
}
);
layerId = "26E2967D-790C-4793-AF2A-2D0AD74EDC69";
paths = (
{
closed = 1;
nodes = (
"408 -301 OFFCURVE",
"498 -263 OFFCURVE",
"613 -192 CURVE",
"600 -150 LINE",
"530 -166 OFFCURVE",
"481 -176 OFFCURVE",
"453 -180 CURVE SMOOTH",
"424 -184 OFFCURVE",
"396 -186 OFFCURVE",
"369 -186 CURVE SMOOTH",
"236 -186 OFFCURVE",
"164 -141 OFFCURVE",
"164 -65 CURVE SMOOTH",
"164 -41 OFFCURVE",
"171 -17 OFFCURVE",
"185 5 CURVE SMOOTH",
"213 49 OFFCURVE",
"263 82 OFFCURVE",
"379 128 CURVE SMOOTH",
"415 143 OFFCURVE",
"439 154 OFFCURVE",
"450 162 CURVE SMOOTH",
"475 179 OFFCURVE",
"486 201 OFFCURVE",
"486 229 CURVE SMOOTH",
"486 253 OFFCURVE",
"482 270 OFFCURVE",
"475 280 CURVE",
"403 256 OFFCURVE",
"339 227 OFFCURVE",
"281 193 CURVE",
"205 211 OFFCURVE",
"158 261 OFFCURVE",
"154 333 CURVE",
"197 356 OFFCURVE",
"229 365 OFFCURVE",
"276 365 CURVE SMOOTH",
"306 365 OFFCURVE",
"341 358 OFFCURVE",
"381 342 CURVE",
"402 382 LINE",
"347 444 OFFCURVE",
"296 475 OFFCURVE",
"250 475 CURVE SMOOTH",
"223 475 OFFCURVE",
"197 465 OFFCURVE",
"172 444 CURVE SMOOTH",
"121 402 OFFCURVE",
"83 321 OFFCURVE",
"83 261 CURVE SMOOTH",
"83 244 OFFCURVE",
"87 227 OFFCURVE",
"95 209 CURVE SMOOTH",
"111 173 OFFCURVE",
"145 138 OFFCURVE",
"188 118 CURVE",
"138 64 OFFCURVE",
"113 1 OFFCURVE",
"113 -71 CURVE SMOOTH",
"113 -212 OFFCURVE",
"210 -301 OFFCURVE",
"367 -301 CURVE SMOOTH"
);
}
);
width = 604;
}
);
unicode = "0639,FEC9";
},
{
glyphname = uniFECA;
lastChange = "2019-12-18 10:09:45 +0000";
layers = (
{
anchors = (
{
name = bottom;
position = "{298, -334}";
},
{
name = top;
position = "{247, 423}";
}
);
layerId = master01;
paths = (
{
closed = 1;
nodes = (
"393 -286 OFFCURVE",
"443 -268 OFFCURVE",
"542 -207 CURVE",
"527 -173 LINE",
"432 -202 OFFCURVE",
"405 -206 OFFCURVE",
"341 -206 CURVE SMOOTH",
"204 -206 OFFCURVE",
"145 -169 OFFCURVE",
"145 -93 CURVE SMOOTH",
"145 -36 OFFCURVE",
"177 5 OFFCURVE",
"254 57 CURVE",
"317 12 OFFCURVE",
"369 0 OFFCURVE",
"483 0 CURVE SMOOTH",
"490 0 OFFCURVE",
"493 3 OFFCURVE",
"493 9 CURVE SMOOTH",
"493 67 LINE SMOOTH",
"493 73 OFFCURVE",
"490 76 OFFCURVE",
"483 76 CURVE SMOOTH",
"399 76 OFFCURVE",
"354 81 OFFCURVE",
"316 97 CURVE",
"385 145 OFFCURVE",
"414 192 OFFCURVE",
"414 249 CURVE SMOOTH",
"414 320 OFFCURVE",
"350 374 OFFCURVE",
"264 374 CURVE SMOOTH",
"237 374 OFFCURVE",
"210 370 OFFCURVE",
"183 362 CURVE SMOOTH",
"128 346 OFFCURVE",
"68 315 OFFCURVE",
"68 268 CURVE SMOOTH",
"68 251 OFFCURVE",
"75 236 OFFCURVE",
"87 223 CURVE",
"103 233 LINE",
"113 225 OFFCURVE",
"125 213 OFFCURVE",
"136 199 CURVE SMOOTH",
"148 186 OFFCURVE",
"167 160 OFFCURVE",
"193 123 CURVE SMOOTH",
"200 112 OFFCURVE",
"209 102 OFFCURVE",
"218 92 CURVE",
"136 23 OFFCURVE",
"109 -17 OFFCURVE",
"109 -94 CURVE SMOOTH",
"109 -128 OFFCURVE",
"117 -159 OFFCURVE",
"132 -185 CURVE SMOOTH",
"166 -248 OFFCURVE",
"238 -286 OFFCURVE",
"332 -286 CURVE SMOOTH"
);
},
{
closed = 1;
nodes = (
"245 159 LINE SMOOTH",
"219 191 OFFCURVE",
"200 213 OFFCURVE",
"186 228 CURVE SMOOTH",
"173 242 OFFCURVE",
"160 253 OFFCURVE",
"149 262 CURVE",
"186 282 OFFCURVE",
"225 292 OFFCURVE",
"267 292 CURVE SMOOTH",
"312 292 OFFCURVE",
"342 265 OFFCURVE",
"342 228 CURVE SMOOTH",
"342 214 OFFCURVE",
"337 200 OFFCURVE",
"327 186 CURVE SMOOTH",
"317 172 OFFCURVE",
"298 153 OFFCURVE",
"270 131 CURVE"
);
}
);
width = 477;
},
{
anchors = (
{
name = bottom;
position = "{318, -350}";
},
{
name = top;
position = "{267, 490}";
}
);
layerId = "26E2967D-790C-4793-AF2A-2D0AD74EDC69";
paths = (
{
closed = 1;
nodes = (
"401 -301 OFFCURVE",
"452 -275 OFFCURVE",
"574 -202 CURVE",
"561 -159 LINE",
"481 -177 OFFCURVE",
"415 -186 OFFCURVE",
"363 -186 CURVE SMOOTH",
"231 -186 OFFCURVE",
"160 -145 OFFCURVE",
"160 -72 CURVE SMOOTH",
"160 -22 OFFCURVE",
"196 27 OFFCURVE",
"270 74 CURVE",
"326 27 OFFCURVE",
"393 9 OFFCURVE",
"483 9 CURVE SMOOTH",
"490 9 OFFCURVE",
"494 12 OFFCURVE",
"494 18 CURVE SMOOTH",
"494 118 LINE SMOOTH",
"494 124 OFFCURVE",
"490 127 OFFCURVE",
"483 127 CURVE SMOOTH",
"432 127 OFFCURVE",
"394 129 OFFCURVE",
"363 134 CURVE",
"418 179 OFFCURVE",
"446 226 OFFCURVE",
"446 275 CURVE SMOOTH",
"446 352 OFFCURVE",
"369 417 OFFCURVE",
"280 417 CURVE SMOOTH",
"248 417 OFFCURVE",
"215 411 OFFCURVE",
"180 398 CURVE SMOOTH",
"110 374 OFFCURVE",
"69 341 OFFCURVE",
"69 296 CURVE SMOOTH",
"69 272 OFFCURVE",
"78 251 OFFCURVE",
"95 232 CURVE",
"114 245 LINE",
"125 235 OFFCURVE",
"136 225 OFFCURVE",
"148 214 CURVE SMOOTH",
"170 191 OFFCURVE",
"193 163 OFFCURVE",
"208 144 CURVE SMOOTH",
"215 134 OFFCURVE",
"222 125 OFFCURVE",
"224 122 CURVE",
"143 57 OFFCURVE",
"108 -11 OFFCURVE",
"108 -92 CURVE SMOOTH",
"108 -133 OFFCURVE",
"119 -170 OFFCURVE",
"140 -202 CURVE SMOOTH",
"183 -265 OFFCURVE",
"264 -301 OFFCURVE",
"367 -301 CURVE SMOOTH"
);
},
{
closed = 1;
nodes = (
"264 195 LINE SMOOTH",
"243 219 OFFCURVE",
"224 240 OFFCURVE",
"207 256 CURVE SMOOTH",
"196 266 OFFCURVE",
"187 274 OFFCURVE",
"178 282 CURVE",
"221 301 OFFCURVE",
"249 306 OFFCURVE",
"283 306 CURVE SMOOTH",
"318 306 OFFCURVE",
"346 286 OFFCURVE",
"346 252 CURVE SMOOTH",
"346 239 OFFCURVE",
"343 228 OFFCURVE",
"336 216 CURVE SMOOTH",
"327 201 OFFCURVE",
"312 186 OFFCURVE",
"289 169 CURVE"
);
}
);
width = 477;
}
);
unicode = FECA;
},
{
glyphname = uniFECC;
lastChange = "2019-12-18 10:09:45 +0000";
layers = (
{
anchors = (
{
name = bottom;
position = "{221, -52}";
},
{
name = top;
position = "{211, 423}";
}
);
layerId = master01;
paths = (
{
closed = 1;
nodes = (
"82 0 OFFCURVE",
"146 17 OFFCURVE",
"219 54 CURVE",
"271 17 OFFCURVE",
"330 0 OFFCURVE",
"421 0 CURVE SMOOTH",
"427 0 OFFCURVE",
"431 3 OFFCURVE",
"431 9 CURVE SMOOTH",
"431 67 LINE SMOOTH",
"431 73 OFFCURVE",
"427 76 OFFCURVE",
"421 76 CURVE SMOOTH",
"359 76 OFFCURVE",
"314 82 OFFCURVE",
"286 94 CURVE",
"339 137 OFFCURVE",
"375 186 OFFCURVE",
"375 249 CURVE SMOOTH",
"375 273 OFFCURVE",
"368 295 OFFCURVE",
"355 313 CURVE SMOOTH",
"330 350 OFFCURVE",
"283 374 OFFCURVE",
"226 374 CURVE SMOOTH",
"197 374 OFFCURVE",
"169 370 OFFCURVE",
"141 361 CURVE SMOOTH",
"86 344 OFFCURVE",
"30 314 OFFCURVE",
"30 267 CURVE SMOOTH",
"30 250 OFFCURVE",
"36 236 OFFCURVE",
"48 223 CURVE",
"64 233 LINE",
"74 226 OFFCURVE",
"85 215 OFFCURVE",
"97 200 CURVE SMOOTH",
"109 187 OFFCURVE",
"128 161 OFFCURVE",
"154 123 CURVE",
"172 100 LINE",
"127 84 OFFCURVE",
"70 76 OFFCURVE",
"1 76 CURVE SMOOTH",
"-5 76 OFFCURVE",
"-8 73 OFFCURVE",
"-8 67 CURVE SMOOTH",
"-8 9 LINE SMOOTH",
"-8 3 OFFCURVE",
"-5 0 OFFCURVE",
"1 0 CURVE SMOOTH"
);
},
{
closed = 1;
nodes = (
"222 141 OFFCURVE",
"214 150 OFFCURVE",
"207 159 CURVE SMOOTH",
"167 209 OFFCURVE",
"135 243 OFFCURVE",
"111 262 CURVE",
"149 282 OFFCURVE",
"188 292 OFFCURVE",
"229 292 CURVE SMOOTH",
"273 292 OFFCURVE",
"304 265 OFFCURVE",
"304 228 CURVE SMOOTH",
"304 197 OFFCURVE",
"276 162 OFFCURVE",
"231 132 CURVE"
);
}
);
width = 414;
},
{
anchors = (
{
name = bottom;
position = "{230, -58}";
},
{
name = top;
position = "{226, 490}";
}
);
layerId = "26E2967D-790C-4793-AF2A-2D0AD74EDC69";
paths = (
{
closed = 1;
nodes = (
"88 9 OFFCURVE",
"167 29 OFFCURVE",
"239 70 CURVE",
"284 31 OFFCURVE",
"361 9 OFFCURVE",
"455 9 CURVE SMOOTH",
"462 9 OFFCURVE",
"465 12 OFFCURVE",
"465 18 CURVE SMOOTH",
"465 118 LINE SMOOTH",
"465 124 OFFCURVE",
"462 127 OFFCURVE",
"455 127 CURVE SMOOTH",
"407 127 OFFCURVE",
"367 129 OFFCURVE",
"331 134 CURVE",
"381 180 OFFCURVE",
"409 227 OFFCURVE",
"409 275 CURVE SMOOTH",
"409 300 OFFCURVE",
"401 323 OFFCURVE",
"386 345 CURVE SMOOTH",
"356 390 OFFCURVE",
"300 417 OFFCURVE",
"242 417 CURVE SMOOTH",
"211 417 OFFCURVE",
"177 411 OFFCURVE",
"143 399 CURVE SMOOTH",
"73 374 OFFCURVE",
"31 341 OFFCURVE",
"31 296 CURVE SMOOTH",
"31 272 OFFCURVE",
"40 251 OFFCURVE",
"58 232 CURVE",
"76 245 LINE",
"86 236 OFFCURVE",
"97 227 OFFCURVE",
"108 216 CURVE SMOOTH",
"122 202 OFFCURVE",
"137 186 OFFCURVE",
"156 161 CURVE",
"176 136 LINE",
"130 128 OFFCURVE",
"71 127 OFFCURVE",
"1 127 CURVE SMOOTH",
"-5 127 OFFCURVE",
"-8 124 OFFCURVE",
"-8 118 CURVE SMOOTH",
"-8 18 LINE SMOOTH",
"-8 12 OFFCURVE",
"-5 9 OFFCURVE",
"1 9 CURVE SMOOTH"
);
},
{
closed = 1;
nodes = (
"245 176 OFFCURVE",
"236 186 OFFCURVE",
"228 195 CURVE SMOOTH",
"186 240 OFFCURVE",
"156 269 OFFCURVE",
"141 282 CURVE",
"184 301 OFFCURVE",
"211 306 OFFCURVE",
"246 306 CURVE SMOOTH",
"282 306 OFFCURVE",
"309 285 OFFCURVE",
"309 252 CURVE SMOOTH",
"309 220 OFFCURVE",
"289 189 OFFCURVE",
"254 166 CURVE"
);
}
);
width = 448;
}
);
unicode = FECC;
},
{
glyphname = uniFECB;
lastChange = "2019-12-18 10:09:45 +0000";
layers = (
{
anchors = (
{
name = bottom;
position = "{278, -52}";
},
{
name = top;
position = "{214, 423}";
}
);
layerId = master01;
paths = (
{
closed = 1;
nodes = (
"137 0 OFFCURVE",
"248 16 OFFCURVE",
"386 51 CURVE SMOOTH",
"419 59 OFFCURVE",
"451 67 OFFCURVE",
"457 70 CURVE SMOOTH",
"472 79 OFFCURVE",
"479 92 OFFCURVE",
"479 116 CURVE SMOOTH",
"479 131 OFFCURVE",
"475 144 OFFCURVE",
"466 152 CURVE",
"382 119 OFFCURVE",
"347 108 OFFCURVE",
"296 98 CURVE",
"260 100 OFFCURVE",
"229 108 OFFCURVE",
"203 122 CURVE SMOOTH",
"150 151 OFFCURVE",
"122 200 OFFCURVE",
"122 257 CURVE",
"166 282 OFFCURVE",
"209 294 OFFCURVE",
"250 294 CURVE SMOOTH",
"279 294 OFFCURVE",
"294 291 OFFCURVE",
"347 271 CURVE",
"365 303 LINE",
"309 352 OFFCURVE",
"271 374 OFFCURVE",
"225 374 CURVE SMOOTH",
"198 374 OFFCURVE",
"172 364 OFFCURVE",
"148 345 CURVE SMOOTH",
"99 307 OFFCURVE",
"65 237 OFFCURVE",
"65 180 CURVE SMOOTH",
"65 139 OFFCURVE",
"93 100 OFFCURVE",
"125 79 CURVE",
"84 77 OFFCURVE",
"43 76 OFFCURVE",
"0 76 CURVE SMOOTH",
"-6 76 OFFCURVE",
"-8 73 OFFCURVE",
"-8 68 CURVE SMOOTH",
"-8 8 LINE SMOOTH",
"-8 3 OFFCURVE",
"-6 0 OFFCURVE",
"0 0 CURVE SMOOTH"
);
}
);
width = 505;
},
{
anchors = (
{
name = bottom;
position = "{273, -58}";
},
{
name = top;
position = "{209, 476}";
}
);
layerId = "26E2967D-790C-4793-AF2A-2D0AD74EDC69";
paths = (
{
closed = 1;
nodes = (
"146 9 OFFCURVE",
"250 17 OFFCURVE",
"353 39 CURVE SMOOTH",
"404 49 OFFCURVE",
"437 58 OFFCURVE",
"449 64 CURVE SMOOTH",
"475 77 OFFCURVE",
"491 106 OFFCURVE",
"491 138 CURVE SMOOTH",
"491 154 OFFCURVE",
"486 177 OFFCURVE",
"475 187 CURVE",
"391 153 OFFCURVE",
"314 137 OFFCURVE",
"209 131 CURVE",
"201 135 OFFCURVE",
"193 140 OFFCURVE",
"186 145 CURVE SMOOTH",
"149 172 OFFCURVE",
"131 212 OFFCURVE",
"128 261 CURVE",
"169 283 OFFCURVE",
"203 293 OFFCURVE",
"250 293 CURVE SMOOTH",
"279 293 OFFCURVE",
"314 286 OFFCURVE",
"355 270 CURVE",
"376 311 LINE",
"321 372 OFFCURVE",
"271 403 OFFCURVE",
"225 403 CURVE SMOOTH",
"199 403 OFFCURVE",
"173 393 OFFCURVE",
"148 373 CURVE SMOOTH",
"97 333 OFFCURVE",
"57 251 OFFCURVE",
"57 189 CURVE SMOOTH",
"57 168 OFFCURVE",
"64 147 OFFCURVE",
"78 127 CURVE",
"52 127 OFFCURVE",
"26 127 OFFCURVE",
"0 127 CURVE SMOOTH",
"-6 127 OFFCURVE",
"-8 125 OFFCURVE",
"-8 119 CURVE SMOOTH",
"-8 17 LINE SMOOTH",
"-8 12 OFFCURVE",
"-6 9 OFFCURVE",
"0 9 CURVE SMOOTH"
);
}
);
width = 517;
}
);
unicode = FECB;
},
{
glyphname = uni06A1.fina;
lastChange = "2019-12-18 10:09:45 +0000";
layers = (
{
anchors = (
{
name = bottom;
position = "{619, -52}";
},
{
name = top;
position = "{620, 440}";
}
);
layerId = master01;
paths = (
{
closed = 1;
nodes = (
"446 0 OFFCURVE",
"555 16 OFFCURVE",
"621 40 CURVE",
"675 13 OFFCURVE",
"744 0 OFFCURVE",
"826 0 CURVE SMOOTH",
"832 0 OFFCURVE",
"834 3 OFFCURVE",
"834 8 CURVE SMOOTH",
"834 68 LINE SMOOTH",
"834 73 OFFCURVE",
"832 76 OFFCURVE",
"826 76 CURVE SMOOTH",
"784 76 OFFCURVE",
"743 80 OFFCURVE",
"704 87 CURVE",
"743 121 OFFCURVE",
"762 163 OFFCURVE",
"762 211 CURVE SMOOTH",
"762 240 OFFCURVE",
"757 268 OFFCURVE",
"747 297 CURVE SMOOTH",
"727 353 OFFCURVE",
"692 391 OFFCURVE",
"657 391 CURVE SMOOTH",
"592 391 OFFCURVE",
"534 351 OFFCURVE",
"499 287 CURVE SMOOTH",
"491 273 OFFCURVE",
"481 212 OFFCURVE",
"481 183 CURVE SMOOTH",
"481 153 OFFCURVE",
"496 119 OFFCURVE",
"521 93 CURVE",
"465 82 OFFCURVE",
"406 76 OFFCURVE",
"342 76 CURVE SMOOTH",
"287 76 OFFCURVE",
"243 82 OFFCURVE",
"209 92 CURVE SMOOTH",
"142 114 OFFCURVE",
"114 150 OFFCURVE",
"114 231 CURVE SMOOTH",
"114 247 OFFCURVE",
"115 264 OFFCURVE",
"118 280 CURVE",
"82 280 LINE",
"72 248 OFFCURVE",
"68 212 OFFCURVE",
"68 170 CURVE SMOOTH",
"68 57 OFFCURVE",
"152 0 OFFCURVE",
"320 0 CURVE SMOOTH"
);
},
{
closed = 1;
nodes = (
"576 136 OFFCURVE",
"546 161 OFFCURVE",
"519 192 CURVE",
"550 253 OFFCURVE",
"610 306 OFFCURVE",
"648 306 CURVE SMOOTH",
"655 306 OFFCURVE",
"665 299 OFFCURVE",
"677 284 CURVE SMOOTH",
"701 256 OFFCURVE",
"719 214 OFFCURVE",
"723 181 CURVE",
"695 157 OFFCURVE",
"658 137 OFFCURVE",
"611 119 CURVE"
);
}
);
width = 817;
},
{
anchors = (
{
name = bottom;
position = "{619, -52}";
},
{
name = top;
position = "{620, 450}";
}
);
layerId = "26E2967D-790C-4793-AF2A-2D0AD74EDC69";
paths = (
{
closed = 1;
nodes = (
"422 0 OFFCURVE",
"544 19 OFFCURVE",
"615 44 CURVE",
"671 21 OFFCURVE",
"744 9 OFFCURVE",
"834 9 CURVE SMOOTH",
"840 9 OFFCURVE",
"843 12 OFFCURVE",
"843 17 CURVE SMOOTH",
"843 119 LINE SMOOTH",
"843 125 OFFCURVE",
"840 127 OFFCURVE",
"834 127 CURVE SMOOTH",
"804 128 OFFCURVE",
"773 128 OFFCURVE",
"742 128 CURVE",
"762 155 OFFCURVE",
"772 180 OFFCURVE",
"772 204 CURVE SMOOTH",
"772 233 OFFCURVE",
"766 263 OFFCURVE",
"754 294 CURVE SMOOTH",
"731 357 OFFCURVE",
"692 400 OFFCURVE",
"655 400 CURVE SMOOTH",
"595 400 OFFCURVE",
"524 347 OFFCURVE",
"488 279 CURVE SMOOTH",
"479 263 OFFCURVE",
"470 209 OFFCURVE",
"470 174 CURVE SMOOTH",
"470 158 OFFCURVE",
"476 142 OFFCURVE",
"488 125 CURVE",
"401 118 OFFCURVE",
"378 118 OFFCURVE",
"343 118 CURVE SMOOTH",
"291 118 OFFCURVE",
"249 124 OFFCURVE",
"217 135 CURVE SMOOTH",
"154 156 OFFCURVE",
"124 195 OFFCURVE",
"124 273 CURVE SMOOTH",
"124 288 OFFCURVE",
"125 305 OFFCURVE",
"127 323 CURVE",
"83 323 LINE",
"69 277 OFFCURVE",
"63 241 OFFCURVE",
"63 213 CURVE SMOOTH",
"63 75 OFFCURVE",
"145 0 OFFCURVE",
"307 0 CURVE SMOOTH"
);
},
{
closed = 1;
nodes = (
"585 134 OFFCURVE",
"549 156 OFFCURVE",
"524 184 CURVE",
"569 246 OFFCURVE",
"609 277 OFFCURVE",
"645 277 CURVE SMOOTH",
"652 277 OFFCURVE",
"662 271 OFFCURVE",
"671 260 CURVE SMOOTH",
"688 241 OFFCURVE",
"706 208 OFFCURVE",
"715 173 CURVE",
"691 151 OFFCURVE",
"658 135 OFFCURVE",
"617 124 CURVE"
);
}
);
width = 832;
}
);
},
{
glyphname = uni066F;
lastChange = "2019-12-18 10:09:45 +0000";
layers = (
{
anchors = (
{
name = bottom;
position = "{291, -311}";
},
{
name = top;
position = "{394, 389}";
}
);
layerId = master01;
paths = (
{
closed = 1;
nodes = (
"344 -262 OFFCURVE",
"436 -226 OFFCURVE",
"499 -171 CURVE SMOOTH",
"562 -116 OFFCURVE",
"596 -43 OFFCURVE",
"596 41 CURVE SMOOTH",
"596 92 OFFCURVE",
"588 141 OFFCURVE",
"572 186 CURVE SMOOTH",
"539 278 OFFCURVE",
"476 340 OFFCURVE",
"413 340 CURVE SMOOTH",
"391 340 OFFCURVE",
"368 330 OFFCURVE",
"346 310 CURVE SMOOTH",
"302 269 OFFCURVE",
"272 197 OFFCURVE",
"272 129 CURVE SMOOTH",
"272 51 OFFCURVE",
"321 0 OFFCURVE",
"397 0 CURVE SMOOTH",
"448 0 OFFCURVE",
"491 20 OFFCURVE",
"534 60 CURVE",
"540 28 OFFCURVE",
"544 -9 OFFCURVE",
"545 -51 CURVE",
"529 -76 OFFCURVE",
"506 -99 OFFCURVE",
"476 -118 CURVE SMOOTH",
"417 -157 OFFCURVE",
"338 -179 OFFCURVE",
"269 -179 CURVE SMOOTH",
"168 -179 OFFCURVE",
"113 -125 OFFCURVE",
"113 -24 CURVE SMOOTH",
"113 -6 OFFCURVE",
"117 18 OFFCURVE",
"124 47 CURVE",
"87 56 LINE",
"71 -10 OFFCURVE",
"68 -35 OFFCURVE",
"68 -74 CURVE SMOOTH",
"68 -193 OFFCURVE",
"141 -262 OFFCURVE",
"266 -262 CURVE SMOOTH"
);
},
{
closed = 1;
nodes = (
"351 82 OFFCURVE",
"311 109 OFFCURVE",
"311 157 CURVE SMOOTH",
"311 170 OFFCURVE",
"315 185 OFFCURVE",
"323 200 CURVE SMOOTH",
"341 231 OFFCURVE",
"370 255 OFFCURVE",
"397 255 CURVE SMOOTH",
"412 255 OFFCURVE",
"427 249 OFFCURVE",
"444 237 CURVE SMOOTH",
"476 214 OFFCURVE",
"505 164 OFFCURVE",
"523 105 CURVE",
"489 89 OFFCURVE",
"455 82 OFFCURVE",
"421 82 CURVE SMOOTH"
);
}
);
width = 647;
},
{
anchors = (
{
name = bottom;
position = "{251, -301}";
},
{
name = top;
position = "{398, 439}";
}
);
layerId = "26E2967D-790C-4793-AF2A-2D0AD74EDC69";
paths = (
{
closed = 1;
nodes = (
"334 -252 OFFCURVE",
"434 -216 OFFCURVE",
"499 -162 CURVE SMOOTH",
"564 -108 OFFCURVE",
"601 -35 OFFCURVE",
"601 50 CURVE SMOOTH",
"601 109 OFFCURVE",
"593 162 OFFCURVE",
"576 211 CURVE SMOOTH",
"542 308 OFFCURVE",
"478 366 OFFCURVE",
"411 366 CURVE SMOOTH",
"386 366 OFFCURVE",
"363 355 OFFCURVE",
"340 333 CURVE SMOOTH",
"294 290 OFFCURVE",
"264 213 OFFCURVE",
"264 138 CURVE SMOOTH",
"264 50 OFFCURVE",
"311 0 OFFCURVE",
"394 0 CURVE SMOOTH",
"437 0 OFFCURVE",
"479 20 OFFCURVE",
"521 61 CURVE",
"528 31 OFFCURVE",
"532 0 OFFCURVE",
"535 -31 CURVE",
"512 -49 OFFCURVE",
"488 -64 OFFCURVE",
"465 -77 CURVE SMOOTH",
"396 -115 OFFCURVE",
"327 -134 OFFCURVE",
"263 -134 CURVE SMOOTH",
"170 -134 OFFCURVE",
"123 -86 OFFCURVE",
"123 7 CURVE SMOOTH",
"123 30 OFFCURVE",
"128 57 OFFCURVE",
"137 87 CURVE",
"93 98 LINE",
"76 35 OFFCURVE",
"68 -13 OFFCURVE",
"68 -47 CURVE SMOOTH",
"68 -180 OFFCURVE",
"132 -252 OFFCURVE",
"251 -252 CURVE SMOOTH"
);
},
{
closed = 1;
nodes = (
"353 110 OFFCURVE",
"318 131 OFFCURVE",
"318 171 CURVE SMOOTH",
"318 184 OFFCURVE",
"321 195 OFFCURVE",
"326 206 CURVE SMOOTH",
"338 229 OFFCURVE",
"363 246 OFFCURVE",
"393 246 CURVE SMOOTH",
"406 246 OFFCURVE",
"419 242 OFFCURVE",
"432 234 CURVE SMOOTH",
"459 217 OFFCURVE",
"483 181 OFFCURVE",
"503 125 CURVE",
"472 115 OFFCURVE",
"442 110 OFFCURVE",
"414 110 CURVE SMOOTH"
);
}
);
width = 652;
}
);
unicode = 066F;
},
{
glyphname = uni066F.fina;
lastChange = "2019-12-18 10:09:45 +0000";
layers = (
{
anchors = (
{
name = bottom;
position = "{291, -311}";
},
{
name = top;
position = "{374, 397}";
}
);
layerId = master01;
paths = (
{
closed = 1;
nodes = (
"315 -262 OFFCURVE",
"364 -250 OFFCURVE",
"414 -227 CURVE SMOOTH",
"514 -180 OFFCURVE",
"580 -99 OFFCURVE",
"594 0 CURVE",
"650 0 LINE SMOOTH",
"656 0 OFFCURVE",
"659 3 OFFCURVE",
"659 8 CURVE SMOOTH",
"659 68 LINE SMOOTH",
"659 73 OFFCURVE",
"656 76 OFFCURVE",
"650 76 CURVE SMOOTH",
"595 76 LINE",
"591 122 OFFCURVE",
"580 166 OFFCURVE",
"562 208 CURVE SMOOTH",
"527 293 OFFCURVE",
"470 348 OFFCURVE",
"413 348 CURVE SMOOTH",
"391 348 OFFCURVE",
"368 338 OFFCURVE",
"346 318 CURVE SMOOTH",
"302 278 OFFCURVE",
"272 205 OFFCURVE",
"272 137 CURVE SMOOTH",
"272 84 OFFCURVE",
"291 51 OFFCURVE",
"334 30 CURVE SMOOTH",
"378 9 OFFCURVE",
"472 1 OFFCURVE",
"542 1 CURVE",
"545 -51 LINE",
"492 -130 OFFCURVE",
"386 -179 OFFCURVE",
"269 -179 CURVE SMOOTH",
"168 -179 OFFCURVE",
"113 -125 OFFCURVE",
"113 -24 CURVE SMOOTH",
"113 -6 OFFCURVE",
"117 18 OFFCURVE",
"124 47 CURVE",
"87 56 LINE",
"71 -10 OFFCURVE",
"68 -35 OFFCURVE",
"68 -74 CURVE SMOOTH",
"68 -193 OFFCURVE",
"141 -262 OFFCURVE",
"266 -262 CURVE SMOOTH"
);
},
{
closed = 1;
nodes = (
"472 79 OFFCURVE",
"431 82 OFFCURVE",
"409 87 CURVE SMOOTH",
"386 91 OFFCURVE",
"367 97 OFFCURVE",
"352 104 CURVE SMOOTH",
"322 119 OFFCURVE",
"311 138 OFFCURVE",
"311 166 CURVE SMOOTH",
"311 179 OFFCURVE",
"315 193 OFFCURVE",
"323 208 CURVE SMOOTH",
"340 239 OFFCURVE",
"370 263 OFFCURVE",
"397 263 CURVE SMOOTH",
"449 263 OFFCURVE",
"499 201 OFFCURVE",
"529 78 CURVE"
);
}
);
width = 642;
},
{
anchors = (
{
name = bottom;
position = "{276, -301}";
},
{
name = top;
position = "{403, 460}";
}
);
layerId = "26E2967D-790C-4793-AF2A-2D0AD74EDC69";
paths = (
{
closed = 1;
nodes = (
"303 -252 OFFCURVE",
"355 -240 OFFCURVE",
"408 -215 CURVE SMOOTH",
"514 -166 OFFCURVE",
"577 -85 OFFCURVE",
"589 9 CURVE",
"641 9 LINE SMOOTH",
"646 9 OFFCURVE",
"649 12 OFFCURVE",
"649 17 CURVE SMOOTH",
"649 119 LINE SMOOTH",
"649 125 OFFCURVE",
"646 127 OFFCURVE",
"641 127 CURVE SMOOTH",
"586 127 LINE",
"580 168 OFFCURVE",
"569 206 OFFCURVE",
"556 239 CURVE SMOOTH",
"521 329 OFFCURVE",
"465 387 OFFCURVE",
"409 387 CURVE SMOOTH",
"385 387 OFFCURVE",
"362 376 OFFCURVE",
"340 354 CURVE SMOOTH",
"294 310 OFFCURVE",
"264 232 OFFCURVE",
"264 159 CURVE SMOOTH",
"264 87 OFFCURVE",
"286 51 OFFCURVE",
"357 29 CURVE SMOOTH",
"387 19 OFFCURVE",
"440 13 OFFCURVE",
"521 10 CURVE",
"526 -31 LINE",
"437 -100 OFFCURVE",
"349 -134 OFFCURVE",
"263 -134 CURVE SMOOTH",
"170 -134 OFFCURVE",
"123 -86 OFFCURVE",
"123 7 CURVE SMOOTH",
"123 30 OFFCURVE",
"128 57 OFFCURVE",
"137 87 CURVE",
"93 98 LINE",
"76 35 OFFCURVE",
"68 -13 OFFCURVE",
"68 -47 CURVE SMOOTH",
"68 -180 OFFCURVE",
"132 -252 OFFCURVE",
"251 -252 CURVE SMOOTH"
);
},
{
closed = 1;
nodes = (
"456 130 OFFCURVE",
"431 132 OFFCURVE",
"415 134 CURVE SMOOTH",
"384 138 OFFCURVE",
"361 145 OFFCURVE",
"345 155 CURVE SMOOTH",
"326 167 OFFCURVE",
"316 182 OFFCURVE",
"316 202 CURVE SMOOTH",
"316 212 OFFCURVE",
"319 223 OFFCURVE",
"325 232 CURVE SMOOTH",
"337 252 OFFCURVE",
"360 268 OFFCURVE",
"387 268 CURVE SMOOTH",
"432 268 OFFCURVE",
"468 221 OFFCURVE",
"496 128 CURVE"
);
}
);
width = 632;
}
);
},
{
glyphname = uni066F.medi;
lastChange = "2019-12-18 10:09:45 +0000";
layers = (
{
anchors = (
{
name = bottom;
position = "{194, -52}";
},
{
name = top;
position = "{200, 423}";
}
);
layerId = master01;
paths = (
{
closed = 1;
nodes = (
"86 0 OFFCURVE",
"144 9 OFFCURVE",
"190 32 CURVE",
"246 10 OFFCURVE",
"312 0 OFFCURVE",
"395 0 CURVE SMOOTH",
"401 0 OFFCURVE",
"404 3 OFFCURVE",
"404 8 CURVE SMOOTH",
"404 68 LINE SMOOTH",
"404 73 OFFCURVE",
"401 76 OFFCURVE",
"395 76 CURVE SMOOTH",
"345 76 OFFCURVE",
"309 78 OFFCURVE",
"288 81 CURVE",
"316 114 OFFCURVE",
"331 152 OFFCURVE",
"331 195 CURVE SMOOTH",
"331 223 OFFCURVE",
"326 252 OFFCURVE",
"315 281 CURVE SMOOTH",
"295 338 OFFCURVE",
"261 374 OFFCURVE",
"226 374 CURVE SMOOTH",
"162 374 OFFCURVE",
"102 333 OFFCURVE",
"68 270 CURVE SMOOTH",
"60 256 OFFCURVE",
"50 200 OFFCURVE",
"50 166 CURVE SMOOTH",
"50 137 OFFCURVE",
"62 108 OFFCURVE",
"87 80 CURVE",
"66 77 OFFCURVE",
"38 76 OFFCURVE",
"1 76 CURVE SMOOTH",
"-5 76 OFFCURVE",
"-8 73 OFFCURVE",
"-8 67 CURVE SMOOTH",
"-8 9 LINE SMOOTH",
"-8 3 OFFCURVE",
"-5 0 OFFCURVE",
"1 0 CURVE SMOOTH"
);
},
{
closed = 1;
nodes = (
"149 119 OFFCURVE",
"115 143 OFFCURVE",
"87 175 CURVE",
"119 237 OFFCURVE",
"179 289 OFFCURVE",
"217 289 CURVE SMOOTH",
"224 289 OFFCURVE",
"233 282 OFFCURVE",
"245 269 CURVE SMOOTH",
"267 242 OFFCURVE",
"288 197 OFFCURVE",
"292 164 CURVE",
"261 137 OFFCURVE",
"227 117 OFFCURVE",
"190 103 CURVE"
);
}
);
width = 387;
},
{
anchors = (
{
name = bottom;
position = "{204, -58}";
},
{
name = top;
position = "{209, 474}";
}
);
layerId = "26E2967D-790C-4793-AF2A-2D0AD74EDC69";
paths = (
{
closed = 1;
nodes = (
"84 9 OFFCURVE",
"146 17 OFFCURVE",
"207 42 CURVE",
"265 20 OFFCURVE",
"336 9 OFFCURVE",
"421 9 CURVE SMOOTH",
"426 9 OFFCURVE",
"429 12 OFFCURVE",
"429 17 CURVE SMOOTH",
"429 119 LINE SMOOTH",
"429 125 OFFCURVE",
"426 127 OFFCURVE",
"421 127 CURVE SMOOTH",
"393 127 OFFCURVE",
"364 128 OFFCURVE",
"336 128 CURVE",
"351 153 OFFCURVE",
"358 178 OFFCURVE",
"358 204 CURVE SMOOTH",
"358 232 OFFCURVE",
"352 262 OFFCURVE",
"341 293 CURVE SMOOTH",
"318 355 OFFCURVE",
"278 400 OFFCURVE",
"242 400 CURVE SMOOTH",
"182 400 OFFCURVE",
"111 347 OFFCURVE",
"74 279 CURVE SMOOTH",
"65 263 OFFCURVE",
"56 200 OFFCURVE",
"56 174 CURVE SMOOTH",
"56 159 OFFCURVE",
"61 144 OFFCURVE",
"71 128 CURVE",
"47 128 OFFCURVE",
"24 127 OFFCURVE",
"1 127 CURVE SMOOTH",
"-5 127 OFFCURVE",
"-8 124 OFFCURVE",
"-8 118 CURVE SMOOTH",
"-8 18 LINE SMOOTH",
"-8 12 OFFCURVE",
"-5 9 OFFCURVE",
"1 9 CURVE SMOOTH"
);
},
{
closed = 1;
nodes = (
"170 134 OFFCURVE",
"134 156 OFFCURVE",
"110 184 CURVE",
"156 246 OFFCURVE",
"196 277 OFFCURVE",
"231 277 CURVE SMOOTH",
"237 277 OFFCURVE",
"245 273 OFFCURVE",
"252 265 CURVE SMOOTH",
"271 247 OFFCURVE",
"292 209 OFFCURVE",
"302 173 CURVE",
"276 151 OFFCURVE",
"243 135 OFFCURVE",
"203 124 CURVE"
);
}
);
width = 412;
}
);
},
{
glyphname = uni066F.init;
lastChange = "2019-12-18 17:53:46 +0000";
layers = (
{
anchors = (
{
name = bottom;
position = "{227, -52}";
},
{
name = top;
position = "{196, 513}";
}
);
layerId = master01;
paths = (
{
closed = 1;
nodes = (
"164 0 OFFCURVE",
"253 22 OFFCURVE",
"334 72 CURVE",
"357 117 OFFCURVE",
"369 151 OFFCURVE",
"369 174 CURVE SMOOTH",
"369 227 OFFCURVE",
"361 276 OFFCURVE",
"346 321 CURVE SMOOTH",
"314 412 OFFCURVE",
"259 464 OFFCURVE",
"190 464 CURVE SMOOTH",
"168 464 OFFCURVE",
"147 454 OFFCURVE",
"128 437 CURVE SMOOTH",
"92 402 OFFCURVE",
"66 338 OFFCURVE",
"66 270 CURVE SMOOTH",
"66 203 OFFCURVE",
"107 153 OFFCURVE",
"166 153 CURVE SMOOTH",
"215 153 OFFCURVE",
"267 174 OFFCURVE",
"308 208 CURVE",
"313 183 OFFCURVE",
"318 157 OFFCURVE",
"321 130 CURVE",
"237 93 OFFCURVE",
"145 76 OFFCURVE",
"1 76 CURVE SMOOTH",
"-5 76 OFFCURVE",
"-8 73 OFFCURVE",
"-8 67 CURVE SMOOTH",
"-8 9 LINE SMOOTH",
"-8 3 OFFCURVE",
"-5 0 OFFCURVE",
"1 0 CURVE SMOOTH"
);
},
{
closed = 1;
nodes = (
"130 229 OFFCURVE",
"104 248 OFFCURVE",
"104 290 CURVE SMOOTH",
"104 335 OFFCURVE",
"135 379 OFFCURVE",
"175 379 CURVE SMOOTH",
"227 379 OFFCURVE",
"269 335 OFFCURVE",
"295 254 CURVE",
"257 237 OFFCURVE",
"222 229 OFFCURVE",
"189 229 CURVE SMOOTH"
);
}
);
width = 420;
},
{
anchors = (
{
name = bottom;
position = "{217, -58}";
},
{
name = top;
position = "{187, 535}";
}
);
layerId = "26E2967D-790C-4793-AF2A-2D0AD74EDC69";
paths = (
{
closed = 1;
nodes = (
"168 9 OFFCURVE",
"244 24 OFFCURVE",
"342 62 CURVE",
"365 108 OFFCURVE",
"376 142 OFFCURVE",
"376 163 CURVE SMOOTH",
"376 208 OFFCURVE",
"370 252 OFFCURVE",
"357 292 CURVE SMOOTH",
"329 385 OFFCURVE",
"273 453 OFFCURVE",
"218 453 CURVE SMOOTH",
"192 453 OFFCURVE",
"168 442 OFFCURVE",
"147 425 CURVE SMOOTH",
"106 393 OFFCURVE",
"79 333 OFFCURVE",
"79 267 CURVE SMOOTH",
"79 207 OFFCURVE",
"116 162 OFFCURVE",
"192 162 CURVE SMOOTH",
"239 162 OFFCURVE",
"277 177 OFFCURVE",
"309 205 CURVE",
"315 189 OFFCURVE",
"319 177 OFFCURVE",
"322 168 CURVE",
"243 132 OFFCURVE",
"147 127 OFFCURVE",
"1 127 CURVE SMOOTH",
"-5 127 OFFCURVE",
"-8 125 OFFCURVE",
"-8 119 CURVE SMOOTH",
"-8 18 LINE SMOOTH",
"-8 12 OFFCURVE",
"-5 9 OFFCURVE",
"1 9 CURVE SMOOTH"
);
},
{
closed = 1;
nodes = (
"152 235 OFFCURVE",
"130 251 OFFCURVE",
"130 283 CURVE SMOOTH",
"130 308 OFFCURVE",
"155 333 OFFCURVE",
"196 333 CURVE SMOOTH",
"237 333 OFFCURVE",
"264 307 OFFCURVE",
"290 249 CURVE",
"261 240 OFFCURVE",
"233 235 OFFCURVE",
"206 235 CURVE SMOOTH"
);
}
);
width = 427;
}
);
},
{
glyphname = uni0643;
lastChange = "2019-12-18 10:09:45 +0000";
layers = (
{
anchors = (
{
name = bottom;
position = "{262, -52}";
},
{
name = top;
position = "{231, 418}";
}
);
layerId = master01;
paths = (
{
closed = 1;
nodes = (
"309 0 OFFCURVE",
"388 6 OFFCURVE",
"462 17 CURVE",
"483 44 OFFCURVE",
"498 71 OFFCURVE",
"498 108 CURVE SMOOTH",
"498 147 OFFCURVE",
"485 287 OFFCURVE",
"459 530 CURVE",
"485 552 LINE",
"473 592 OFFCURVE",
"456 646 OFFCURVE",
"450 671 CURVE",
"402 660 OFFCURVE",
"384 636 OFFCURVE",
"384 592 CURVE SMOOTH",
"384 552 OFFCURVE",
"402 419 OFFCURVE",
"419 333 CURVE SMOOTH",
"433 254 OFFCURVE",
"447 175 OFFCURVE",
"460 96 CURVE",
"388 83 OFFCURVE",
"316 76 OFFCURVE",
"245 76 CURVE SMOOTH",
"173 76 OFFCURVE",
"85 85 OFFCURVE",
"33 97 CURVE",
"25 84 OFFCURVE",
"17 43 OFFCURVE",
"17 20 CURVE SMOOTH",
"17 14 OFFCURVE",
"41 10 OFFCURVE",
"90 6 CURVE SMOOTH",
"138 2 OFFCURVE",
"184 0 OFFCURVE",
"226 0 CURVE SMOOTH"
);
},
{
closed = 1;
nodes = (
"228 194 OFFCURVE",
"296 247 OFFCURVE",
"296 274 CURVE SMOOTH",
"296 282 OFFCURVE",
"294 288 OFFCURVE",
"287 293 CURVE SMOOTH",
"270 305 OFFCURVE",
"227 304 OFFCURVE",
"205 315 CURVE",
"209 336 OFFCURVE",
"240 364 OFFCURVE",
"256 364 CURVE SMOOTH",
"261 364 OFFCURVE",
"265 362 OFFCURVE",
"268 359 CURVE",
"284 366 LINE",
"279 384 OFFCURVE",
"268 394 OFFCURVE",
"250 394 CURVE SMOOTH",
"213 394 OFFCURVE",
"172 348 OFFCURVE",
"172 316 CURVE SMOOTH",
"172 276 OFFCURVE",
"208 269 OFFCURVE",
"271 268 CURVE",
"267 260 OFFCURVE",
"259 253 OFFCURVE",
"249 246 CURVE SMOOTH",
"226 230 OFFCURVE",
"192 217 OFFCURVE",
"157 214 CURVE",
"157 203 OFFCURVE",
"163 194 OFFCURVE",
"180 194 CURVE SMOOTH"
);
}
);
width = 558;
},
{
anchors = (
{
name = bottom;
position = "{267, -58}";
},
{
name = top;
position = "{257, 458}";
}
);
layerId = "26E2967D-790C-4793-AF2A-2D0AD74EDC69";
paths = (
{
closed = 1;
nodes = (
"358 1 OFFCURVE",
"443 6 OFFCURVE",
"520 17 CURVE",
"543 46 OFFCURVE",
"559 96 OFFCURVE",
"559 130 CURVE SMOOTH",
"559 187 OFFCURVE",
"548 321 OFFCURVE",
"527 533 CURVE",
"559 557 LINE",
"544 594 OFFCURVE",
"531 635 OFFCURVE",
"519 680 CURVE",
"459 680 OFFCURVE",
"411 634 OFFCURVE",
"411 577 CURVE SMOOTH",
"411 547 OFFCURVE",
"437 424 OFFCURVE",
"452 366 CURVE SMOOTH",
"458 339 OFFCURVE",
"476 267 OFFCURVE",
"508 139 CURVE",
"435 126 OFFCURVE",
"360 119 OFFCURVE",
"283 119 CURVE SMOOTH",
"212 119 OFFCURVE",
"112 128 OFFCURVE",
"60 140 CURVE",
"46 112 OFFCURVE",
"34 59 OFFCURVE",
"34 20 CURVE SMOOTH",
"34 15 OFFCURVE",
"62 10 OFFCURVE",
"116 7 CURVE SMOOTH",
"171 3 OFFCURVE",
"220 1 OFFCURVE",
"264 1 CURVE SMOOTH"
);
},
{
closed = 1;
nodes = (
"262 225 OFFCURVE",
"331 278 OFFCURVE",
"331 306 CURVE SMOOTH",
"331 313 OFFCURVE",
"328 320 OFFCURVE",
"321 324 CURVE SMOOTH",
"304 337 OFFCURVE",
"261 336 OFFCURVE",
"239 346 CURVE",
"244 368 OFFCURVE",
"275 395 OFFCURVE",
"291 395 CURVE SMOOTH",
"295 395 OFFCURVE",
"299 393 OFFCURVE",
"302 390 CURVE",
"318 397 LINE",
"314 416 OFFCURVE",
"303 425 OFFCURVE",
"285 425 CURVE SMOOTH",
"248 425 OFFCURVE",
"206 380 OFFCURVE",
"206 348 CURVE SMOOTH",
"206 308 OFFCURVE",
"242 300 OFFCURVE",
"305 299 CURVE",
"301 292 OFFCURVE",
"294 285 OFFCURVE",
"283 277 CURVE SMOOTH",
"260 262 OFFCURVE",
"226 248 OFFCURVE",
"191 245 CURVE",
"191 234 OFFCURVE",
"198 225 OFFCURVE",
"214 225 CURVE SMOOTH"
);
}
);
width = 618;
}
);
unicode = "0643,FED9";
},
{
glyphname = uniFEDA;
lastChange = "2019-12-18 10:09:45 +0000";
layers = (
{
anchors = (
{
name = bottom;
position = "{373, -52}";
},
{
name = top;
position = "{358, 418}";
}
);
layerId = master01;
paths = (
{
closed = 1;
nodes = (
"420 0 OFFCURVE",
"511 16 OFFCURVE",
"615 52 CURVE",
"643 18 OFFCURVE",
"683 0 OFFCURVE",
"745 0 CURVE SMOOTH",
"750 0 OFFCURVE",
"753 3 OFFCURVE",
"753 8 CURVE SMOOTH",
"753 68 LINE SMOOTH",
"753 73 OFFCURVE",
"750 76 OFFCURVE",
"745 76 CURVE SMOOTH",
"705 76 OFFCURVE",
"670 85 OFFCURVE",
"640 103 CURVE",
"637 242 OFFCURVE",
"633 415 OFFCURVE",
"626 671 CURVE",
"601 653 OFFCURVE",
"579 635 OFFCURVE",
"560 615 CURVE",
"578 356 OFFCURVE",
"586 239 OFFCURVE",
"600 107 CURVE",
"516 86 OFFCURVE",
"433 76 OFFCURVE",
"329 76 CURVE SMOOTH",
"201 76 OFFCURVE",
"114 86 OFFCURVE",
"114 184 CURVE SMOOTH",
"114 198 OFFCURVE",
"115 211 OFFCURVE",
"117 222 CURVE",
"82 222 LINE",
"72 196 OFFCURVE",
"68 171 OFFCURVE",
"68 146 CURVE SMOOTH",
"68 113 OFFCURVE",
"76 86 OFFCURVE",
"92 64 CURVE SMOOTH",
"124 20 OFFCURVE",
"185 0 OFFCURVE",
"308 0 CURVE SMOOTH"
);
},
{
closed = 1;
nodes = (
"355 194 OFFCURVE",
"423 247 OFFCURVE",
"423 274 CURVE SMOOTH",
"423 282 OFFCURVE",
"421 288 OFFCURVE",
"414 293 CURVE SMOOTH",
"397 305 OFFCURVE",
"354 304 OFFCURVE",
"332 315 CURVE",
"336 336 OFFCURVE",
"367 364 OFFCURVE",
"383 364 CURVE SMOOTH",
"388 364 OFFCURVE",
"392 362 OFFCURVE",
"395 359 CURVE",
"411 366 LINE",
"406 384 OFFCURVE",
"395 394 OFFCURVE",
"377 394 CURVE SMOOTH",
"340 394 OFFCURVE",
"299 348 OFFCURVE",
"299 316 CURVE SMOOTH",
"299 276 OFFCURVE",
"335 269 OFFCURVE",
"398 268 CURVE",
"394 260 OFFCURVE",
"386 253 OFFCURVE",
"376 246 CURVE SMOOTH",
"353 230 OFFCURVE",
"319 217 OFFCURVE",
"284 214 CURVE",
"284 203 OFFCURVE",
"290 194 OFFCURVE",
"307 194 CURVE SMOOTH"
);
}
);
width = 736;
},
{
anchors = (
{
name = bottom;
position = "{354, -58}";
},
{
name = top;
position = "{350, 458}";
}
);
layerId = "26E2967D-790C-4793-AF2A-2D0AD74EDC69";
paths = (
{
closed = 1;
nodes = (
"400 0 OFFCURVE",
"500 21 OFFCURVE",
"615 62 CURVE",
"644 25 OFFCURVE",
"683 9 OFFCURVE",
"753 9 CURVE SMOOTH",
"759 9 OFFCURVE",
"762 12 OFFCURVE",
"762 17 CURVE SMOOTH",
"762 119 LINE SMOOTH",
"762 125 OFFCURVE",
"759 127 OFFCURVE",
"753 127 CURVE SMOOTH",
"708 127 OFFCURVE",
"674 134 OFFCURVE",
"643 155 CURVE",
"643 247 OFFCURVE",
"645 381 OFFCURVE",
"652 697 CURVE",
"609 678 OFFCURVE",
"568 657 OFFCURVE",
"533 631 CURVE",
"556 416 OFFCURVE",
"576 254 OFFCURVE",
"593 146 CURVE",
"516 130 OFFCURVE",
"442 119 OFFCURVE",
"337 119 CURVE SMOOTH",
"166 119 OFFCURVE",
"123 128 OFFCURVE",
"123 227 CURVE SMOOTH",
"123 240 OFFCURVE",
"125 252 OFFCURVE",
"126 265 CURVE",
"82 266 LINE",
"78 254 OFFCURVE",
"68 189 OFFCURVE",
"68 161 CURVE SMOOTH",
"68 122 OFFCURVE",
"76 91 OFFCURVE",
"93 67 CURVE SMOOTH",
"126 21 OFFCURVE",
"185 0 OFFCURVE",
"316 0 CURVE SMOOTH"
);
},
{
closed = 1;
nodes = (
"355 225 OFFCURVE",
"423 278 OFFCURVE",
"423 306 CURVE SMOOTH",
"423 313 OFFCURVE",
"421 320 OFFCURVE",
"414 324 CURVE SMOOTH",
"397 337 OFFCURVE",
"354 336 OFFCURVE",
"332 346 CURVE",
"336 368 OFFCURVE",
"367 395 OFFCURVE",
"383 395 CURVE SMOOTH",
"388 395 OFFCURVE",
"392 393 OFFCURVE",
"395 390 CURVE",
"411 397 LINE",
"406 416 OFFCURVE",
"395 425 OFFCURVE",
"377 425 CURVE SMOOTH",
"340 425 OFFCURVE",
"299 380 OFFCURVE",
"299 348 CURVE SMOOTH",
"299 308 OFFCURVE",
"335 300 OFFCURVE",
"398 299 CURVE",
"394 292 OFFCURVE",
"386 285 OFFCURVE",
"376 277 CURVE SMOOTH",
"353 262 OFFCURVE",
"319 248 OFFCURVE",
"284 245 CURVE",
"284 234 OFFCURVE",
"290 225 OFFCURVE",
"307 225 CURVE SMOOTH"
);
}
);
width = 745;
}
);
unicode = FEDA;
},
{
glyphname = uniFEDC;
lastChange = "2019-12-18 10:09:45 +0000";
layers = (
{
anchors = (
{
name = bottom;
position = "{198, -52}";
},
{
name = top;
position = "{50, 567}";
}
);
layerId = master01;
paths = (
{
closed = 1;
nodes = (
"119 0 OFFCURVE",
"207 16 OFFCURVE",
"262 47 CURVE SMOOTH",
"275 55 OFFCURVE",
"287 63 OFFCURVE",
"297 73 CURVE",
"343 22 OFFCURVE",
"403 0 OFFCURVE",
"467 0 CURVE SMOOTH",
"473 0 OFFCURVE",
"476 3 OFFCURVE",
"476 8 CURVE SMOOTH",
"476 68 LINE SMOOTH",
"476 73 OFFCURVE",
"473 76 OFFCURVE",
"467 76 CURVE SMOOTH",
"416 76 OFFCURVE",
"369 92 OFFCURVE",
"329 124 CURVE",
"333 136 OFFCURVE",
"335 150 OFFCURVE",
"335 164 CURVE SMOOTH",
"335 195 OFFCURVE",
"321 228 OFFCURVE",
"293 264 CURVE SMOOTH",
"241 333 OFFCURVE",
"145 392 OFFCURVE",
"48 417 CURVE",
"162 463 OFFCURVE",
"274 511 OFFCURVE",
"388 558 CURVE SMOOTH",
"417 570 OFFCURVE",
"430 585 OFFCURVE",
"430 616 CURVE SMOOTH",
"430 630 OFFCURVE",
"424 645 OFFCURVE",
"415 654 CURVE",
"166 552 OFFCURVE",
"50 500 OFFCURVE",
"21 471 CURVE SMOOTH",
"7 457 OFFCURVE",
"1 440 OFFCURVE",
"1 415 CURVE SMOOTH",
"1 380 OFFCURVE",
"28 359 OFFCURVE",
"86 331 CURVE SMOOTH",
"136 307 OFFCURVE",
"177 281 OFFCURVE",
"210 253 CURVE SMOOTH",
"253 217 OFFCURVE",
"281 178 OFFCURVE",
"295 135 CURVE",
"266 120 OFFCURVE",
"239 109 OFFCURVE",
"213 102 CURVE SMOOTH",
"154 85 OFFCURVE",
"83 76 OFFCURVE",
"0 76 CURVE SMOOTH",
"-6 76 OFFCURVE",
"-8 73 OFFCURVE",
"-8 68 CURVE SMOOTH",
"-8 8 LINE SMOOTH",
"-8 3 OFFCURVE",
"-6 0 OFFCURVE",
"0 0 CURVE SMOOTH"
);
}
);
width = 459;
},
{
anchors = (
{
name = bottom;
position = "{208, -58}";
},
{
name = top;
position = "{50, 604}";
}
);
layerId = "26E2967D-790C-4793-AF2A-2D0AD74EDC69";
paths = (
{
closed = 1;
nodes = (
"117 9 OFFCURVE",
"206 23 OFFCURVE",
"266 51 CURVE SMOOTH",
"286 61 OFFCURVE",
"303 72 OFFCURVE",
"315 83 CURVE",
"362 34 OFFCURVE",
"416 9 OFFCURVE",
"476 9 CURVE SMOOTH",
"482 9 OFFCURVE",
"485 12 OFFCURVE",
"485 17 CURVE SMOOTH",
"485 119 LINE SMOOTH",
"485 125 OFFCURVE",
"482 127 OFFCURVE",
"476 127 CURVE SMOOTH",
"432 127 OFFCURVE",
"392 139 OFFCURVE",
"355 162 CURVE",
"356 164 OFFCURVE",
"356 168 OFFCURVE",
"356 173 CURVE SMOOTH",
"356 206 OFFCURVE",
"343 240 OFFCURVE",
"317 277 CURVE SMOOTH",
"267 347 OFFCURVE",
"181 405 OFFCURVE",
"88 428 CURVE",
"254 485 OFFCURVE",
"319 511 OFFCURVE",
"396 549 CURVE SMOOTH",
"427 564 OFFCURVE",
"450 596 OFFCURVE",
"450 630 CURVE SMOOTH",
"450 650 OFFCURVE",
"443 667 OFFCURVE",
"429 680 CURVE",
"322 636 OFFCURVE",
"65 527 OFFCURVE",
"42 506 CURVE SMOOTH",
"23 489 OFFCURVE",
"10 461 OFFCURVE",
"10 434 CURVE SMOOTH",
"10 403 OFFCURVE",
"44 367 OFFCURVE",
"113 328 CURVE SMOOTH",
"155 303 OFFCURVE",
"188 281 OFFCURVE",
"213 263 CURVE SMOOTH",
"257 228 OFFCURVE",
"290 192 OFFCURVE",
"305 161 CURVE",
"282 149 OFFCURVE",
"248 141 OFFCURVE",
"202 136 CURVE SMOOTH",
"154 130 OFFCURVE",
"87 127 OFFCURVE",
"0 127 CURVE SMOOTH",
"-6 127 OFFCURVE",
"-8 125 OFFCURVE",
"-8 119 CURVE SMOOTH",
"-8 17 LINE SMOOTH",
"-8 12 OFFCURVE",
"-6 9 OFFCURVE",
"0 9 CURVE SMOOTH"
);
}
);
width = 467;
}
);
unicode = FEDC;
},
{
glyphname = uniFEDB;
lastChange = "2019-12-18 10:09:45 +0000";
layers = (
{
anchors = (
{
name = bottom;
position = "{196, -52}";
},
{
name = top;
position = "{49, 576}";
}
);
layerId = master01;
paths = (
{
closed = 1;
nodes = (
"110 0 OFFCURVE",
"192 14 OFFCURVE",
"248 40 CURVE SMOOTH",
"306 68 OFFCURVE",
"335 109 OFFCURVE",
"335 164 CURVE SMOOTH",
"335 195 OFFCURVE",
"321 228 OFFCURVE",
"293 263 CURVE SMOOTH",
"238 334 OFFCURVE",
"138 395 OFFCURVE",
"37 420 CURVE",
"112 455 OFFCURVE",
"218 501 OFFCURVE",
"354 558 CURVE SMOOTH",
"385 570 OFFCURVE",
"397 585 OFFCURVE",
"397 616 CURVE SMOOTH",
"397 633 OFFCURVE",
"392 646 OFFCURVE",
"382 654 CURVE",
"275 611 OFFCURVE",
"204 580 OFFCURVE",
"26 488 CURVE SMOOTH",
"19 484 OFFCURVE",
"0 422 OFFCURVE",
"0 393 CURVE SMOOTH",
"0 355 OFFCURVE",
"26 328 OFFCURVE",
"61 328 CURVE SMOOTH",
"70 328 OFFCURVE",
"78 329 OFFCURVE",
"86 331 CURVE",
"146 302 OFFCURVE",
"191 271 OFFCURVE",
"226 239 CURVE SMOOTH",
"260 207 OFFCURVE",
"283 172 OFFCURVE",
"295 135 CURVE",
"267 120 OFFCURVE",
"239 109 OFFCURVE",
"213 102 CURVE SMOOTH",
"160 87 OFFCURVE",
"92 76 OFFCURVE",
"0 76 CURVE SMOOTH",
"-6 76 OFFCURVE",
"-8 73 OFFCURVE",
"-8 68 CURVE SMOOTH",
"-8 8 LINE SMOOTH",
"-8 3 OFFCURVE",
"-6 0 OFFCURVE",
"0 0 CURVE SMOOTH"
);
}
);
width = 415;
},
{
anchors = (
{
name = bottom;
position = "{196, -58}";
},
{
name = top;
position = "{49, 602}";
}
);
layerId = "26E2967D-790C-4793-AF2A-2D0AD74EDC69";
paths = (
{
closed = 1;
nodes = (
"117 9 OFFCURVE",
"205 23 OFFCURVE",
"266 51 CURVE SMOOTH",
"326 79 OFFCURVE",
"356 120 OFFCURVE",
"356 173 CURVE SMOOTH",
"356 206 OFFCURVE",
"343 241 OFFCURVE",
"317 277 CURVE SMOOTH",
"265 349 OFFCURVE",
"173 410 OFFCURVE",
"74 435 CURVE",
"203 471 OFFCURVE",
"276 500 OFFCURVE",
"371 546 CURVE SMOOTH",
"408 564 OFFCURVE",
"425 582 OFFCURVE",
"425 629 CURVE SMOOTH",
"425 649 OFFCURVE",
"419 666 OFFCURVE",
"405 680 CURVE",
"273 626 OFFCURVE",
"213 599 OFFCURVE",
"44 514 CURVE SMOOTH",
"37 511 OFFCURVE",
"18 418 OFFCURVE",
"18 389 CURVE SMOOTH",
"18 353 OFFCURVE",
"50 324 OFFCURVE",
"87 324 CURVE SMOOTH",
"97 324 OFFCURVE",
"105 325 OFFCURVE",
"113 328 CURVE",
"157 302 OFFCURVE",
"190 280 OFFCURVE",
"213 262 CURVE SMOOTH",
"258 228 OFFCURVE",
"290 191 OFFCURVE",
"305 161 CURVE",
"282 150 OFFCURVE",
"248 141 OFFCURVE",
"202 136 CURVE SMOOTH",
"155 130 OFFCURVE",
"88 127 OFFCURVE",
"0 127 CURVE SMOOTH",
"-6 127 OFFCURVE",
"-8 125 OFFCURVE",
"-8 119 CURVE SMOOTH",
"-8 17 LINE SMOOTH",
"-8 12 OFFCURVE",
"-6 9 OFFCURVE",
"0 9 CURVE SMOOTH"
);
}
);
width = 443;
}
);
unicode = FEDB;
},
{
glyphname = uni06A9;
lastChange = "2019-12-18 10:09:45 +0000";
layers = (
{
anchors = (
{
name = bottom;
position = "{450, -52}";
},
{
name = top;
position = "{355, 575}";
}
);
layerId = master01;
paths = (
{
closed = 1;
nodes = (
"532 0 OFFCURVE",
"643 57 OFFCURVE",
"643 164 CURVE SMOOTH",
"643 194 OFFCURVE",
"629 227 OFFCURVE",
"602 262 CURVE SMOOTH",
"547 331 OFFCURVE",
"447 395 OFFCURVE",
"343 420 CURVE",
"419 455 OFFCURVE",
"525 501 OFFCURVE",
"661 558 CURVE SMOOTH",
"690 569 OFFCURVE",
"704 590 OFFCURVE",
"704 622 CURVE SMOOTH",
"704 637 OFFCURVE",
"698 646 OFFCURVE",
"688 654 CURVE",
"573 607 OFFCURVE",
"513 581 OFFCURVE",
"333 488 CURVE SMOOTH",
"326 484 OFFCURVE",
"307 422 OFFCURVE",
"307 393 CURVE SMOOTH",
"307 356 OFFCURVE",
"332 328 OFFCURVE",
"368 328 CURVE SMOOTH",
"376 328 OFFCURVE",
"384 329 OFFCURVE",
"393 331 CURVE",
"440 308 OFFCURVE",
"479 284 OFFCURVE",
"510 259 CURVE SMOOTH",
"558 221 OFFCURVE",
"587 180 OFFCURVE",
"603 135 CURVE",
"518 89 OFFCURVE",
"431 76 OFFCURVE",
"316 76 CURVE SMOOTH",
"243 76 OFFCURVE",
"190 83 OFFCURVE",
"159 97 CURVE SMOOTH",
"128 110 OFFCURVE",
"113 133 OFFCURVE",
"113 164 CURVE SMOOTH",
"113 179 OFFCURVE",
"114 193 OFFCURVE",
"117 205 CURVE",
"81 205 LINE",
"72 184 OFFCURVE",
"68 163 OFFCURVE",
"68 141 CURVE SMOOTH",
"68 112 OFFCURVE",
"75 88 OFFCURVE",
"89 68 CURVE SMOOTH",
"122 23 OFFCURVE",
"192 0 OFFCURVE",
"308 0 CURVE SMOOTH"
);
}
);
width = 722;
},
{
anchors = (
{
name = bottom;
position = "{412, -58}";
},
{
name = top;
position = "{355, 602}";
}
);
layerId = "26E2967D-790C-4793-AF2A-2D0AD74EDC69";
paths = (
{
closed = 1;
nodes = (
"520 0 OFFCURVE",
"654 63 OFFCURVE",
"654 173 CURVE SMOOTH",
"654 206 OFFCURVE",
"641 241 OFFCURVE",
"615 277 CURVE SMOOTH",
"563 349 OFFCURVE",
"472 410 OFFCURVE",
"373 435 CURVE",
"496 469 OFFCURVE",
"572 498 OFFCURVE",
"669 546 CURVE SMOOTH",
"703 563 OFFCURVE",
"724 596 OFFCURVE",
"724 630 CURVE SMOOTH",
"724 650 OFFCURVE",
"717 667 OFFCURVE",
"704 680 CURVE",
"573 626 OFFCURVE",
"501 594 OFFCURVE",
"342 514 CURVE SMOOTH",
"335 511 OFFCURVE",
"316 418 OFFCURVE",
"316 389 CURVE SMOOTH",
"316 353 OFFCURVE",
"349 324 OFFCURVE",
"385 324 CURVE SMOOTH",
"395 324 OFFCURVE",
"404 325 OFFCURVE",
"412 328 CURVE",
"455 302 OFFCURVE",
"488 280 OFFCURVE",
"510 262 CURVE SMOOTH",
"555 228 OFFCURVE",
"588 191 OFFCURVE",
"604 160 CURVE",
"522 131 OFFCURVE",
"459 119 OFFCURVE",
"337 119 CURVE SMOOTH",
"281 119 OFFCURVE",
"238 122 OFFCURVE",
"208 129 CURVE SMOOTH",
"146 143 OFFCURVE",
"124 172 OFFCURVE",
"123 227 CURVE SMOOTH",
"123 240 OFFCURVE",
"125 252 OFFCURVE",
"126 265 CURVE",
"82 266 LINE",
"78 254 OFFCURVE",
"68 189 OFFCURVE",
"68 161 CURVE SMOOTH",
"68 121 OFFCURVE",
"75 89 OFFCURVE",
"90 66 CURVE SMOOTH",
"120 20 OFFCURVE",
"174 0 OFFCURVE",
"301 0 CURVE SMOOTH"
);
}
);
width = 741;
}
);
unicode = "06A9,FB8E";
},
{
glyphname = uniFB8F;
lastChange = "2019-12-18 10:09:45 +0000";
layers = (
{
anchors = (
{
name = bottom;
position = "{473, -52}";
},
{
name = top;
position = "{367, 576}";
}
);
layerId = master01;
paths = (
{
closed = 1;
nodes = (
"455 0 OFFCURVE",
"554 24 OFFCURVE",
"604 73 CURVE",
"650 22 OFFCURVE",
"710 0 OFFCURVE",
"774 0 CURVE SMOOTH",
"780 0 OFFCURVE",
"783 3 OFFCURVE",
"783 8 CURVE SMOOTH",
"783 68 LINE SMOOTH",
"783 73 OFFCURVE",
"780 76 OFFCURVE",
"774 76 CURVE SMOOTH",
"722 76 OFFCURVE",
"676 92 OFFCURVE",
"636 124 CURVE",
"640 137 OFFCURVE",
"642 150 OFFCURVE",
"642 164 CURVE SMOOTH",
"642 195 OFFCURVE",
"628 228 OFFCURVE",
"600 264 CURVE SMOOTH",
"547 333 OFFCURVE",
"451 392 OFFCURVE",
"355 417 CURVE",
"468 463 OFFCURVE",
"581 511 OFFCURVE",
"694 558 CURVE SMOOTH",
"724 570 OFFCURVE",
"733 586 OFFCURVE",
"737 616 CURVE SMOOTH",
"737 629 OFFCURVE",
"731 645 OFFCURVE",
"721 654 CURVE",
"549 583 OFFCURVE",
"521 573 OFFCURVE",
"449 539 CURVE SMOOTH",
"378 504 OFFCURVE",
"338 481 OFFCURVE",
"328 471 CURVE SMOOTH",
"313 457 OFFCURVE",
"308 440 OFFCURVE",
"308 415 CURVE SMOOTH",
"308 380 OFFCURVE",
"335 359 OFFCURVE",
"393 331 CURVE SMOOTH",
"443 307 OFFCURVE",
"483 281 OFFCURVE",
"517 254 CURVE SMOOTH",
"560 218 OFFCURVE",
"587 178 OFFCURVE",
"602 135 CURVE",
"516 88 OFFCURVE",
"428 76 OFFCURVE",
"315 76 CURVE SMOOTH",
"242 76 OFFCURVE",
"189 83 OFFCURVE",
"158 97 CURVE SMOOTH",
"127 110 OFFCURVE",
"112 133 OFFCURVE",
"112 164 CURVE SMOOTH",
"112 179 OFFCURVE",
"113 192 OFFCURVE",
"116 205 CURVE",
"80 205 LINE",
"71 184 OFFCURVE",
"67 163 OFFCURVE",
"67 141 CURVE SMOOTH",
"67 48 OFFCURVE",
"143 0 OFFCURVE",
"307 0 CURVE SMOOTH"
);
}
);
width = 776;
},
{
anchors = (
{
name = bottom;
position = "{444, -58}";
},
{
name = top;
position = "{367, 604}";
}
);
layerId = "26E2967D-790C-4793-AF2A-2D0AD74EDC69";
paths = (
{
closed = 1;
nodes = (
"449 0 OFFCURVE",
"559 29 OFFCURVE",
"614 83 CURVE",
"661 33 OFFCURVE",
"715 9 OFFCURVE",
"775 9 CURVE SMOOTH",
"781 9 OFFCURVE",
"784 12 OFFCURVE",
"784 17 CURVE SMOOTH",
"784 119 LINE SMOOTH",
"784 125 OFFCURVE",
"781 127 OFFCURVE",
"775 127 CURVE SMOOTH",
"731 127 OFFCURVE",
"691 139 OFFCURVE",
"654 162 CURVE",
"654 166 OFFCURVE",
"655 169 OFFCURVE",
"655 173 CURVE SMOOTH",
"655 206 OFFCURVE",
"642 240 OFFCURVE",
"616 277 CURVE SMOOTH",
"566 347 OFFCURVE",
"480 405 OFFCURVE",
"387 428 CURVE",
"553 485 OFFCURVE",
"618 511 OFFCURVE",
"695 549 CURVE SMOOTH",
"725 564 OFFCURVE",
"749 596 OFFCURVE",
"749 630 CURVE SMOOTH",
"749 650 OFFCURVE",
"742 667 OFFCURVE",
"728 680 CURVE",
"625 638 OFFCURVE",
"532 599 OFFCURVE",
"447 560 CURVE SMOOTH",
"391 535 OFFCURVE",
"356 519 OFFCURVE",
"344 508 CURVE SMOOTH",
"323 491 OFFCURVE",
"309 462 OFFCURVE",
"309 434 CURVE SMOOTH",
"309 403 OFFCURVE",
"343 367 OFFCURVE",
"412 328 CURVE SMOOTH",
"453 303 OFFCURVE",
"487 281 OFFCURVE",
"512 263 CURVE SMOOTH",
"556 228 OFFCURVE",
"588 193 OFFCURVE",
"604 160 CURVE",
"521 125 OFFCURVE",
"475 119 OFFCURVE",
"337 119 CURVE SMOOTH",
"281 119 OFFCURVE",
"237 123 OFFCURVE",
"207 129 CURVE SMOOTH",
"146 142 OFFCURVE",
"123 170 OFFCURVE",
"123 227 CURVE SMOOTH",
"124 240 OFFCURVE",
"125 252 OFFCURVE",
"126 265 CURVE",
"81 266 LINE",
"77 252 OFFCURVE",
"67 187 OFFCURVE",
"67 161 CURVE SMOOTH",
"67 24 OFFCURVE",
"151 0 OFFCURVE",
"300 0 CURVE SMOOTH"
);
}
);
width = 768;
}
);
unicode = FB8F;
},
{
glyphname = uni06AA;
lastChange = "2019-12-18 10:09:45 +0000";
layers = (
{
anchors = (
{
name = bottom;
position = "{774, -52}";
},
{
name = top;
position = "{387, 558}";
}
);
layerId = master01;
paths = (
{
closed = 1;
nodes = (
"502 0 OFFCURVE",
"766 17 OFFCURVE",
"942 44 CURVE",
"957 76 OFFCURVE",
"964 103 OFFCURVE",
"964 125 CURVE SMOOTH",
"964 154 OFFCURVE",
"956 178 OFFCURVE",
"940 199 CURVE SMOOTH",
"909 241 OFFCURVE",
"850 264 OFFCURVE",
"784 264 CURVE SMOOTH",
"743 264 OFFCURVE",
"677 262 OFFCURVE",
"584 257 CURVE SMOOTH",
"492 252 OFFCURVE",
"427 250 OFFCURVE",
"389 250 CURVE SMOOTH",
"341 250 OFFCURVE",
"280 266 OFFCURVE",
"280 283 CURVE SMOOTH",
"280 292 OFFCURVE",
"289 305 OFFCURVE",
"307 320 CURVE SMOOTH",
"343 350 OFFCURVE",
"427 398 OFFCURVE",
"483 421 CURVE SMOOTH",
"514 433 OFFCURVE",
"529 458 OFFCURVE",
"529 494 CURVE SMOOTH",
"529 502 OFFCURVE",
"528 510 OFFCURVE",
"526 519 CURVE",
"452 499 OFFCURVE",
"374 458 OFFCURVE",
"322 411 CURVE SMOOTH",
"269 365 OFFCURVE",
"244 316 OFFCURVE",
"244 265 CURVE SMOOTH",
"244 198 OFFCURVE",
"281 172 OFFCURVE",
"371 172 CURVE SMOOTH",
"419 172 OFFCURVE",
"490 175 OFFCURVE",
"583 181 CURVE SMOOTH",
"676 186 OFFCURVE",
"744 188 OFFCURVE",
"786 188 CURVE SMOOTH",
"862 188 OFFCURVE",
"906 164 OFFCURVE",
"926 106 CURVE",
"775 88 OFFCURVE",
"520 76 OFFCURVE",
"271 76 CURVE SMOOTH",
"173 76 OFFCURVE",
"86 84 OFFCURVE",
"10 100 CURVE",
"9 39 OFFCURVE",
"21 23 OFFCURVE",
"85 10 CURVE SMOOTH",
"118 2 OFFCURVE",
"174 0 OFFCURVE",
"286 0 CURVE SMOOTH"
);
}
);
width = 1015;
},
{
anchors = (
{
name = bottom;
position = "{760, -58}";
},
{
name = top;
position = "{392, 637}";
}
);
layerId = "26E2967D-790C-4793-AF2A-2D0AD74EDC69";
paths = (
{
closed = 1;
nodes = (
"510 9 OFFCURVE",
"782 26 OFFCURVE",
"956 53 CURVE",
"970 85 OFFCURVE",
"977 112 OFFCURVE",
"977 134 CURVE SMOOTH",
"977 249 OFFCURVE",
"903 324 OFFCURVE",
"791 324 CURVE SMOOTH",
"755 324 OFFCURVE",
"687 321 OFFCURVE",
"586 316 CURVE SMOOTH",
"499 312 OFFCURVE",
"433 310 OFFCURVE",
"389 310 CURVE SMOOTH",
"364 310 OFFCURVE",
"341 313 OFFCURVE",
"319 320 CURVE SMOOTH",
"298 326 OFFCURVE",
"287 334 OFFCURVE",
"287 342 CURVE SMOOTH",
"287 351 OFFCURVE",
"299 362 OFFCURVE",
"324 376 CURVE SMOOTH",
"352 392 OFFCURVE",
"396 410 OFFCURVE",
"483 444 CURVE SMOOTH",
"518 458 OFFCURVE",
"538 492 OFFCURVE",
"539 540 CURVE SMOOTH",
"539 555 OFFCURVE",
"537 571 OFFCURVE",
"534 588 CURVE",
"461 569 OFFCURVE",
"376 528 OFFCURVE",
"319 477 CURVE SMOOTH",
"263 426 OFFCURVE",
"235 374 OFFCURVE",
"235 325 CURVE SMOOTH",
"235 239 OFFCURVE",
"275 198 OFFCURVE",
"371 198 CURVE SMOOTH",
"419 198 OFFCURVE",
"491 201 OFFCURVE",
"585 207 CURVE SMOOTH",
"679 212 OFFCURVE",
"748 214 OFFCURVE",
"791 214 CURVE SMOOTH",
"867 214 OFFCURVE",
"901 201 OFFCURVE",
"923 157 CURVE",
"766 138 OFFCURVE",
"500 127 OFFCURVE",
"271 127 CURVE SMOOTH",
"173 127 OFFCURVE",
"86 135 OFFCURVE",
"10 151 CURVE",
"9 71 OFFCURVE",
"40 26 OFFCURVE",
"96 16 CURVE SMOOTH",
"127 11 OFFCURVE",
"182 9 OFFCURVE",
"286 9 CURVE SMOOTH"
);
}
);
width = 1015;
}
);
unicode = 06AA;
},
{
glyphname = uni06AA.fina;
lastChange = "2019-12-18 10:09:45 +0000";
layers = (
{
anchors = (
{
name = bottom;
position = "{792, -52}";
},
{
name = top;
position = "{389, 567}";
}
);
layerId = master01;
paths = (
{
closed = 1;
nodes = (
"501 0 OFFCURVE",
"741 15 OFFCURVE",
"941 43 CURVE",
"946 41 LINE SMOOTH",
"985 14 OFFCURVE",
"1028 0 OFFCURVE",
"1074 0 CURVE SMOOTH",
"1079 0 OFFCURVE",
"1082 3 OFFCURVE",
"1082 8 CURVE SMOOTH",
"1082 68 LINE SMOOTH",
"1082 73 OFFCURVE",
"1079 76 OFFCURVE",
"1074 76 CURVE SMOOTH",
"1033 76 OFFCURVE",
"999 85 OFFCURVE",
"962 106 CURVE",
"964 125 LINE",
"964 154 OFFCURVE",
"956 178 OFFCURVE",
"940 199 CURVE SMOOTH",
"909 241 OFFCURVE",
"850 264 OFFCURVE",
"784 264 CURVE SMOOTH",
"679 264 OFFCURVE",
"491 250 OFFCURVE",
"389 250 CURVE SMOOTH",
"363 250 OFFCURVE",
"333 254 OFFCURVE",
"312 262 CURVE SMOOTH",
"293 268 OFFCURVE",
"280 275 OFFCURVE",
"280 283 CURVE SMOOTH",
"280 292 OFFCURVE",
"289 305 OFFCURVE",
"307 320 CURVE SMOOTH",
"343 350 OFFCURVE",
"427 398 OFFCURVE",
"483 421 CURVE SMOOTH",
"514 433 OFFCURVE",
"529 458 OFFCURVE",
"529 494 CURVE SMOOTH",
"529 502 OFFCURVE",
"528 510 OFFCURVE",
"526 519 CURVE",
"452 499 OFFCURVE",
"374 458 OFFCURVE",
"322 411 CURVE SMOOTH",
"269 365 OFFCURVE",
"244 316 OFFCURVE",
"244 265 CURVE SMOOTH",
"244 198 OFFCURVE",
"281 172 OFFCURVE",
"371 172 CURVE SMOOTH",
"478 172 OFFCURVE",
"682 188 OFFCURVE",
"786 188 CURVE SMOOTH",
"862 188 OFFCURVE",
"906 164 OFFCURVE",
"926 106 CURVE",
"775 88 OFFCURVE",
"520 76 OFFCURVE",
"271 76 CURVE SMOOTH",
"173 76 OFFCURVE",
"86 84 OFFCURVE",
"10 100 CURVE",
"9 83 LINE",
"10 39 OFFCURVE",
"29 22 OFFCURVE",
"85 10 CURVE SMOOTH",
"114 3 OFFCURVE",
"167 0 OFFCURVE",
"246 0 CURVE SMOOTH"
);
}
);
width = 1065;
},
{
anchors = (
{
name = bottom;
position = "{792, -58}";
},
{
name = top;
position = "{389, 637}";
}
);
layerId = "26E2967D-790C-4793-AF2A-2D0AD74EDC69";
paths = (
{
closed = 1;
nodes = (
"507 9 OFFCURVE",
"768 24 OFFCURVE",
"943 51 CURVE",
"946 49 LINE SMOOTH",
"985 22 OFFCURVE",
"1028 9 OFFCURVE",
"1074 9 CURVE SMOOTH",
"1079 9 OFFCURVE",
"1082 12 OFFCURVE",
"1082 17 CURVE SMOOTH",
"1082 119 LINE SMOOTH",
"1082 125 OFFCURVE",
"1079 127 OFFCURVE",
"1074 127 CURVE SMOOTH",
"1038 127 OFFCURVE",
"1004 135 OFFCURVE",
"975 149 CURVE",
"975 156 LINE",
"969 202 OFFCURVE",
"957 234 OFFCURVE",
"937 260 CURVE SMOOTH",
"904 300 OFFCURVE",
"853 324 OFFCURVE",
"791 324 CURVE SMOOTH",
"704 324 OFFCURVE",
"482 310 OFFCURVE",
"389 310 CURVE SMOOTH",
"364 310 OFFCURVE",
"341 313 OFFCURVE",
"319 320 CURVE SMOOTH",
"298 326 OFFCURVE",
"287 334 OFFCURVE",
"287 342 CURVE SMOOTH",
"287 351 OFFCURVE",
"299 362 OFFCURVE",
"324 376 CURVE SMOOTH",
"351 391 OFFCURVE",
"394 410 OFFCURVE",
"483 444 CURVE SMOOTH",
"518 458 OFFCURVE",
"538 492 OFFCURVE",
"539 540 CURVE SMOOTH",
"539 555 OFFCURVE",
"537 571 OFFCURVE",
"534 588 CURVE",
"461 569 OFFCURVE",
"376 528 OFFCURVE",
"319 477 CURVE SMOOTH",
"263 426 OFFCURVE",
"235 374 OFFCURVE",
"235 325 CURVE SMOOTH",
"235 239 OFFCURVE",
"275 198 OFFCURVE",
"371 198 CURVE SMOOTH",
"478 198 OFFCURVE",
"686 214 OFFCURVE",
"791 214 CURVE SMOOTH",
"867 214 OFFCURVE",
"901 201 OFFCURVE",
"923 157 CURVE",
"766 138 OFFCURVE",
"500 127 OFFCURVE",
"271 127 CURVE SMOOTH",
"173 127 OFFCURVE",
"86 135 OFFCURVE",
"10 151 CURVE",
"9 132 LINE",
"9 73 OFFCURVE",
"45 25 OFFCURVE",
"96 16 CURVE SMOOTH",
"123 11 OFFCURVE",
"173 9 OFFCURVE",
"246 9 CURVE SMOOTH"
);
}
);
width = 1065;
}
);
},
{
glyphname = uni06AA.medi;
lastChange = "2019-12-18 10:09:45 +0000";
layers = (
{
anchors = (
{
name = bottom;
position = "{680, -52}";
},
{
name = top;
position = "{264, 567}";
}
);
layerId = master01;
paths = (
{
closed = 1;
nodes = (
"307 0 OFFCURVE",
"655 16 OFFCURVE",
"814 44 CURVE",
"856 15 OFFCURVE",
"901 0 OFFCURVE",
"947 0 CURVE SMOOTH",
"953 0 OFFCURVE",
"956 3 OFFCURVE",
"956 8 CURVE SMOOTH",
"956 68 LINE SMOOTH",
"956 73 OFFCURVE",
"953 76 OFFCURVE",
"947 76 CURVE SMOOTH",
"904 76 OFFCURVE",
"867 86 OFFCURVE",
"835 106 CURVE",
"836 125 LINE",
"836 154 OFFCURVE",
"829 178 OFFCURVE",
"813 199 CURVE SMOOTH",
"782 241 OFFCURVE",
"723 264 OFFCURVE",
"656 264 CURVE SMOOTH",
"553 264 OFFCURVE",
"362 250 OFFCURVE",
"261 250 CURVE SMOOTH",
"214 250 OFFCURVE",
"152 266 OFFCURVE",
"152 283 CURVE SMOOTH",
"152 292 OFFCURVE",
"161 305 OFFCURVE",
"179 320 CURVE SMOOTH",
"216 350 OFFCURVE",
"300 398 OFFCURVE",
"356 421 CURVE SMOOTH",
"395 438 OFFCURVE",
"401 471 OFFCURVE",
"401 495 CURVE SMOOTH",
"401 502 OFFCURVE",
"401 510 OFFCURVE",
"399 519 CURVE",
"352 507 OFFCURVE",
"305 486 OFFCURVE",
"258 458 CURVE SMOOTH",
"163 401 OFFCURVE",
"117 335 OFFCURVE",
"117 265 CURVE SMOOTH",
"117 198 OFFCURVE",
"154 172 OFFCURVE",
"243 172 CURVE SMOOTH",
"351 172 OFFCURVE",
"555 188 OFFCURVE",
"659 188 CURVE SMOOTH",
"735 188 OFFCURVE",
"779 164 OFFCURVE",
"799 106 CURVE",
"632 80 OFFCURVE",
"283 76 OFFCURVE",
"0 76 CURVE SMOOTH",
"-6 76 OFFCURVE",
"-8 73 OFFCURVE",
"-8 68 CURVE SMOOTH",
"-8 8 LINE SMOOTH",
"-8 3 OFFCURVE",
"-6 0 OFFCURVE",
"0 0 CURVE SMOOTH"
);
}
);
width = 938;
},
{
anchors = (
{
name = bottom;
position = "{675, -58}";
},
{
name = top;
position = "{259, 637}";
}
);
layerId = "26E2967D-790C-4793-AF2A-2D0AD74EDC69";
paths = (
{
closed = 1;
nodes = (
"243 9 OFFCURVE",
"639 27 OFFCURVE",
"816 51 CURVE",
"859 23 OFFCURVE",
"902 9 OFFCURVE",
"947 9 CURVE SMOOTH",
"953 9 OFFCURVE",
"956 12 OFFCURVE",
"956 17 CURVE SMOOTH",
"956 119 LINE SMOOTH",
"956 125 OFFCURVE",
"953 127 OFFCURVE",
"947 127 CURVE SMOOTH",
"909 127 OFFCURVE",
"875 136 OFFCURVE",
"845 152 CURVE",
"845 157 LINE",
"842 189 OFFCURVE",
"833 218 OFFCURVE",
"818 243 CURVE SMOOTH",
"787 293 OFFCURVE",
"731 324 OFFCURVE",
"660 324 CURVE SMOOTH",
"573 324 OFFCURVE",
"352 310 OFFCURVE",
"258 310 CURVE SMOOTH",
"222 310 OFFCURVE",
"156 321 OFFCURVE",
"156 342 CURVE SMOOTH",
"156 351 OFFCURVE",
"169 362 OFFCURVE",
"193 376 CURVE SMOOTH",
"220 391 OFFCURVE",
"263 410 OFFCURVE",
"353 444 CURVE SMOOTH",
"388 458 OFFCURVE",
"408 494 OFFCURVE",
"408 540 CURVE SMOOTH",
"408 555 OFFCURVE",
"406 571 OFFCURVE",
"403 588 CURVE",
"358 577 OFFCURVE",
"311 558 OFFCURVE",
"264 531 CURVE SMOOTH",
"169 479 OFFCURVE",
"104 398 OFFCURVE",
"104 325 CURVE SMOOTH",
"104 239 OFFCURVE",
"143 198 OFFCURVE",
"240 198 CURVE SMOOTH",
"347 198 OFFCURVE",
"555 214 OFFCURVE",
"660 214 CURVE SMOOTH",
"735 214 OFFCURVE",
"768 202 OFFCURVE",
"792 157 CURVE",
"644 140 OFFCURVE",
"273 127 OFFCURVE",
"0 127 CURVE SMOOTH",
"-6 127 OFFCURVE",
"-8 125 OFFCURVE",
"-8 119 CURVE SMOOTH",
"-8 17 LINE SMOOTH",
"-8 12 OFFCURVE",
"-6 9 OFFCURVE",
"0 9 CURVE SMOOTH"
);
}
);
width = 938;
}
);
},
{
glyphname = uni06AA.init;
lastChange = "2019-12-18 10:09:45 +0000";
layers = (
{
anchors = (
{
name = bottom;
position = "{657, -52}";
},
{
name = top;
position = "{259, 567}";
}
);
layerId = master01;
paths = (
{
closed = 1;
nodes = (
"304 0 OFFCURVE",
"655 16 OFFCURVE",
"815 44 CURVE",
"829 76 OFFCURVE",
"836 103 OFFCURVE",
"836 125 CURVE SMOOTH",
"836 154 OFFCURVE",
"829 178 OFFCURVE",
"813 199 CURVE SMOOTH",
"782 241 OFFCURVE",
"723 264 OFFCURVE",
"656 264 CURVE SMOOTH",
"553 264 OFFCURVE",
"362 250 OFFCURVE",
"261 250 CURVE SMOOTH",
"214 250 OFFCURVE",
"152 266 OFFCURVE",
"152 283 CURVE SMOOTH",
"152 292 OFFCURVE",
"161 305 OFFCURVE",
"179 320 CURVE SMOOTH",
"216 350 OFFCURVE",
"300 398 OFFCURVE",
"356 421 CURVE SMOOTH",
"395 438 OFFCURVE",
"401 471 OFFCURVE",
"401 495 CURVE SMOOTH",
"401 502 OFFCURVE",
"401 510 OFFCURVE",
"399 519 CURVE",
"352 507 OFFCURVE",
"305 486 OFFCURVE",
"258 458 CURVE SMOOTH",
"163 401 OFFCURVE",
"117 335 OFFCURVE",
"117 265 CURVE SMOOTH",
"117 198 OFFCURVE",
"154 172 OFFCURVE",
"243 172 CURVE SMOOTH",
"351 172 OFFCURVE",
"555 188 OFFCURVE",
"659 188 CURVE SMOOTH",
"735 188 OFFCURVE",
"779 164 OFFCURVE",
"799 106 CURVE",
"632 80 OFFCURVE",
"283 76 OFFCURVE",
"0 76 CURVE SMOOTH",
"-6 76 OFFCURVE",
"-8 73 OFFCURVE",
"-8 68 CURVE SMOOTH",
"-8 8 LINE SMOOTH",
"-8 3 OFFCURVE",
"-6 0 OFFCURVE",
"0 0 CURVE SMOOTH"
);
}
);
width = 887;
},
{
anchors = (
{
name = bottom;
position = "{672, -58}";
},
{
name = top;
position = "{259, 637}";
}
);
layerId = "26E2967D-790C-4793-AF2A-2D0AD74EDC69";
paths = (
{
closed = 1;
nodes = (
"264 9 OFFCURVE",
"663 28 OFFCURVE",
"825 53 CURVE",
"839 85 OFFCURVE",
"846 112 OFFCURVE",
"846 134 CURVE SMOOTH",
"846 248 OFFCURVE",
"772 324 OFFCURVE",
"660 324 CURVE SMOOTH",
"573 324 OFFCURVE",
"352 310 OFFCURVE",
"258 310 CURVE SMOOTH",
"233 310 OFFCURVE",
"210 313 OFFCURVE",
"188 320 CURVE SMOOTH",
"167 326 OFFCURVE",
"156 334 OFFCURVE",
"156 342 CURVE SMOOTH",
"156 351 OFFCURVE",
"169 362 OFFCURVE",
"193 376 CURVE SMOOTH",
"220 391 OFFCURVE",
"263 410 OFFCURVE",
"353 444 CURVE SMOOTH",
"388 458 OFFCURVE",
"408 494 OFFCURVE",
"408 540 CURVE SMOOTH",
"408 555 OFFCURVE",
"406 571 OFFCURVE",
"403 588 CURVE",
"358 577 OFFCURVE",
"311 558 OFFCURVE",
"264 531 CURVE SMOOTH",
"169 479 OFFCURVE",
"104 398 OFFCURVE",
"104 325 CURVE SMOOTH",
"104 239 OFFCURVE",
"143 198 OFFCURVE",
"240 198 CURVE SMOOTH",
"347 198 OFFCURVE",
"555 214 OFFCURVE",
"660 214 CURVE SMOOTH",
"735 214 OFFCURVE",
"768 202 OFFCURVE",
"792 157 CURVE",
"644 140 OFFCURVE",
"273 127 OFFCURVE",
"0 127 CURVE SMOOTH",
"-6 127 OFFCURVE",
"-8 125 OFFCURVE",
"-8 119 CURVE SMOOTH",
"-8 17 LINE SMOOTH",
"-8 12 OFFCURVE",
"-6 9 OFFCURVE",
"0 9 CURVE SMOOTH"
);
}
);
width = 887;
}
);
},
{
glyphname = uni0644;
lastChange = "2019-12-18 10:09:45 +0000";
layers = (
{
anchors = (
{
name = bottom;
position = "{308, -311}";
},
{
name = top;
position = "{399, 720}";
}
);
layerId = master01;
paths = (
{
closed = 1;
nodes = (
"297 -262 OFFCURVE",
"343 -250 OFFCURVE",
"388 -226 CURVE SMOOTH",
"478 -179 OFFCURVE",
"533 -99 OFFCURVE",
"533 -17 CURVE SMOOTH",
"533 42 OFFCURVE",
"526 120 OFFCURVE",
"513 220 CURVE SMOOTH",
"479 532 LINE",
"502 552 LINE",
"490 591 OFFCURVE",
"475 641 OFFCURVE",
"466 671 CURVE",
"421 661 OFFCURVE",
"401 638 OFFCURVE",
"401 593 CURVE SMOOTH",
"401 527 OFFCURVE",
"442 278 OFFCURVE",
"470 107 CURVE SMOOTH",
"496 -54 LINE",
"485 -77 OFFCURVE",
"466 -98 OFFCURVE",
"440 -117 CURVE SMOOTH",
"388 -156 OFFCURVE",
"315 -179 OFFCURVE",
"251 -179 CURVE SMOOTH",
"164 -179 OFFCURVE",
"113 -122 OFFCURVE",
"113 -24 CURVE SMOOTH",
"113 -6 OFFCURVE",
"117 18 OFFCURVE",
"124 47 CURVE",
"87 56 LINE",
"71 -10 OFFCURVE",
"68 -35 OFFCURVE",
"68 -74 CURVE SMOOTH",
"68 -194 OFFCURVE",
"135 -262 OFFCURVE",
"249 -262 CURVE SMOOTH"
);
}
);
width = 595;
},
{
anchors = (
{
name = bottom;
position = "{310, -301}";
},
{
name = top;
position = "{430, 729}";
}
);
layerId = "26E2967D-790C-4793-AF2A-2D0AD74EDC69";
paths = (
{
closed = 1;
nodes = (
"305 -252 OFFCURVE",
"355 -242 OFFCURVE",
"401 -220 CURVE SMOOTH",
"492 -178 OFFCURVE",
"549 -97 OFFCURVE",
"549 -7 CURVE SMOOTH",
"549 66 OFFCURVE",
"542 123 OFFCURVE",
"532 221 CURVE SMOOTH",
"502 533 LINE",
"534 557 LINE",
"519 594 OFFCURVE",
"506 635 OFFCURVE",
"494 680 CURVE",
"435 680 OFFCURVE",
"386 634 OFFCURVE",
"386 578 CURVE SMOOTH",
"386 551 OFFCURVE",
"442 219 OFFCURVE",
"471 72 CURVE SMOOTH",
"493 -45 LINE",
"472 -64 OFFCURVE",
"451 -81 OFFCURVE",
"430 -93 CURVE SMOOTH",
"380 -122 OFFCURVE",
"326 -134 OFFCURVE",
"253 -134 CURVE SMOOTH",
"165 -134 OFFCURVE",
"123 -88 OFFCURVE",
"123 7 CURVE SMOOTH",
"123 30 OFFCURVE",
"127 57 OFFCURVE",
"136 87 CURVE",
"92 98 LINE",
"76 35 OFFCURVE",
"67 -13 OFFCURVE",
"67 -47 CURVE SMOOTH",
"67 -180 OFFCURVE",
"131 -252 OFFCURVE",
"251 -252 CURVE SMOOTH"
);
}
);
width = 612;
}
);
unicode = "0644,FEDD";
},
{
glyphname = uniFEDE;
lastChange = "2019-12-18 10:09:45 +0000";
layers = (
{
anchors = (
{
name = bottom;
position = "{308, -311}";
},
{
name = top;
position = "{404, 720}";
}
);
layerId = master01;
paths = (
{
closed = 1;
nodes = (
"297 -262 OFFCURVE",
"343 -250 OFFCURVE",
"388 -226 CURVE SMOOTH",
"478 -179 OFFCURVE",
"533 -99 OFFCURVE",
"533 -17 CURVE SMOOTH",
"532 16 LINE",
"553 5 OFFCURVE",
"576 0 OFFCURVE",
"600 0 CURVE SMOOTH",
"606 0 OFFCURVE",
"608 3 OFFCURVE",
"608 8 CURVE SMOOTH",
"608 68 LINE SMOOTH",
"608 73 OFFCURVE",
"606 76 OFFCURVE",
"600 76 CURVE SMOOTH",
"573 76 OFFCURVE",
"548 82 OFFCURVE",
"527 93 CURVE",
"524 125 OFFCURVE",
"508 269 OFFCURVE",
"479 532 CURVE",
"502 552 LINE",
"487 593 OFFCURVE",
"473 641 OFFCURVE",
"466 671 CURVE",
"421 661 OFFCURVE",
"401 638 OFFCURVE",
"401 593 CURVE SMOOTH",
"401 572 OFFCURVE",
"405 528 OFFCURVE",
"414 461 CURVE SMOOTH",
"423 395 OFFCURVE",
"442 277 OFFCURVE",
"470 107 CURVE SMOOTH",
"496 -54 LINE",
"485 -77 OFFCURVE",
"466 -98 OFFCURVE",
"440 -117 CURVE SMOOTH",
"388 -156 OFFCURVE",
"315 -179 OFFCURVE",
"251 -179 CURVE SMOOTH",
"164 -179 OFFCURVE",
"113 -122 OFFCURVE",
"113 -24 CURVE SMOOTH",
"113 -6 OFFCURVE",
"117 18 OFFCURVE",
"124 47 CURVE",
"87 56 LINE",
"71 -10 OFFCURVE",
"68 -35 OFFCURVE",
"68 -74 CURVE SMOOTH",
"68 -194 OFFCURVE",
"135 -262 OFFCURVE",
"249 -262 CURVE SMOOTH"
);
}
);
width = 591;
},
{
anchors = (
{
name = bottom;
position = "{310, -301}";
},
{
name = top;
position = "{430, 729}";
}
);
layerId = "26E2967D-790C-4793-AF2A-2D0AD74EDC69";
paths = (
{
closed = 1;
nodes = (
"305 -252 OFFCURVE",
"355 -242 OFFCURVE",
"401 -220 CURVE SMOOTH",
"492 -178 OFFCURVE",
"549 -97 OFFCURVE",
"549 -7 CURVE SMOOTH",
"548 30 LINE",
"576 14 OFFCURVE",
"600 9 OFFCURVE",
"625 9 CURVE SMOOTH",
"631 9 OFFCURVE",
"634 12 OFFCURVE",
"634 17 CURVE SMOOTH",
"634 119 LINE SMOOTH",
"634 125 OFFCURVE",
"631 127 OFFCURVE",
"625 127 CURVE SMOOTH",
"595 127 OFFCURVE",
"566 136 OFFCURVE",
"539 152 CURVE",
"527 280 OFFCURVE",
"514 408 OFFCURVE",
"502 533 CURVE",
"534 557 LINE",
"519 594 OFFCURVE",
"506 635 OFFCURVE",
"494 680 CURVE",
"435 680 OFFCURVE",
"386 634 OFFCURVE",
"386 578 CURVE SMOOTH",
"386 549 OFFCURVE",
"413 410 OFFCURVE",
"426 326 CURVE SMOOTH",
"450 187 OFFCURVE",
"465 103 OFFCURVE",
"471 72 CURVE SMOOTH",
"493 -45 LINE",
"474 -63 OFFCURVE",
"455 -78 OFFCURVE",
"435 -90 CURVE SMOOTH",
"384 -122 OFFCURVE",
"329 -134 OFFCURVE",
"253 -134 CURVE SMOOTH",
"165 -134 OFFCURVE",
"123 -88 OFFCURVE",
"123 7 CURVE SMOOTH",
"123 30 OFFCURVE",
"127 57 OFFCURVE",
"136 87 CURVE",
"92 98 LINE",
"76 35 OFFCURVE",
"67 -13 OFFCURVE",
"67 -47 CURVE SMOOTH",
"67 -180 OFFCURVE",
"131 -252 OFFCURVE",
"251 -252 CURVE SMOOTH"
);
}
);
width = 617;
}
);
unicode = FEDE;
},
{
glyphname = uniFEE0;
lastChange = "2019-12-18 10:09:45 +0000";
layers = (
{
anchors = (
{
name = bottom;
position = "{132, -52}";
},
{
name = top;
position = "{79, 720}";
}
);
layerId = master01;
paths = (
{
closed = 1;
nodes = (
"57 0 OFFCURVE",
"89 8 OFFCURVE",
"138 36 CURVE",
"166 12 OFFCURVE",
"204 0 OFFCURVE",
"253 0 CURVE SMOOTH",
"259 0 OFFCURVE",
"262 3 OFFCURVE",
"262 8 CURVE SMOOTH",
"262 68 LINE SMOOTH",
"262 73 OFFCURVE",
"259 76 OFFCURVE",
"253 76 CURVE SMOOTH",
"214 76 OFFCURVE",
"179 85 OFFCURVE",
"149 103 CURVE",
"148 148 OFFCURVE",
"146 194 OFFCURVE",
"146 240 CURVE SMOOTH",
"143 436 OFFCURVE",
"139 579 OFFCURVE",
"135 671 CURVE",
"110 654 OFFCURVE",
"88 636 OFFCURVE",
"68 615 CURVE",
"71 571 OFFCURVE",
"74 526 OFFCURVE",
"78 482 CURVE SMOOTH",
"90 299 OFFCURVE",
"101 172 OFFCURVE",
"109 102 CURVE",
"74 85 OFFCURVE",
"38 76 OFFCURVE",
"0 76 CURVE SMOOTH",
"-6 76 OFFCURVE",
"-8 73 OFFCURVE",
"-8 68 CURVE SMOOTH",
"-8 8 LINE SMOOTH",
"-8 3 OFFCURVE",
"-6 0 OFFCURVE",
"0 0 CURVE SMOOTH"
);
}
);
width = 245;
},
{
anchors = (
{
name = bottom;
position = "{123, -58}";
},
{
name = top;
position = "{79, 729}";
}
);
layerId = "26E2967D-790C-4793-AF2A-2D0AD74EDC69";
paths = (
{
closed = 1;
nodes = (
"52 9 OFFCURVE",
"100 25 OFFCURVE",
"130 44 CURVE",
"156 21 OFFCURVE",
"197 9 OFFCURVE",
"253 9 CURVE SMOOTH",
"259 9 OFFCURVE",
"262 12 OFFCURVE",
"262 17 CURVE SMOOTH",
"262 119 LINE SMOOTH",
"262 125 OFFCURVE",
"259 127 OFFCURVE",
"253 127 CURVE SMOOTH",
"207 127 OFFCURVE",
"174 135 OFFCURVE",
"144 155 CURVE",
"144 184 OFFCURVE",
"144 213 OFFCURVE",
"144 271 CURVE SMOOTH",
"145 434 OFFCURVE",
"150 605 OFFCURVE",
"152 680 CURVE",
"109 661 OFFCURVE",
"69 640 OFFCURVE",
"33 614 CURVE",
"38 566 OFFCURVE",
"43 521 OFFCURVE",
"48 478 CURVE SMOOTH",
"63 351 OFFCURVE",
"78 240 OFFCURVE",
"93 146 CURVE",
"63 134 OFFCURVE",
"32 127 OFFCURVE",
"0 127 CURVE SMOOTH",
"-6 127 OFFCURVE",
"-8 125 OFFCURVE",
"-8 119 CURVE SMOOTH",
"-8 17 LINE SMOOTH",
"-8 12 OFFCURVE",
"-6 9 OFFCURVE",
"0 9 CURVE SMOOTH"
);
}
);
width = 245;
}
);
unicode = FEE0;
},
{
glyphname = uniFEE0.rlig;
lastChange = "2019-12-18 10:09:45 +0000";
layers = (
{
anchors = (
{
name = bottom;
position = "{507, -52}";
},
{
name = top;
position = "{453, 720}";
}
);
layerId = master01;
paths = (
{
closed = 1;
nodes = (
"126 1 OFFCURVE",
"185 4 OFFCURVE",
"259 12 CURVE SMOOTH",
"303 18 OFFCURVE",
"340 41 OFFCURVE",
"369 83 CURVE SMOOTH",
"387 109 OFFCURVE",
"402 144 OFFCURVE",
"415 187 CURVE SMOOTH",
"429 235 OFFCURVE",
"444 346 OFFCURVE",
"450 405 CURVE",
"453 367 OFFCURVE",
"458 283 OFFCURVE",
"459 263 CURVE SMOOTH",
"463 208 OFFCURVE",
"469 152 OFFCURVE",
"477 87 CURVE SMOOTH",
"485 26 OFFCURVE",
"552 0 OFFCURVE",
"619 0 CURVE SMOOTH",
"624 0 OFFCURVE",
"627 3 OFFCURVE",
"627 8 CURVE SMOOTH",
"627 68 LINE SMOOTH",
"627 72 OFFCURVE",
"626 76 OFFCURVE",
"619 76 CURVE SMOOTH",
"594 76 OFFCURVE",
"573 79 OFFCURVE",
"555 85 CURVE SMOOTH",
"540 90 OFFCURVE",
"527 95 OFFCURVE",
"515 103 CURVE",
"512 194 OFFCURVE",
"511 254 OFFCURVE",
"509 383 CURVE SMOOTH",
"507 478 OFFCURVE",
"505 571 OFFCURVE",
"500 671 CURVE",
"478 655 OFFCURVE",
"458 641 OFFCURVE",
"433 615 CURVE",
"430 527 OFFCURVE",
"424 439 OFFCURVE",
"410 362 CURVE SMOOTH",
"397 285 OFFCURVE",
"376 219 OFFCURVE",
"344 175 CURVE SMOOTH",
"316 136 OFFCURVE",
"281 110 OFFCURVE",
"234 90 CURVE SMOOTH",
"187 69 OFFCURVE",
"128 54 OFFCURVE",
"53 35 CURVE",
"56 0 LINE"
);
}
);
width = 610;
},
{
anchors = (
{
name = bottom;
position = "{507, -52}";
},
{
name = top;
position = "{453, 720}";
}
);
layerId = "26E2967D-790C-4793-AF2A-2D0AD74EDC69";
paths = (
{
closed = 1;
nodes = (
"139 5 OFFCURVE",
"211 9 OFFCURVE",
"293 19 CURVE SMOOTH",
"329 23 OFFCURVE",
"356 39 OFFCURVE",
"379 68 CURVE SMOOTH",
"401 97 OFFCURVE",
"419 137 OFFCURVE",
"435 191 CURVE SMOOTH",
"448 238 OFFCURVE",
"445 244 OFFCURVE",
"462 387 CURVE",
"464 359 OFFCURVE",
"469 298 OFFCURVE",
"472 258 CURVE SMOOTH",
"476 202 OFFCURVE",
"479 146 OFFCURVE",
"487 99 CURVE SMOOTH",
"498 33 OFFCURVE",
"562 9 OFFCURVE",
"639 9 CURVE SMOOTH",
"645 9 OFFCURVE",
"648 12 OFFCURVE",
"648 17 CURVE SMOOTH",
"648 119 LINE SMOOTH",
"648 124 OFFCURVE",
"646 127 OFFCURVE",
"639 127 CURVE SMOOTH",
"614 127 OFFCURVE",
"593 130 OFFCURVE",
"575 134 CURVE SMOOTH",
"559 139 OFFCURVE",
"544 146 OFFCURVE",
"529 155 CURVE",
"529 176 OFFCURVE",
"527 287 OFFCURVE",
"527 329 CURVE SMOOTH",
"526 381 OFFCURVE",
"524 623 OFFCURVE",
"524 680 CURVE",
"482 656 OFFCURVE",
"457 635 OFFCURVE",
"418 613 CURVE",
"418 504 OFFCURVE",
"411 420 OFFCURVE",
"396 354 CURVE SMOOTH",
"382 287 OFFCURVE",
"361 237 OFFCURVE",
"333 195 CURVE SMOOTH",
"306 156 OFFCURVE",
"275 129 OFFCURVE",
"231 106 CURVE SMOOTH",
"187 84 OFFCURVE",
"133 67 OFFCURVE",
"59 48 CURVE",
"64 3 LINE"
);
}
);
width = 631;
}
);
},
{
glyphname = uniFEDF;
lastChange = "2019-12-18 10:09:45 +0000";
layers = (
{
anchors = (
{
name = bottom;
position = "{120, -52}";
},
{
name = top;
position = "{79, 720}";
}
);
layerId = master01;
paths = (
{
closed = 1;
nodes = (
"66 0 OFFCURVE",
"106 12 OFFCURVE",
"118 35 CURVE SMOOTH",
"138 70 OFFCURVE",
"153 112 OFFCURVE",
"153 135 CURVE SMOOTH",
"152 206 OFFCURVE",
"149 291 OFFCURVE",
"143 388 CURVE SMOOTH",
"135 505 OFFCURVE",
"130 599 OFFCURVE",
"126 671 CURVE",
"101 653 OFFCURVE",
"79 635 OFFCURVE",
"60 615 CURVE",
"74 497 OFFCURVE",
"86 376 OFFCURVE",
"98 251 CURVE SMOOTH",
"102 203 OFFCURVE",
"106 153 OFFCURVE",
"110 103 CURVE",
"76 85 OFFCURVE",
"39 76 OFFCURVE",
"-1 76 CURVE SMOOTH",
"-7 76 OFFCURVE",
"-10 73 OFFCURVE",
"-10 68 CURVE SMOOTH",
"-10 8 LINE SMOOTH",
"-10 3 OFFCURVE",
"-7 0 OFFCURVE",
"-1 0 CURVE SMOOTH"
);
}
);
width = 212;
},
{
anchors = (
{
name = bottom;
position = "{115, -58}";
},
{
name = top;
position = "{79, 729}";
}
);
layerId = "26E2967D-790C-4793-AF2A-2D0AD74EDC69";
paths = (
{
closed = 1;
nodes = (
"59 9 OFFCURVE",
"106 21 OFFCURVE",
"119 40 CURVE SMOOTH",
"145 79 OFFCURVE",
"158 122 OFFCURVE",
"158 167 CURVE SMOOTH",
"158 229 OFFCURVE",
"157 302 OFFCURVE",
"154 387 CURVE SMOOTH",
"151 472 OFFCURVE",
"148 570 OFFCURVE",
"146 680 CURVE",
"103 659 OFFCURVE",
"62 638 OFFCURVE",
"27 614 CURVE",
"62 421 OFFCURVE",
"83 305 OFFCURVE",
"89 267 CURVE SMOOTH",
"95 228 OFFCURVE",
"100 189 OFFCURVE",
"105 150 CURVE",
"65 135 OFFCURVE",
"30 127 OFFCURVE",
"0 127 CURVE SMOOTH",
"-6 127 OFFCURVE",
"-8 125 OFFCURVE",
"-8 119 CURVE SMOOTH",
"-8 17 LINE SMOOTH",
"-8 12 OFFCURVE",
"-6 9 OFFCURVE",
"0 9 CURVE SMOOTH"
);
}
);
width = 217;
}
);
unicode = FEDF;
},
{
glyphname = uniFEDF.rlig;
lastChange = "2019-12-18 10:09:45 +0000";
layers = (
{
anchors = (
{
name = bottom;
position = "{419, -52}";
},
{
name = top;
position = "{375, 737}";
}
);
layerId = master01;
paths = (
{
closed = 1;
nodes = (
"280 98 OFFCURVE",
"330 142 OFFCURVE",
"367 195 CURVE SMOOTH",
"404 248 OFFCURVE",
"429 311 OFFCURVE",
"429 382 CURVE SMOOTH",
"429 395 OFFCURVE",
"423 532 OFFCURVE",
"422 546 CURVE",
"449 569 LINE",
"432 616 OFFCURVE",
"424 646 OFFCURVE",
"413 688 CURVE",
"371 680 OFFCURVE",
"347 661 OFFCURVE",
"347 625 CURVE SMOOTH",
"347 592 OFFCURVE",
"379 413 OFFCURVE",
"379 362 CURVE SMOOTH",
"379 304 OFFCURVE",
"354 254 OFFCURVE",
"315 207 CURVE SMOOTH",
"276 160 OFFCURVE",
"222 116 OFFCURVE",
"164 71 CURVE",
"231 66 LINE"
);
}
);
width = 518;
},
{
anchors = (
{
name = bottom;
position = "{419, -52}";
},
{
name = top;
position = "{375, 737}";
}
);
layerId = "26E2967D-790C-4793-AF2A-2D0AD74EDC69";
paths = (
{
closed = 1;
nodes = (
"285 116 OFFCURVE",
"330 155 OFFCURVE",
"369 204 CURVE SMOOTH",
"421 271 OFFCURVE",
"453 351 OFFCURVE",
"453 436 CURVE SMOOTH",
"453 446 OFFCURVE",
"451 522 OFFCURVE",
"449 549 CURVE",
"482 574 LINE",
"465 616 OFFCURVE",
"455 647 OFFCURVE",
"442 697 CURVE",
"380 697 OFFCURVE",
"337 662 OFFCURVE",
"337 608 CURVE SMOOTH",
"337 570 OFFCURVE",
"368 427 OFFCURVE",
"368 387 CURVE SMOOTH",
"368 329 OFFCURVE",
"349 279 OFFCURVE",
"316 232 CURVE SMOOTH",
"283 186 OFFCURVE",
"235 142 OFFCURVE",
"177 97 CURVE",
"231 79 LINE"
);
}
);
width = 546;
}
);
},
{
glyphname = uni06B8.init;
lastChange = "2019-12-18 10:09:45 +0000";
layers = (
{
anchors = (
{
name = bottom;
position = "{137, -258}";
},
{
name = top;
position = "{201, 720}";
}
);
layerId = master01;
paths = (
{
closed = 1;
nodes = (
"77 0 OFFCURVE",
"234 9 OFFCURVE",
"247 35 CURVE SMOOTH",
"270 79 OFFCURVE",
"281 113 OFFCURVE",
"281 135 CURVE SMOOTH",
"280 291 OFFCURVE",
"262 509 OFFCURVE",
"255 671 CURVE",
"229 653 OFFCURVE",
"207 635 OFFCURVE",
"188 615 CURVE",
"209 436 OFFCURVE",
"226 265 OFFCURVE",
"238 104 CURVE",
"187 87 OFFCURVE",
"79 76 OFFCURVE",
"0 76 CURVE SMOOTH",
"-6 76 OFFCURVE",
"-8 73 OFFCURVE",
"-8 68 CURVE SMOOTH",
"-8 8 LINE SMOOTH",
"-8 3 OFFCURVE",
"-6 0 OFFCURVE",
"0 0 CURVE SMOOTH"
);
},
{
closed = 1;
nodes = (
"84 -156 OFFCURVE",
"102 -136 OFFCURVE",
"113 -119 CURVE",
"85 -91 OFFCURVE",
"66 -73 OFFCURVE",
"59 -64 CURVE",
"29 -96 OFFCURVE",
"10 -116 OFFCURVE",
"0 -125 CURVE",
"16 -142 OFFCURVE",
"36 -161 OFFCURVE",
"60 -180 CURVE"
);
},
{
closed = 1;
nodes = (
"150 -239 OFFCURVE",
"167 -222 OFFCURVE",
"188 -199 CURVE",
"162 -175 OFFCURVE",
"143 -156 OFFCURVE",
"133 -143 CURVE",
"118 -162 OFFCURVE",
"100 -181 OFFCURVE",
"80 -199 CURVE",
"99 -221 OFFCURVE",
"118 -237 OFFCURVE",
"136 -249 CURVE"
);
},
{
closed = 1;
nodes = (
"227 -144 OFFCURVE",
"245 -124 OFFCURVE",
"257 -105 CURVE",
"234 -89 OFFCURVE",
"217 -71 OFFCURVE",
"202 -52 CURVE",
"180 -76 OFFCURVE",
"161 -96 OFFCURVE",
"143 -111 CURVE",
"158 -130 OFFCURVE",
"178 -148 OFFCURVE",
"203 -167 CURVE"
);
}
);
width = 352;
},
{
anchors = (
{
name = bottom;
position = "{127, -217}";
},
{
name = top;
position = "{177, 714}";
}
);
layerId = "26E2967D-790C-4793-AF2A-2D0AD74EDC69";
paths = (
{
closed = 1;
nodes = (
"131 9 OFFCURVE",
"203 19 OFFCURVE",
"217 40 CURVE SMOOTH",
"247 88 OFFCURVE",
"256 123 OFFCURVE",
"256 167 CURVE SMOOTH",
"256 285 OFFCURVE",
"248 516 OFFCURVE",
"245 680 CURVE",
"205 661 OFFCURVE",
"165 639 OFFCURVE",
"125 614 CURVE",
"161 418 OFFCURVE",
"185 296 OFFCURVE",
"204 150 CURVE",
"158 134 OFFCURVE",
"111 127 OFFCURVE",
"0 127 CURVE SMOOTH",
"-6 127 OFFCURVE",
"-8 125 OFFCURVE",
"-8 119 CURVE SMOOTH",
"-8 17 LINE SMOOTH",
"-8 12 OFFCURVE",
"-6 9 OFFCURVE",
"0 9 CURVE SMOOTH"
);
},
{
closed = 1;
nodes = (
"90 -140 OFFCURVE",
"104 -123 OFFCURVE",
"115 -107 CURVE",
"96 -89 OFFCURVE",
"81 -75 OFFCURVE",
"71 -63 CURVE",
"56 -81 OFFCURVE",
"40 -97 OFFCURVE",
"22 -112 CURVE",
"34 -125 OFFCURVE",
"50 -140 OFFCURVE",
"71 -157 CURVE"
);
},
{
closed = 1;
nodes = (
"138 -199 OFFCURVE",
"146 -189 OFFCURVE",
"166 -167 CURVE",
"149 -153 OFFCURVE",
"135 -140 OFFCURVE",
"125 -127 CURVE",
"106 -146 OFFCURVE",
"96 -157 OFFCURVE",
"83 -167 CURVE",
"93 -178 OFFCURVE",
"107 -192 OFFCURVE",
"127 -208 CURVE"
);
},
{
closed = 1;
nodes = (
"188 -130 OFFCURVE",
"202 -113 OFFCURVE",
"213 -97 CURVE",
"196 -83 OFFCURVE",
"182 -68 OFFCURVE",
"168 -53 CURVE",
"153 -71 OFFCURVE",
"137 -87 OFFCURVE",
"121 -102 CURVE",
"135 -118 OFFCURVE",
"151 -132 OFFCURVE",
"169 -146 CURVE"
);
}
);
width = 327;
}
);
},
{
glyphname = uni0645;
lastChange = "2019-12-18 10:09:45 +0000";
layers = (
{
anchors = (
{
name = bottom;
position = "{293, -50}";
},
{
name = top;
position = "{222, 398}";
}
);
layerId = master01;
paths = (
{
closed = 1;
nodes = (
"113 -295 OFFCURVE",
"135 -282 OFFCURVE",
"154 -268 CURVE",
"148 -219 OFFCURVE",
"139 -162 OFFCURVE",
"126 -97 CURVE SMOOTH",
"119 -58 OFFCURVE",
"113 -20 OFFCURVE",
"106 20 CURVE",
"180 45 OFFCURVE",
"271 58 OFFCURVE",
"412 58 CURVE",
"450 160 LINE",
"415 186 OFFCURVE",
"382 224 OFFCURVE",
"339 284 CURVE SMOOTH",
"305 329 OFFCURVE",
"278 349 OFFCURVE",
"248 349 CURVE SMOOTH",
"192 349 OFFCURVE",
"139 298 OFFCURVE",
"104 208 CURVE",
"136 192 LINE",
"170 245 OFFCURVE",
"197 266 OFFCURVE",
"229 266 CURVE SMOOTH",
"259 266 OFFCURVE",
"295 231 OFFCURVE",
"337 162 CURVE",
"358 131 LINE",
"241 131 OFFCURVE",
"173 120 OFFCURVE",
"100 98 CURVE",
"83 63 OFFCURVE",
"68 30 OFFCURVE",
"68 5 CURVE SMOOTH",
"68 -10 OFFCURVE",
"71 -51 OFFCURVE",
"77 -118 CURVE SMOOTH",
"83 -191 OFFCURVE",
"87 -254 OFFCURVE",
"87 -305 CURVE"
);
}
);
width = 489;
},
{
anchors = (
{
name = bottom;
position = "{303, -58}";
},
{
name = top;
position = "{227, 456}";
}
);
layerId = "26E2967D-790C-4793-AF2A-2D0AD74EDC69";
paths = (
{
closed = 1;
nodes = (
"107 -316 OFFCURVE",
"140 -297 OFFCURVE",
"175 -272 CURVE",
"163 -213 OFFCURVE",
"151 -155 OFFCURVE",
"139 -97 CURVE SMOOTH",
"131 -60 OFFCURVE",
"123 -22 OFFCURVE",
"115 15 CURVE",
"162 32 OFFCURVE",
"312 51 OFFCURVE",
"422 51 CURVE",
"468 170 LINE",
"427 199 OFFCURVE",
"391 241 OFFCURVE",
"348 304 CURVE SMOOTH",
"308 361 OFFCURVE",
"282 383 OFFCURVE",
"250 383 CURVE SMOOTH",
"195 383 OFFCURVE",
"137 318 OFFCURVE",
"99 219 CURVE",
"140 198 LINE",
"172 243 OFFCURVE",
"200 266 OFFCURVE",
"231 266 CURVE SMOOTH",
"263 266 OFFCURVE",
"290 224 OFFCURVE",
"324 180 CURVE SMOOTH",
"343 159 LINE",
"289 159 OFFCURVE",
"102 136 OFFCURVE",
"93 118 CURVE SMOOTH",
"65 58 OFFCURVE",
"51 18 OFFCURVE",
"51 0 CURVE SMOOTH",
"51 -24 OFFCURVE",
"55 -70 OFFCURVE",
"62 -138 CURVE SMOOTH",
"70 -205 OFFCURVE",
"74 -268 OFFCURVE",
"74 -328 CURVE"
);
}
);
width = 502;
}
);
unicode = "0645,FEE1";
},
{
glyphname = uniFEE2;
lastChange = "2019-12-18 10:09:45 +0000";
layers = (
{
anchors = (
{
name = bottom;
position = "{337, -98}";
},
{
name = top;
position = "{276, 389}";
}
);
layerId = master01;
paths = (
{
closed = 1;
nodes = (
"124 -295 OFFCURVE",
"146 -282 OFFCURVE",
"166 -268 CURVE",
"158 -216 OFFCURVE",
"150 -164 OFFCURVE",
"143 -112 CURVE SMOOTH",
"126 -9 OFFCURVE",
"115 70 OFFCURVE",
"110 126 CURVE",
"135 145 OFFCURVE",
"163 165 OFFCURVE",
"194 186 CURVE",
"181 161 OFFCURVE",
"175 138 OFFCURVE",
"175 117 CURVE SMOOTH",
"175 48 OFFCURVE",
"295 0 OFFCURVE",
"433 0 CURVE",
"445 43 LINE",
"473 14 OFFCURVE",
"503 0 OFFCURVE",
"536 0 CURVE SMOOTH",
"544 0 OFFCURVE",
"547 4 OFFCURVE",
"547 11 CURVE SMOOTH",
"547 66 LINE SMOOTH",
"547 73 OFFCURVE",
"544 76 OFFCURVE",
"536 76 CURVE SMOOTH",
"520 76 OFFCURVE",
"505 87 OFFCURVE",
"490 108 CURVE SMOOTH",
"476 129 OFFCURVE",
"460 162 OFFCURVE",
"444 208 CURVE SMOOTH",
"427 255 OFFCURVE",
"412 288 OFFCURVE",
"399 309 CURVE SMOOTH",
"387 330 OFFCURVE",
"375 340 OFFCURVE",
"362 340 CURVE SMOOTH",
"334 340 OFFCURVE",
"288 320 OFFCURVE",
"230 286 CURVE SMOOTH",
"188 260 OFFCURVE",
"109 205 OFFCURVE",
"103 192 CURVE SMOOTH",
"87 158 OFFCURVE",
"77 135 OFFCURVE",
"73 123 CURVE SMOOTH",
"70 111 OFFCURVE",
"68 101 OFFCURVE",
"68 93 CURVE SMOOTH",
"68 49 OFFCURVE",
"72 -6 OFFCURVE",
"79 -70 CURVE SMOOTH",
"88 -151 OFFCURVE",
"94 -229 OFFCURVE",
"99 -305 CURVE"
);
},
{
closed = 1;
nodes = (
"337 78 OFFCURVE",
"271 101 OFFCURVE",
"228 138 CURVE",
"248 180 OFFCURVE",
"308 236 OFFCURVE",
"364 264 CURVE",
"371 192 OFFCURVE",
"396 116 OFFCURVE",
"426 69 CURVE"
);
}
);
width = 528;
},
{
anchors = (
{
name = bottom;
position = "{372, -76}";
},
{
name = top;
position = "{276, 439}";
}
);
layerId = "26E2967D-790C-4793-AF2A-2D0AD74EDC69";
paths = (
{
closed = 1;
nodes = (
"122 -295 OFFCURVE",
"155 -276 OFFCURVE",
"190 -250 CURVE",
"186 -218 OFFCURVE",
"178 -169 OFFCURVE",
"167 -105 CURVE SMOOTH",
"149 0 OFFCURVE",
"138 65 OFFCURVE",
"128 135 CURVE",
"164 162 OFFCURVE",
"190 180 OFFCURVE",
"206 190 CURVE",
"198 167 OFFCURVE",
"194 144 OFFCURVE",
"194 121 CURVE SMOOTH",
"194 46 OFFCURVE",
"306 0 OFFCURVE",
"458 0 CURVE",
"471 47 LINE",
"498 22 OFFCURVE",
"528 9 OFFCURVE",
"561 9 CURVE SMOOTH",
"568 9 OFFCURVE",
"572 12 OFFCURVE",
"572 20 CURVE SMOOTH",
"572 118 LINE SMOOTH",
"572 124 OFFCURVE",
"568 127 OFFCURVE",
"561 127 CURVE SMOOTH",
"545 127 OFFCURVE",
"531 133 OFFCURVE",
"520 145 CURVE SMOOTH",
"498 168 OFFCURVE",
"480 206 OFFCURVE",
"466 247 CURVE SMOOTH",
"459 267 OFFCURVE",
"451 286 OFFCURVE",
"444 304 CURVE SMOOTH",
"428 339 OFFCURVE",
"411 366 OFFCURVE",
"387 366 CURVE SMOOTH",
"350 366 OFFCURVE",
"297 345 OFFCURVE",
"241 314 CURVE SMOOTH",
"186 282 OFFCURVE",
"116 229 OFFCURVE",
"110 219 CURVE SMOOTH",
"94 184 OFFCURVE",
"83 157 OFFCURVE",
"77 140 CURVE SMOOTH",
"71 122 OFFCURVE",
"68 110 OFFCURVE",
"68 102 CURVE SMOOTH",
"68 75 OFFCURVE",
"71 16 OFFCURVE",
"79 -76 CURVE SMOOTH",
"85 -168 OFFCURVE",
"89 -245 OFFCURVE",
"89 -307 CURVE"
);
},
{
closed = 1;
nodes = (
"346 121 OFFCURVE",
"285 141 OFFCURVE",
"251 169 CURVE",
"284 208 OFFCURVE",
"328 238 OFFCURVE",
"384 260 CURVE",
"390 204 OFFCURVE",
"404 155 OFFCURVE",
"426 111 CURVE"
);
}
);
width = 555;
}
);
unicode = FEE2;
},
{
glyphname = uniFEE4;
lastChange = "2019-12-18 10:09:45 +0000";
layers = (
{
anchors = (
{
name = bottom;
position = "{242, -62}";
},
{
name = top;
position = "{195, 389}";
}
);
layerId = master01;
paths = (
{
closed = 1;
nodes = (
"328 44 LINE",
"355 15 OFFCURVE",
"385 0 OFFCURVE",
"419 0 CURVE SMOOTH",
"426 0 OFFCURVE",
"430 4 OFFCURVE",
"430 11 CURVE SMOOTH",
"430 66 LINE SMOOTH",
"430 73 OFFCURVE",
"426 76 OFFCURVE",
"419 76 CURVE SMOOTH",
"405 76 OFFCURVE",
"393 83 OFFCURVE",
"382 96 CURVE SMOOTH",
"361 122 OFFCURVE",
"342 162 OFFCURVE",
"326 208 CURVE SMOOTH",
"318 231 OFFCURVE",
"310 252 OFFCURVE",
"301 271 CURVE SMOOTH",
"284 311 OFFCURVE",
"267 340 OFFCURVE",
"245 340 CURVE SMOOTH",
"218 340 OFFCURVE",
"191 328 OFFCURVE",
"162 305 CURVE SMOOTH",
"104 258 OFFCURVE",
"58 173 OFFCURVE",
"58 117 CURVE SMOOTH",
"58 106 OFFCURVE",
"60 96 OFFCURVE",
"65 86 CURVE",
"44 80 OFFCURVE",
"22 76 OFFCURVE",
"0 76 CURVE SMOOTH",
"-6 76 OFFCURVE",
"-8 73 OFFCURVE",
"-8 68 CURVE SMOOTH",
"-8 8 LINE SMOOTH",
"-8 3 OFFCURVE",
"-6 0 OFFCURVE",
"0 0 CURVE SMOOTH",
"42 0 OFFCURVE",
"77 6 OFFCURVE",
"141 30 CURVE",
"194 10 OFFCURVE",
"251 0 OFFCURVE",
"315 0 CURVE"
);
},
{
closed = 1;
nodes = (
"220 78 OFFCURVE",
"154 101 OFFCURVE",
"110 137 CURVE",
"131 181 OFFCURVE",
"196 241 OFFCURVE",
"247 263 CURVE",
"255 186 OFFCURVE",
"280 112 OFFCURVE",
"309 69 CURVE"
);
}
);
width = 413;
},
{
anchors = (
{
name = bottom;
position = "{237, -58}";
},
{
name = top;
position = "{205, 439}";
}
);
layerId = "26E2967D-790C-4793-AF2A-2D0AD74EDC69";
paths = (
{
closed = 1;
nodes = (
"329 47 LINE",
"355 22 OFFCURVE",
"385 9 OFFCURVE",
"419 9 CURVE SMOOTH",
"426 9 OFFCURVE",
"430 12 OFFCURVE",
"430 20 CURVE SMOOTH",
"430 118 LINE SMOOTH",
"430 124 OFFCURVE",
"426 127 OFFCURVE",
"419 127 CURVE SMOOTH",
"402 127 OFFCURVE",
"388 135 OFFCURVE",
"374 150 CURVE SMOOTH",
"356 169 OFFCURVE",
"340 201 OFFCURVE",
"324 247 CURVE SMOOTH",
"308 291 OFFCURVE",
"294 322 OFFCURVE",
"283 340 CURVE SMOOTH",
"271 357 OFFCURVE",
"258 366 OFFCURVE",
"245 366 CURVE SMOOTH",
"216 366 OFFCURVE",
"187 355 OFFCURVE",
"159 333 CURVE SMOOTH",
"105 292 OFFCURVE",
"62 214 OFFCURVE",
"53 144 CURVE SMOOTH",
"53 140 OFFCURVE",
"52 137 OFFCURVE",
"52 134 CURVE",
"33 129 OFFCURVE",
"18 127 OFFCURVE",
"0 127 CURVE SMOOTH",
"-6 127 OFFCURVE",
"-8 125 OFFCURVE",
"-8 119 CURVE SMOOTH",
"-8 17 LINE SMOOTH",
"-8 12 OFFCURVE",
"-6 9 OFFCURVE",
"0 9 CURVE SMOOTH",
"39 9 OFFCURVE",
"70 17 OFFCURVE",
"107 42 CURVE",
"153 17 OFFCURVE",
"230 0 OFFCURVE",
"315 0 CURVE"
);
},
{
closed = 1;
nodes = (
"204 121 OFFCURVE",
"146 139 OFFCURVE",
"109 169 CURVE",
"139 207 OFFCURVE",
"184 237 OFFCURVE",
"242 260 CURVE",
"248 204 OFFCURVE",
"262 155 OFFCURVE",
"284 111 CURVE"
);
}
);
width = 413;
}
);
unicode = FEE4;
},
{
glyphname = uniFEE3;
lastChange = "2019-12-18 10:09:45 +0000";
layers = (
{
anchors = (
{
name = bottom;
position = "{231, -62}";
},
{
name = top;
position = "{247, 389}";
}
);
layerId = master01;
paths = (
{
closed = 1;
nodes = (
"396 31 OFFCURVE",
"409 63 OFFCURVE",
"409 104 CURVE SMOOTH",
"409 139 OFFCURVE",
"403 175 OFFCURVE",
"391 212 CURVE SMOOTH",
"367 287 OFFCURVE",
"325 340 OFFCURVE",
"286 340 CURVE SMOOTH",
"247 340 OFFCURVE",
"213 322 OFFCURVE",
"180 278 CURVE SMOOTH",
"152 241 OFFCURVE",
"145 215 OFFCURVE",
"109 150 CURVE SMOOTH",
"83 101 OFFCURVE",
"51 76 OFFCURVE",
"0 76 CURVE SMOOTH",
"-6 76 OFFCURVE",
"-8 73 OFFCURVE",
"-8 68 CURVE SMOOTH",
"-8 8 LINE SMOOTH",
"-8 3 OFFCURVE",
"-6 0 OFFCURVE",
"0 0 CURVE SMOOTH",
"51 0 OFFCURVE",
"86 17 OFFCURVE",
"117 60 CURVE",
"178 24 OFFCURVE",
"278 0 OFFCURVE",
"358 0 CURVE"
);
},
{
closed = 1;
nodes = (
"263 84 OFFCURVE",
"203 101 OFFCURVE",
"156 126 CURVE",
"175 164 OFFCURVE",
"190 190 OFFCURVE",
"201 206 CURVE SMOOTH",
"223 237 OFFCURVE",
"245 251 OFFCURVE",
"270 251 CURVE SMOOTH",
"277 251 OFFCURVE",
"286 245 OFFCURVE",
"293 234 CURVE SMOOTH",
"314 203 OFFCURVE",
"334 137 OFFCURVE",
"336 76 CURVE"
);
}
);
width = 456;
},
{
anchors = (
{
name = bottom;
position = "{261, -58}";
},
{
name = top;
position = "{247, 439}";
}
);
layerId = "26E2967D-790C-4793-AF2A-2D0AD74EDC69";
paths = (
{
closed = 1;
nodes = (
"397 25 OFFCURVE",
"426 78 OFFCURVE",
"426 113 CURVE SMOOTH",
"426 149 OFFCURVE",
"419 188 OFFCURVE",
"404 229 CURVE SMOOTH",
"375 311 OFFCURVE",
"325 366 OFFCURVE",
"277 366 CURVE SMOOTH",
"238 366 OFFCURVE",
"212 348 OFFCURVE",
"179 303 CURVE SMOOTH",
"164 283 OFFCURVE",
"145 249 OFFCURVE",
"121 201 CURVE SMOOTH",
"95 152 OFFCURVE",
"55 127 OFFCURVE",
"0 127 CURVE SMOOTH",
"-6 127 OFFCURVE",
"-8 125 OFFCURVE",
"-8 119 CURVE SMOOTH",
"-8 17 LINE SMOOTH",
"-8 12 OFFCURVE",
"-6 9 OFFCURVE",
"0 9 CURVE SMOOTH",
"53 9 OFFCURVE",
"86 22 OFFCURVE",
"118 56 CURVE",
"181 23 OFFCURVE",
"278 0 OFFCURVE",
"367 0 CURVE"
);
},
{
closed = 1;
nodes = (
"270 117 OFFCURVE",
"217 131 OFFCURVE",
"175 150 CURVE",
"196 191 OFFCURVE",
"212 218 OFFCURVE",
"223 230 CURVE SMOOTH",
"234 242 OFFCURVE",
"247 248 OFFCURVE",
"262 248 CURVE SMOOTH",
"271 248 OFFCURVE",
"280 242 OFFCURVE",
"291 229 CURVE SMOOTH",
"311 204 OFFCURVE",
"329 159 OFFCURVE",
"334 110 CURVE"
);
}
);
width = 473;
}
);
unicode = FEE3;
},
{
glyphname = uni06BA;
lastChange = "2019-12-18 10:09:45 +0000";
layers = (
{
anchors = (
{
name = bottom;
position = "{264, -311}";
},
{
name = top;
position = "{263, 226}";
}
);
layerId = master01;
paths = (
{
closed = 1;
nodes = (
"297 -262 OFFCURVE",
"344 -250 OFFCURVE",
"389 -226 CURVE SMOOTH",
"480 -179 OFFCURVE",
"535 -99 OFFCURVE",
"535 -17 CURVE SMOOTH",
"535 11 OFFCURVE",
"530 49 OFFCURVE",
"521 97 CURVE SMOOTH",
"509 160 OFFCURVE",
"501 203 OFFCURVE",
"498 226 CURVE",
"450 197 OFFCURVE",
"433 171 OFFCURVE",
"433 137 CURVE SMOOTH",
"433 105 OFFCURVE",
"454 41 OFFCURVE",
"498 -54 CURVE",
"465 -125 OFFCURVE",
"350 -179 OFFCURVE",
"251 -179 CURVE SMOOTH",
"164 -179 OFFCURVE",
"113 -122 OFFCURVE",
"113 -24 CURVE SMOOTH",
"113 -6 OFFCURVE",
"117 18 OFFCURVE",
"124 47 CURVE",
"87 56 LINE",
"71 -10 OFFCURVE",
"68 -35 OFFCURVE",
"68 -74 CURVE SMOOTH",
"68 -194 OFFCURVE",
"135 -262 OFFCURVE",
"249 -262 CURVE SMOOTH"
);
}
);
width = 586;
},
{
anchors = (
{
name = bottom;
position = "{276, -301}";
},
{
name = top;
position = "{272, 270}";
}
);
layerId = "26E2967D-790C-4793-AF2A-2D0AD74EDC69";
paths = (
{
closed = 1;
nodes = (
"306 -252 OFFCURVE",
"357 -242 OFFCURVE",
"403 -220 CURVE SMOOTH",
"495 -177 OFFCURVE",
"552 -96 OFFCURVE",
"552 -7 CURVE SMOOTH",
"552 29 OFFCURVE",
"545 75 OFFCURVE",
"537 123 CURVE SMOOTH",
"531 163 OFFCURVE",
"518 230 OFFCURVE",
"513 270 CURVE",
"444 236 OFFCURVE",
"412 194 OFFCURVE",
"412 138 CURVE SMOOTH",
"412 111 OFFCURVE",
"451 43 OFFCURVE",
"497 -45 CURVE",
"426 -109 OFFCURVE",
"359 -134 OFFCURVE",
"254 -134 CURVE SMOOTH",
"165 -134 OFFCURVE",
"123 -88 OFFCURVE",
"123 7 CURVE SMOOTH",
"123 30 OFFCURVE",
"128 57 OFFCURVE",
"137 87 CURVE",
"93 98 LINE",
"76 35 OFFCURVE",
"68 -13 OFFCURVE",
"68 -47 CURVE SMOOTH",
"68 -180 OFFCURVE",
"132 -252 OFFCURVE",
"251 -252 CURVE SMOOTH"
);
}
);
width = 604;
}
);
unicode = "06BA,FB9E";
},
{
glyphname = uniFB9F;
lastChange = "2019-12-18 10:09:45 +0000";
layers = (
{
anchors = (
{
name = bottom;
position = "{264, -311}";
},
{
name = top;
position = "{264, 202}";
}
);
layerId = master01;
paths = (
{
closed = 1;
nodes = (
"297 -262 OFFCURVE",
"344 -250 OFFCURVE",
"389 -226 CURVE SMOOTH",
"480 -179 OFFCURVE",
"535 -99 OFFCURVE",
"535 -17 CURVE SMOOTH",
"534 12 LINE",
"552 4 OFFCURVE",
"572 0 OFFCURVE",
"594 0 CURVE SMOOTH",
"600 0 OFFCURVE",
"603 3 OFFCURVE",
"603 8 CURVE SMOOTH",
"603 68 LINE SMOOTH",
"603 73 OFFCURVE",
"600 76 OFFCURVE",
"594 76 CURVE SMOOTH",
"568 76 OFFCURVE",
"544 82 OFFCURVE",
"521 93 CURVE",
"508 161 OFFCURVE",
"500 205 OFFCURVE",
"498 226 CURVE",
"450 197 OFFCURVE",
"433 171 OFFCURVE",
"433 137 CURVE SMOOTH",
"433 105 OFFCURVE",
"454 41 OFFCURVE",
"498 -54 CURVE",
"465 -125 OFFCURVE",
"350 -179 OFFCURVE",
"251 -179 CURVE SMOOTH",
"164 -179 OFFCURVE",
"113 -122 OFFCURVE",
"113 -24 CURVE SMOOTH",
"113 -6 OFFCURVE",
"117 18 OFFCURVE",
"124 47 CURVE",
"87 56 LINE",
"71 -10 OFFCURVE",
"68 -35 OFFCURVE",
"68 -74 CURVE SMOOTH",
"68 -194 OFFCURVE",
"135 -262 OFFCURVE",
"249 -262 CURVE SMOOTH"
);
}
);
width = 585;
},
{
anchors = (
{
name = bottom;
position = "{271, -301}";
},
{
name = top;
position = "{272, 270}";
}
);
layerId = "26E2967D-790C-4793-AF2A-2D0AD74EDC69";
paths = (
{
closed = 1;
nodes = (
"306 -252 OFFCURVE",
"357 -242 OFFCURVE",
"403 -220 CURVE SMOOTH",
"495 -177 OFFCURVE",
"552 -96 OFFCURVE",
"552 -7 CURVE SMOOTH",
"551 20 LINE",
"569 12 OFFCURVE",
"588 9 OFFCURVE",
"607 9 CURVE SMOOTH",
"613 9 OFFCURVE",
"616 12 OFFCURVE",
"616 17 CURVE SMOOTH",
"616 119 LINE SMOOTH",
"616 125 OFFCURVE",
"613 127 OFFCURVE",
"607 127 CURVE SMOOTH",
"580 127 OFFCURVE",
"555 133 OFFCURVE",
"533 145 CURVE",
"522 207 OFFCURVE",
"516 248 OFFCURVE",
"513 270 CURVE",
"444 236 OFFCURVE",
"412 194 OFFCURVE",
"412 138 CURVE SMOOTH",
"412 104 OFFCURVE",
"451 39 OFFCURVE",
"497 -45 CURVE",
"426 -109 OFFCURVE",
"359 -134 OFFCURVE",
"254 -134 CURVE SMOOTH",
"165 -134 OFFCURVE",
"123 -88 OFFCURVE",
"123 7 CURVE SMOOTH",
"123 30 OFFCURVE",
"128 57 OFFCURVE",
"137 87 CURVE",
"93 98 LINE",
"76 35 OFFCURVE",
"68 -13 OFFCURVE",
"68 -47 CURVE SMOOTH",
"68 -180 OFFCURVE",
"132 -252 OFFCURVE",
"251 -252 CURVE SMOOTH"
);
}
);
width = 599;
}
);
unicode = FB9F;
},
{
glyphname = uni0647;
lastChange = "2019-12-18 10:09:45 +0000";
layers = (
{
anchors = (
{
name = bottom;
position = "{215, -52}";
},
{
name = top;
position = "{169, 457}";
}
);
layerId = master01;
paths = (
{
closed = 1;
nodes = (
"228 0 OFFCURVE",
"261 9 OFFCURVE",
"289 28 CURVE SMOOTH",
"317 47 OFFCURVE",
"357 136 OFFCURVE",
"357 176 CURVE SMOOTH",
"357 203 OFFCURVE",
"347 234 OFFCURVE",
"328 267 CURVE SMOOTH",
"289 335 OFFCURVE",
"228 387 OFFCURVE",
"168 408 CURVE",
"153 402 OFFCURVE",
"142 381 OFFCURVE",
"142 360 CURVE SMOOTH",
"142 345 OFFCURVE",
"146 328 OFFCURVE",
"167 316 CURVE",
"98 251 OFFCURVE",
"68 188 OFFCURVE",
"68 126 CURVE SMOOTH",
"68 46 OFFCURVE",
"116 0 OFFCURVE",
"190 0 CURVE SMOOTH"
);
},
{
closed = 1;
nodes = (
"146 80 OFFCURVE",
"114 108 OFFCURVE",
"114 155 CURVE SMOOTH",
"114 194 OFFCURVE",
"145 248 OFFCURVE",
"195 294 CURVE",
"256 247 OFFCURVE",
"294 190 OFFCURVE",
"308 124 CURVE",
"286 104 OFFCURVE",
"237 80 OFFCURVE",
"201 80 CURVE SMOOTH"
);
}
);
width = 408;
},
{
anchors = (
{
name = bottom;
position = "{215, -58}";
},
{
name = top;
position = "{169, 503}";
}
);
layerId = "26E2967D-790C-4793-AF2A-2D0AD74EDC69";
paths = (
{
closed = 1;
nodes = (
"239 0 OFFCURVE",
"278 11 OFFCURVE",
"303 28 CURVE SMOOTH",
"332 46 OFFCURVE",
"374 147 OFFCURVE",
"374 185 CURVE SMOOTH",
"374 215 OFFCURVE",
"365 246 OFFCURVE",
"346 281 CURVE SMOOTH",
"308 349 OFFCURVE",
"239 406 OFFCURVE",
"163 430 CURVE",
"144 420 OFFCURVE",
"132 392 OFFCURVE",
"132 364 CURVE SMOOTH",
"132 344 OFFCURVE",
"137 323 OFFCURVE",
"159 310 CURVE",
"95 246 OFFCURVE",
"68 190 OFFCURVE",
"68 135 CURVE SMOOTH",
"68 57 OFFCURVE",
"123 0 OFFCURVE",
"199 0 CURVE SMOOTH"
);
},
{
closed = 1;
nodes = (
"172 105 OFFCURVE",
"143 131 OFFCURVE",
"143 168 CURVE SMOOTH",
"143 204 OFFCURVE",
"162 241 OFFCURVE",
"201 279 CURVE",
"256 238 OFFCURVE",
"289 192 OFFCURVE",
"309 133 CURVE",
"280 115 OFFCURVE",
"247 105 OFFCURVE",
"210 105 CURVE SMOOTH"
);
}
);
width = 425;
}
);
unicode = "0647,FEE9";
},
{
glyphname = uniFEEA;
lastChange = "2019-12-18 10:09:45 +0000";
layers = (
{
anchors = (
{
name = bottom;
position = "{286, -62}";
},
{
name = top;
position = "{231, 476}";
}
);
layerId = master01;
paths = (
{
closed = 1;
nodes = (
"466 0 OFFCURVE",
"469 3 OFFCURVE",
"469 8 CURVE SMOOTH",
"469 68 LINE SMOOTH",
"469 73 OFFCURVE",
"466 76 OFFCURVE",
"460 76 CURVE SMOOTH",
"421 76 OFFCURVE",
"387 85 OFFCURVE",
"356 103 CURVE",
"354 211 OFFCURVE",
"350 319 OFFCURVE",
"347 427 CURVE",
"322 413 OFFCURVE",
"298 396 OFFCURVE",
"274 375 CURVE",
"278 348 LINE",
"221 325 OFFCURVE",
"163 288 OFFCURVE",
"129 255 CURVE SMOOTH",
"118 244 OFFCURVE",
"109 233 OFFCURVE",
"104 224 CURVE SMOOTH",
"92 204 OFFCURVE",
"68 149 OFFCURVE",
"68 131 CURVE SMOOTH",
"68 106 OFFCURVE",
"125 76 OFFCURVE",
"161 62 CURVE SMOOTH",
"191 50 OFFCURVE",
"206 46 OFFCURVE",
"279 39 CURVE",
"315 108 LINE",
"319 87 LINE SMOOTH",
"327 32 OFFCURVE",
"380 0 OFFCURVE",
"460 0 CURVE SMOOTH"
);
},
{
closed = 1;
nodes = (
"289 121 OFFCURVE",
"265 122 OFFCURVE",
"242 125 CURVE SMOOTH",
"195 132 OFFCURVE",
"153 146 OFFCURVE",
"117 178 CURVE",
"151 221 OFFCURVE",
"207 256 OFFCURVE",
"287 283 CURVE",
"296 228 OFFCURVE",
"305 172 OFFCURVE",
"313 120 CURVE"
);
}
);
width = 452;
},
{
anchors = (
{
name = bottom;
position = "{305, -58}";
},
{
name = top;
position = "{231, 553}";
}
);
layerId = "26E2967D-790C-4793-AF2A-2D0AD74EDC69";
paths = (
{
closed = 1;
nodes = (
"480 9 OFFCURVE",
"483 12 OFFCURVE",
"483 17 CURVE SMOOTH",
"483 119 LINE SMOOTH",
"483 125 OFFCURVE",
"480 127 OFFCURVE",
"475 127 CURVE SMOOTH",
"436 127 OFFCURVE",
"400 136 OFFCURVE",
"368 154 CURVE",
"368 266 OFFCURVE",
"368 378 OFFCURVE",
"368 490 CURVE",
"334 469 OFFCURVE",
"315 457 OFFCURVE",
"264 417 CURVE",
"269 377 LINE",
"235 362 OFFCURVE",
"181 327 OFFCURVE",
"144 294 CURVE SMOOTH",
"125 278 OFFCURVE",
"112 263 OFFCURVE",
"106 250 CURVE SMOOTH",
"92 225 OFFCURVE",
"68 154 OFFCURVE",
"68 139 CURVE SMOOTH",
"68 116 OFFCURVE",
"127 75 OFFCURVE",
"177 57 CURVE SMOOTH",
"208 46 OFFCURVE",
"242 42 OFFCURVE",
"284 38 CURVE",
"324 120 LINE",
"333 83 LINE SMOOTH",
"342 36 OFFCURVE",
"394 9 OFFCURVE",
"475 9 CURVE SMOOTH"
);
},
{
closed = 1;
nodes = (
"292 158 OFFCURVE",
"273 160 OFFCURVE",
"255 163 CURVE SMOOTH",
"220 168 OFFCURVE",
"181 177 OFFCURVE",
"139 206 CURVE",
"174 239 OFFCURVE",
"222 266 OFFCURVE",
"285 287 CURVE",
"297 232 OFFCURVE",
"306 189 OFFCURVE",
"314 157 CURVE"
);
}
);
width = 466;
}
);
unicode = FEEA;
},
{
glyphname = uniFEEC;
lastChange = "2019-12-18 10:09:45 +0000";
layers = (
{
anchors = (
{
name = bottom;
position = "{253, -253}";
},
{
name = top;
position = "{229, 472}";
}
);
layerId = master01;
paths = (
{
closed = 1;
nodes = (
"288 -204 OFFCURVE",
"322 -191 OFFCURVE",
"339 -173 CURVE",
"348 -161 OFFCURVE",
"374 -97 OFFCURVE",
"374 -78 CURVE SMOOTH",
"374 -52 OFFCURVE",
"349 -21 OFFCURVE",
"317 -7 CURVE",
"338 -2 OFFCURVE",
"361 0 OFFCURVE",
"387 0 CURVE SMOOTH",
"394 0 OFFCURVE",
"398 4 OFFCURVE",
"398 11 CURVE SMOOTH",
"398 66 LINE SMOOTH",
"398 73 OFFCURVE",
"394 76 OFFCURVE",
"387 76 CURVE SMOOTH",
"333 76 OFFCURVE",
"292 74 OFFCURVE",
"237 69 CURVE",
"280 94 OFFCURVE",
"319 141 OFFCURVE",
"319 200 CURVE SMOOTH",
"319 219 OFFCURVE",
"315 250 OFFCURVE",
"306 295 CURVE SMOOTH",
"297 344 OFFCURVE",
"291 383 OFFCURVE",
"289 413 CURVE",
"253 423 LINE",
"142 318 OFFCURVE",
"79 203 OFFCURVE",
"65 79 CURVE",
"43 78 OFFCURVE",
"22 77 OFFCURVE",
"0 76 CURVE SMOOTH",
"-6 76 OFFCURVE",
"-8 73 OFFCURVE",
"-8 68 CURVE SMOOTH",
"-8 8 LINE SMOOTH",
"-8 3 OFFCURVE",
"-6 0 OFFCURVE",
"0 0 CURVE SMOOTH",
"18 1 LINE",
"28 -43 LINE",
"66 -27 LINE",
"84 -140 OFFCURVE",
"152 -204 OFFCURVE",
"255 -204 CURVE SMOOTH"
);
},
{
closed = 1;
nodes = (
"200 -134 OFFCURVE",
"153 -92 OFFCURVE",
"132 -6 CURVE",
"152 -2 OFFCURVE",
"165 0 OFFCURVE",
"171 0 CURVE SMOOTH",
"243 0 OFFCURVE",
"313 -49 OFFCURVE",
"330 -107 CURVE",
"315 -124 OFFCURVE",
"286 -134 OFFCURVE",
"264 -134 CURVE SMOOTH"
);
},
{
closed = 1;
nodes = (
"131 150 OFFCURVE",
"157 219 OFFCURVE",
"230 323 CURVE",
"233 294 OFFCURVE",
"240 248 OFFCURVE",
"253 185 CURVE SMOOTH",
"261 134 LINE",
"223 102 OFFCURVE",
"174 80 OFFCURVE",
"126 75 CURVE"
);
}
);
width = 381;
},
{
anchors = (
{
name = bottom;
position = "{253, -244}";
},
{
name = top;
position = "{229, 522}";
}
);
layerId = "26E2967D-790C-4793-AF2A-2D0AD74EDC69";
paths = (
{
closed = 1;
nodes = (
"307 -195 OFFCURVE",
"337 -180 OFFCURVE",
"351 -164 CURVE SMOOTH",
"360 -152 OFFCURVE",
"385 -88 OFFCURVE",
"385 -69 CURVE SMOOTH",
"385 -41 OFFCURVE",
"362 -11 OFFCURVE",
"333 3 CURVE",
"357 7 OFFCURVE",
"381 9 OFFCURVE",
"404 9 CURVE SMOOTH",
"411 9 OFFCURVE",
"415 12 OFFCURVE",
"415 20 CURVE SMOOTH",
"415 118 LINE SMOOTH",
"415 124 OFFCURVE",
"411 127 OFFCURVE",
"404 127 CURVE SMOOTH",
"376 127 OFFCURVE",
"353 127 OFFCURVE",
"289 114 CURVE",
"320 143 OFFCURVE",
"336 174 OFFCURVE",
"336 208 CURVE SMOOTH",
"336 228 OFFCURVE",
"332 262 OFFCURVE",
"323 312 CURVE SMOOTH",
"313 370 OFFCURVE",
"307 412 OFFCURVE",
"305 439 CURVE",
"261 449 LINE",
"161 354 OFFCURVE",
"98 248 OFFCURVE",
"72 130 CURVE",
"50 128 OFFCURVE",
"26 127 OFFCURVE",
"0 127 CURVE SMOOTH",
"-6 127 OFFCURVE",
"-8 125 OFFCURVE",
"-8 119 CURVE SMOOTH",
"-8 17 LINE SMOOTH",
"-8 12 OFFCURVE",
"-6 9 OFFCURVE",
"0 9 CURVE",
"26 11 LINE",
"37 -34 LINE",
"67 -20 LINE",
"85 -129 OFFCURVE",
"158 -195 OFFCURVE",
"264 -195 CURVE SMOOTH"
);
},
{
closed = 1;
nodes = (
"203 -100 OFFCURVE",
"161 -65 OFFCURVE",
"148 5 CURVE",
"159 8 OFFCURVE",
"167 9 OFFCURVE",
"171 9 CURVE SMOOTH",
"231 9 OFFCURVE",
"290 -24 OFFCURVE",
"330 -82 CURVE",
"309 -95 OFFCURVE",
"295 -100 OFFCURVE",
"272 -100 CURVE SMOOTH"
);
},
{
closed = 1;
nodes = (
"151 173 OFFCURVE",
"173 230 OFFCURVE",
"231 312 CURVE",
"235 287 OFFCURVE",
"246 252 OFFCURVE",
"262 207 CURVE SMOOTH",
"275 168 LINE",
"242 142 OFFCURVE",
"200 126 OFFCURVE",
"146 118 CURVE"
);
}
);
width = 397;
}
);
unicode = FEEC;
},
{
glyphname = uniFEEB;
lastChange = "2019-12-18 10:09:45 +0000";
layers = (
{
anchors = (
{
name = bottom;
position = "{224, -71}";
},
{
name = top;
position = "{180, 482}";
}
);
layerId = master01;
paths = (
{
closed = 1;
nodes = (
"436 33 OFFCURVE",
"457 86 OFFCURVE",
"457 116 CURVE SMOOTH",
"457 161 OFFCURVE",
"444 205 OFFCURVE",
"419 248 CURVE SMOOTH",
"370 333 OFFCURVE",
"277 401 OFFCURVE",
"164 433 CURVE",
"141 368 LINE",
"91 343 OFFCURVE",
"53 268 OFFCURVE",
"53 207 CURVE SMOOTH",
"53 165 OFFCURVE",
"74 125 OFFCURVE",
"115 89 CURVE",
"86 80 OFFCURVE",
"47 76 OFFCURVE",
"0 76 CURVE SMOOTH",
"-6 76 OFFCURVE",
"-8 74 OFFCURVE",
"-8 69 CURVE SMOOTH",
"-8 8 LINE SMOOTH",
"-8 3 OFFCURVE",
"-6 0 OFFCURVE",
"0 0 CURVE SMOOTH",
"74 0 OFFCURVE",
"131 13 OFFCURVE",
"184 44 CURVE",
"244 13 OFFCURVE",
"318 -8 OFFCURVE",
"405 -18 CURVE"
);
},
{
closed = 1;
nodes = (
"153 147 OFFCURVE",
"119 175 OFFCURVE",
"88 208 CURVE",
"94 227 OFFCURVE",
"101 245 OFFCURVE",
"112 260 CURVE SMOOTH",
"133 291 OFFCURVE",
"160 309 OFFCURVE",
"181 309 CURVE SMOOTH",
"210 309 OFFCURVE",
"240 269 OFFCURVE",
"240 231 CURVE SMOOTH",
"240 186 OFFCURVE",
"223 151 OFFCURVE",
"189 125 CURVE"
);
},
{
closed = 1;
nodes = (
"345 63 OFFCURVE",
"293 76 OFFCURVE",
"248 96 CURVE",
"281 134 OFFCURVE",
"298 178 OFFCURVE",
"298 228 CURVE SMOOTH",
"298 255 OFFCURVE",
"291 282 OFFCURVE",
"276 309 CURVE",
"298 290 OFFCURVE",
"319 267 OFFCURVE",
"339 239 CURVE SMOOTH",
"379 182 OFFCURVE",
"403 114 OFFCURVE",
"403 55 CURVE"
);
}
);
width = 508;
},
{
anchors = (
{
name = bottom;
position = "{224, -58}";
},
{
name = top;
position = "{180, 552}";
}
);
layerId = "26E2967D-790C-4793-AF2A-2D0AD74EDC69";
paths = (
{
closed = 1;
nodes = (
"444 42 OFFCURVE",
"465 94 OFFCURVE",
"465 125 CURVE SMOOTH",
"465 174 OFFCURVE",
"451 224 OFFCURVE",
"422 274 CURVE SMOOTH",
"366 375 OFFCURVE",
"264 452 OFFCURVE",
"155 479 CURVE",
"126 375 LINE",
"81 344 OFFCURVE",
"44 270 OFFCURVE",
"44 216 CURVE SMOOTH",
"44 186 OFFCURVE",
"54 157 OFFCURVE",
"75 129 CURVE",
"50 128 OFFCURVE",
"25 128 OFFCURVE",
"0 127 CURVE SMOOTH",
"-6 127 OFFCURVE",
"-8 125 OFFCURVE",
"-8 121 CURVE SMOOTH",
"-8 17 LINE SMOOTH",
"-8 12 OFFCURVE",
"-6 9 OFFCURVE",
"0 9 CURVE SMOOTH",
"69 9 OFFCURVE",
"127 22 OFFCURVE",
"175 48 CURVE",
"238 14 OFFCURVE",
"325 -7 OFFCURVE",
"414 -9 CURVE"
);
},
{
closed = 1;
nodes = (
"150 169 OFFCURVE",
"120 190 OFFCURVE",
"95 217 CURVE",
"102 233 OFFCURVE",
"109 248 OFFCURVE",
"116 259 CURVE SMOOTH",
"134 287 OFFCURVE",
"154 301 OFFCURVE",
"179 301 CURVE SMOOTH",
"203 301 OFFCURVE",
"229 272 OFFCURVE",
"229 240 CURVE SMOOTH",
"229 201 OFFCURVE",
"210 166 OFFCURVE",
"183 153 CURVE"
);
},
{
closed = 1;
nodes = (
"347 108 OFFCURVE",
"298 116 OFFCURVE",
"263 125 CURVE",
"284 157 OFFCURVE",
"294 194 OFFCURVE",
"294 237 CURVE SMOOTH",
"294 257 OFFCURVE",
"291 277 OFFCURVE",
"284 295 CURVE",
"303 280 OFFCURVE",
"320 263 OFFCURVE",
"335 242 CURVE SMOOTH",
"363 206 OFFCURVE",
"386 160 OFFCURVE",
"409 100 CURVE"
);
}
);
width = 516;
}
);
unicode = FEEB;
},
{
glyphname = uniFBA7;
lastChange = "2019-12-18 10:09:45 +0000";
layers = (
{
anchors = (
{
name = bottom;
position = "{284, -52}";
},
{
name = top;
position = "{229, 236}";
}
);
layerId = master01;
paths = (
{
closed = 1;
nodes = (
"125 38 OFFCURVE",
"151 65 OFFCURVE",
"173 82 CURVE SMOOTH",
"195 99 OFFCURVE",
"214 107 OFFCURVE",
"230 107 CURVE SMOOTH",
"243 107 OFFCURVE",
"257 98 OFFCURVE",
"274 80 CURVE SMOOTH",
"297 55 OFFCURVE",
"314 38 OFFCURVE",
"327 29 CURVE SMOOTH",
"353 12 OFFCURVE",
"385 0 OFFCURVE",
"431 0 CURVE SMOOTH",
"438 0 OFFCURVE",
"442 4 OFFCURVE",
"442 11 CURVE SMOOTH",
"442 66 LINE SMOOTH",
"442 73 OFFCURVE",
"438 76 OFFCURVE",
"431 76 CURVE SMOOTH",
"400 76 OFFCURVE",
"370 95 OFFCURVE",
"342 132 CURVE SMOOTH",
"312 170 OFFCURVE",
"290 187 OFFCURVE",
"264 187 CURVE SMOOTH",
"239 187 OFFCURVE",
"212 176 OFFCURVE",
"183 154 CURVE SMOOTH",
"147 127 OFFCURVE",
"109 83 OFFCURVE",
"68 23 CURVE",
"94 0 LINE"
);
}
);
width = 425;
},
{
anchors = (
{
name = bottom;
position = "{284, -58}";
},
{
name = top;
position = "{229, 312}";
}
);
layerId = "26E2967D-790C-4793-AF2A-2D0AD74EDC69";
paths = (
{
closed = 1;
nodes = (
"122 36 OFFCURVE",
"142 57 OFFCURVE",
"161 73 CURVE SMOOTH",
"188 95 OFFCURVE",
"213 107 OFFCURVE",
"236 107 CURVE SMOOTH",
"244 107 OFFCURVE",
"251 105 OFFCURVE",
"258 100 CURVE SMOOTH",
"264 96 OFFCURVE",
"280 82 OFFCURVE",
"304 58 CURVE SMOOTH",
"336 26 OFFCURVE",
"382 9 OFFCURVE",
"437 9 CURVE SMOOTH",
"444 9 OFFCURVE",
"448 12 OFFCURVE",
"448 20 CURVE SMOOTH",
"448 118 LINE SMOOTH",
"448 124 OFFCURVE",
"444 127 OFFCURVE",
"437 127 CURVE SMOOTH",
"406 127 OFFCURVE",
"378 145 OFFCURVE",
"348 184 CURVE SMOOTH",
"316 223 OFFCURVE",
"296 239 OFFCURVE",
"270 239 CURVE SMOOTH",
"243 239 OFFCURVE",
"212 222 OFFCURVE",
"178 187 CURVE SMOOTH",
"144 153 OFFCURVE",
"107 102 OFFCURVE",
"68 36 CURVE",
"101 9 LINE"
);
}
);
width = 431;
}
);
unicode = FBA7;
},
{
glyphname = uniFBA9;
lastChange = "2019-12-18 10:09:45 +0000";
layers = (
{
anchors = (
{
name = bottom;
position = "{145, -268}";
},
{
name = top;
position = "{231, 184}";
}
);
layerId = master01;
paths = (
{
closed = 1;
nodes = (
"263 -173 LINE",
"263 -112 OFFCURVE",
"265 -57 OFFCURVE",
"285 -14 CURVE",
"306 -5 OFFCURVE",
"345 0 OFFCURVE",
"401 0 CURVE SMOOTH",
"409 0 OFFCURVE",
"412 4 OFFCURVE",
"412 11 CURVE SMOOTH",
"412 66 LINE SMOOTH",
"412 73 OFFCURVE",
"409 76 OFFCURVE",
"401 76 CURVE SMOOTH",
"370 76 OFFCURVE",
"341 70 OFFCURVE",
"317 58 CURVE SMOOTH",
"263 31 OFFCURVE",
"228 -24 OFFCURVE",
"213 -98 CURVE SMOOTH",
"208 -128 LINE",
"155 -72 OFFCURVE",
"126 -5 OFFCURVE",
"126 59 CURVE SMOOTH",
"126 79 OFFCURVE",
"130 99 OFFCURVE",
"137 117 CURVE",
"128 129 OFFCURVE",
"117 135 OFFCURVE",
"105 135 CURVE SMOOTH",
"89 135 OFFCURVE",
"76 124 OFFCURVE",
"66 103 CURVE SMOOTH",
"58 84 OFFCURVE",
"46 76 OFFCURVE",
"0 76 CURVE SMOOTH",
"-6 76 OFFCURVE",
"-8 73 OFFCURVE",
"-8 68 CURVE SMOOTH",
"-8 8 LINE SMOOTH",
"-8 3 OFFCURVE",
"-6 0 OFFCURVE",
"0 0 CURVE SMOOTH",
"14 0 OFFCURVE",
"40 7 OFFCURVE",
"56 15 CURVE",
"63 -75 OFFCURVE",
"112 -158 OFFCURVE",
"192 -219 CURVE"
);
}
);
width = 395;
},
{
anchors = (
{
name = bottom;
position = "{135, -257}";
},
{
name = top;
position = "{256, 291}";
}
);
layerId = "26E2967D-790C-4793-AF2A-2D0AD74EDC69";
paths = (
{
closed = 1;
nodes = (
"277 -164 LINE",
"277 -92 OFFCURVE",
"282 -59 OFFCURVE",
"296 -7 CURVE",
"321 3 OFFCURVE",
"361 9 OFFCURVE",
"418 9 CURVE SMOOTH",
"426 9 OFFCURVE",
"429 12 OFFCURVE",
"429 20 CURVE SMOOTH",
"429 118 LINE SMOOTH",
"429 124 OFFCURVE",
"426 127 OFFCURVE",
"418 127 CURVE SMOOTH",
"376 127 OFFCURVE",
"342 118 OFFCURVE",
"315 98 CURVE SMOOTH",
"267 63 OFFCURVE",
"237 -2 OFFCURVE",
"223 -78 CURVE SMOOTH",
"218 -108 LINE",
"173 -43 OFFCURVE",
"156 7 OFFCURVE",
"156 76 CURVE SMOOTH",
"156 110 OFFCURVE",
"161 152 OFFCURVE",
"171 200 CURVE",
"158 211 OFFCURVE",
"144 217 OFFCURVE",
"129 217 CURVE SMOOTH",
"103 217 OFFCURVE",
"79 198 OFFCURVE",
"68 171 CURVE SMOOTH",
"57 144 OFFCURVE",
"29 127 OFFCURVE",
"0 127 CURVE SMOOTH",
"-6 127 OFFCURVE",
"-8 125 OFFCURVE",
"-8 119 CURVE SMOOTH",
"-8 17 LINE SMOOTH",
"-8 12 OFFCURVE",
"-6 9 OFFCURVE",
"0 9 CURVE SMOOTH",
"21 9 OFFCURVE",
"39 12 OFFCURVE",
"55 20 CURVE",
"58 -64 OFFCURVE",
"120 -164 OFFCURVE",
"195 -218 CURVE"
);
}
);
width = 412;
}
);
unicode = FBA9;
},
{
glyphname = uniFBA8;
lastChange = "2019-12-18 10:09:45 +0000";
layers = (
{
anchors = (
{
name = bottom;
position = "{154, -261}";
},
{
name = top;
position = "{124, 423}";
}
);
layerId = master01;
paths = (
{
closed = 1;
nodes = (
"65 0 OFFCURVE",
"128 18 OFFCURVE",
"189 55 CURVE",
"212 97 OFFCURVE",
"225 137 OFFCURVE",
"225 157 CURVE SMOOTH",
"225 181 OFFCURVE",
"220 215 OFFCURVE",
"210 259 CURVE SMOOTH",
"198 317 OFFCURVE",
"190 355 OFFCURVE",
"187 374 CURVE",
"147 352 OFFCURVE",
"122 319 OFFCURVE",
"122 290 CURVE SMOOTH",
"122 279 OFFCURVE",
"128 257 OFFCURVE",
"141 223 CURVE SMOOTH",
"156 180 OFFCURVE",
"168 144 OFFCURVE",
"177 113 CURVE",
"129 91 OFFCURVE",
"61 76 OFFCURVE",
"0 76 CURVE SMOOTH",
"-6 76 OFFCURVE",
"-8 73 OFFCURVE",
"-8 68 CURVE SMOOTH",
"-8 8 LINE SMOOTH",
"-8 3 OFFCURVE",
"-6 0 OFFCURVE",
"0 0 CURVE SMOOTH"
);
},
{
closed = 1;
nodes = (
"142 -212 OFFCURVE",
"168 -185 OFFCURVE",
"180 -161 CURVE",
"151 -152 OFFCURVE",
"139 -141 OFFCURVE",
"139 -123 CURVE SMOOTH",
"139 -99 OFFCURVE",
"149 -72 OFFCURVE",
"171 -42 CURVE",
"144 -25 LINE",
"104 -77 OFFCURVE",
"84 -123 OFFCURVE",
"84 -163 CURVE SMOOTH",
"84 -188 OFFCURVE",
"103 -209 OFFCURVE",
"130 -212 CURVE"
);
}
);
width = 275;
},
{
anchors = (
{
name = bottom;
position = "{188, -261}";
},
{
name = top;
position = "{124, 490}";
}
);
layerId = "26E2967D-790C-4793-AF2A-2D0AD74EDC69";
paths = (
{
closed = 1;
nodes = (
"71 9 OFFCURVE",
"137 27 OFFCURVE",
"198 64 CURVE",
"219 106 OFFCURVE",
"237 154 OFFCURVE",
"237 185 CURVE SMOOTH",
"237 206 OFFCURVE",
"227 262 OFFCURVE",
"208 352 CURVE SMOOTH",
"204 374 OFFCURVE",
"200 395 OFFCURVE",
"195 417 CURVE",
"146 392 OFFCURVE",
"104 348 OFFCURVE",
"104 315 CURVE SMOOTH",
"104 298 OFFCURVE",
"114 277 OFFCURVE",
"128 252 CURVE SMOOTH",
"140 230 OFFCURVE",
"164 187 OFFCURVE",
"178 156 CURVE",
"141 139 OFFCURVE",
"66 127 OFFCURVE",
"0 127 CURVE SMOOTH",
"-6 127 OFFCURVE",
"-8 125 OFFCURVE",
"-8 119 CURVE SMOOTH",
"-8 17 LINE SMOOTH",
"-8 12 OFFCURVE",
"-6 9 OFFCURVE",
"0 9 CURVE SMOOTH"
);
},
{
closed = 1;
nodes = (
"204 -212 OFFCURVE",
"234 -182 OFFCURVE",
"247 -155 CURVE",
"214 -146 OFFCURVE",
"201 -134 OFFCURVE",
"201 -113 CURVE SMOOTH",
"201 -86 OFFCURVE",
"213 -56 OFFCURVE",
"236 -23 CURVE",
"206 -5 LINE",
"162 -62 OFFCURVE",
"140 -113 OFFCURVE",
"140 -158 CURVE SMOOTH",
"140 -186 OFFCURVE",
"160 -209 OFFCURVE",
"190 -212 CURVE"
);
}
);
width = 275;
}
);
unicode = FBA8;
},
{
glyphname = uni06BE;
lastChange = "2019-12-18 10:09:45 +0000";
layers = (
{
anchors = (
{
name = bottom;
position = "{320, -67}";
},
{
name = top;
position = "{268, 482}";
}
);
layerId = master01;
paths = (
{
closed = 1;
nodes = (
"563 39 OFFCURVE",
"580 84 OFFCURVE",
"580 116 CURVE SMOOTH",
"580 161 OFFCURVE",
"567 205 OFFCURVE",
"542 248 CURVE SMOOTH",
"492 334 OFFCURVE",
"398 402 OFFCURVE",
"287 433 CURVE",
"264 368 LINE",
"214 343 OFFCURVE",
"176 268 OFFCURVE",
"176 207 CURVE SMOOTH",
"176 164 OFFCURVE",
"196 125 OFFCURVE",
"238 90 CURVE",
"205 81 OFFCURVE",
"171 76 OFFCURVE",
"137 76 CURVE SMOOTH",
"91 76 OFFCURVE",
"54 79 OFFCURVE",
"26 84 CURVE",
"17 50 LINE",
"77 17 OFFCURVE",
"122 0 OFFCURVE",
"151 0 CURVE SMOOTH",
"206 0 OFFCURVE",
"258 15 OFFCURVE",
"307 44 CURVE",
"368 13 OFFCURVE",
"442 -8 OFFCURVE",
"529 -18 CURVE"
);
},
{
closed = 1;
nodes = (
"274 148 OFFCURVE",
"240 175 OFFCURVE",
"211 208 CURVE",
"217 227 OFFCURVE",
"224 245 OFFCURVE",
"235 260 CURVE SMOOTH",
"256 291 OFFCURVE",
"283 309 OFFCURVE",
"304 309 CURVE SMOOTH",
"333 309 OFFCURVE",
"363 269 OFFCURVE",
"363 231 CURVE SMOOTH",
"363 187 OFFCURVE",
"346 152 OFFCURVE",
"312 125 CURVE"
);
},
{
closed = 1;
nodes = (
"472 62 OFFCURVE",
"420 75 OFFCURVE",
"370 95 CURVE",
"405 134 OFFCURVE",
"422 178 OFFCURVE",
"422 228 CURVE SMOOTH",
"422 256 OFFCURVE",
"415 283 OFFCURVE",
"400 308 CURVE",
"475 244 OFFCURVE",
"526 142 OFFCURVE",
"526 55 CURVE"
);
}
);
width = 631;
},
{
anchors = (
{
name = bottom;
position = "{340, -72}";
},
{
name = top;
position = "{287, 552}";
}
);
layerId = "26E2967D-790C-4793-AF2A-2D0AD74EDC69";
paths = (
{
closed = 1;
nodes = (
"602 48 OFFCURVE",
"619 93 OFFCURVE",
"619 125 CURVE SMOOTH",
"619 174 OFFCURVE",
"604 224 OFFCURVE",
"576 274 CURVE SMOOTH",
"520 375 OFFCURVE",
"417 452 OFFCURVE",
"309 479 CURVE",
"280 375 LINE",
"235 344 OFFCURVE",
"198 269 OFFCURVE",
"198 216 CURVE SMOOTH",
"198 185 OFFCURVE",
"210 154 OFFCURVE",
"233 123 CURVE",
"212 120 OFFCURVE",
"188 119 OFFCURVE",
"164 119 CURVE SMOOTH",
"126 119 OFFCURVE",
"90 123 OFFCURVE",
"54 130 CURVE",
"34 90 LINE",
"68 52 OFFCURVE",
"133 9 OFFCURVE",
"154 9 CURVE SMOOTH",
"223 9 OFFCURVE",
"281 22 OFFCURVE",
"329 48 CURVE",
"392 15 OFFCURVE",
"475 -7 OFFCURVE",
"568 -9 CURVE"
);
},
{
closed = 1;
nodes = (
"304 169 OFFCURVE",
"274 190 OFFCURVE",
"249 217 CURVE",
"256 236 OFFCURVE",
"264 251 OFFCURVE",
"273 264 CURVE SMOOTH",
"290 289 OFFCURVE",
"310 301 OFFCURVE",
"333 301 CURVE SMOOTH",
"356 301 OFFCURVE",
"383 272 OFFCURVE",
"383 240 CURVE SMOOTH",
"383 203 OFFCURVE",
"363 166 OFFCURVE",
"337 153 CURVE"
);
},
{
closed = 1;
nodes = (
"500 108 OFFCURVE",
"451 116 OFFCURVE",
"417 125 CURVE",
"437 157 OFFCURVE",
"448 194 OFFCURVE",
"448 237 CURVE SMOOTH",
"448 258 OFFCURVE",
"444 277 OFFCURVE",
"437 296 CURVE",
"490 253 OFFCURVE",
"528 193 OFFCURVE",
"563 100 CURVE"
);
}
);
width = 670;
}
);
unicode = "06BE,FBAA";
},
